%TF.GenerationSoftware,KiCad,Pcbnew,(6.0.11)*%
%TF.CreationDate,2025-09-27T21:04:19-04:00*%
%TF.ProjectId,433MHz-SRX882S-Dongle,3433334d-487a-42d5-9352-58383832532d,rev?*%
%TF.SameCoordinates,Original*%
%TF.FileFunction,Copper,L2,Bot*%
%TF.FilePolarity,Positive*%
%FSLAX46Y46*%
G04 Gerber Fmt 4.6, Leading zero omitted, Abs format (unit mm)*
G04 Created by KiCad (PCBNEW (6.0.11)) date 2025-09-27 21:04:19*
%MOMM*%
%LPD*%
G01*
G04 APERTURE LIST*
%TA.AperFunction,ConnectorPad*%
%ADD10C,5.600000*%
%TD*%
%TA.AperFunction,ComponentPad*%
%ADD11C,3.600000*%
%TD*%
%TA.AperFunction,ComponentPad*%
%ADD12R,1.700000X1.700000*%
%TD*%
%TA.AperFunction,ComponentPad*%
%ADD13O,1.700000X1.700000*%
%TD*%
%TA.AperFunction,ComponentPad*%
%ADD14O,1.800000X1.000000*%
%TD*%
%TA.AperFunction,ComponentPad*%
%ADD15O,2.100000X1.000000*%
%TD*%
%TA.AperFunction,ComponentPad*%
%ADD16C,1.524000*%
%TD*%
%TA.AperFunction,ViaPad*%
%ADD17C,0.800000*%
%TD*%
%TA.AperFunction,Conductor*%
%ADD18C,0.250000*%
%TD*%
%TA.AperFunction,Conductor*%
%ADD19C,0.200000*%
%TD*%
G04 APERTURE END LIST*
D10*
%TO.P,M3,1*%
%TO.N,Earth_Protective*%
X119750000Y-115900000D03*
D11*
X119750000Y-115900000D03*
%TD*%
D12*
%TO.P,J4,1,Pin_1*%
%TO.N,+3V3*%
X121450000Y-97926250D03*
D13*
%TO.P,J4,2,Pin_2*%
%TO.N,NRST*%
X121450000Y-100466250D03*
%TO.P,J4,3,Pin_3*%
%TO.N,SWDIO*%
X121450000Y-103006250D03*
%TO.P,J4,4,Pin_4*%
%TO.N,SWCLK*%
X121450000Y-105546250D03*
%TO.P,J4,5,Pin_5*%
%TO.N,SWO*%
X121450000Y-108086250D03*
%TO.P,J4,6,Pin_6*%
%TO.N,GND*%
X121450000Y-110626250D03*
%TD*%
D11*
%TO.P,M3,1*%
%TO.N,Earth_Protective*%
X119750000Y-92400000D03*
D10*
X119750000Y-92400000D03*
%TD*%
%TO.P,M3,1*%
%TO.N,Earth_Protective*%
X69250000Y-115900000D03*
D11*
X69250000Y-115900000D03*
%TD*%
D12*
%TO.P,J5,1,Pin_1*%
%TO.N,Net-(J5-Pad1)*%
X113250000Y-105750000D03*
%TD*%
D14*
%TO.P,J1,S1,SHIELD*%
%TO.N,Earth_Protective*%
X66200000Y-108440000D03*
X66200000Y-99800000D03*
D15*
X70400000Y-99800000D03*
X70400000Y-108440000D03*
%TD*%
D12*
%TO.P,J2,1,Pin_1*%
%TO.N,Net-(J2-Pad1)*%
X96850000Y-91155000D03*
%TD*%
D11*
%TO.P,M3,1*%
%TO.N,Earth_Protective*%
X69250000Y-92400000D03*
D10*
X69250000Y-92400000D03*
%TD*%
D16*
%TO.P,U3,1,ANT*%
%TO.N,Net-(J5-Pad1)*%
X113000000Y-117250000D03*
%TO.P,U3,2,GND*%
%TO.N,GND*%
X110460000Y-117250000D03*
%TO.P,U3,3,VCC*%
%TO.N,+3V3*%
X91600000Y-117250000D03*
%TO.P,U3,4,CS*%
%TO.N,RX_EN*%
X89060000Y-117250000D03*
%TO.P,U3,5,DATA*%
%TO.N,RXD*%
X86520000Y-117250000D03*
%TO.P,U3,6,GND*%
%TO.N,GND*%
X83980000Y-117250000D03*
%TO.P,U3,7,ANT*%
%TO.N,Net-(J5-Pad1)*%
X113000000Y-109250000D03*
%TD*%
%TO.P,U1,1,ANT*%
%TO.N,Net-(J2-Pad1)*%
X100500000Y-91090000D03*
%TO.P,U1,2,DATA*%
%TO.N,TXD*%
X113300000Y-93410000D03*
%TO.P,U1,3,VCC*%
%TO.N,+3V3*%
X113300000Y-95950000D03*
%TO.P,U1,4,GND*%
%TO.N,GND*%
X113300000Y-98490000D03*
%TD*%
D17*
%TO.N,GND*%
X104250000Y-104740000D03*
X86950000Y-98000000D03*
X88150000Y-114850000D03*
X100600000Y-117150000D03*
X88900000Y-106500000D03*
X93350000Y-95450000D03*
X72810000Y-100920000D03*
X107600000Y-117200000D03*
X72710000Y-107320000D03*
X80100000Y-95450000D03*
X88950000Y-95724500D03*
X103050000Y-99800000D03*
X97250000Y-110650000D03*
X84500000Y-95350000D03*
X98850000Y-108500000D03*
X92400000Y-101300000D03*
%TO.N,LED*%
X92200000Y-103650000D03*
X82350000Y-95350000D03*
%TO.N,LED2*%
X94900000Y-103275500D03*
X86825000Y-95275000D03*
%TO.N,RX_EN*%
X94400000Y-110200000D03*
X91100000Y-95724500D03*
X93350000Y-103275500D03*
%TO.N,USB_D+*%
X73950000Y-104350000D03*
X85250000Y-105200000D03*
%TO.N,USB_D-*%
X75294398Y-103854085D03*
X85250000Y-104000000D03*
%TO.N,NRST*%
X97162701Y-104000500D03*
X81900000Y-110100000D03*
%TO.N,SWDIO*%
X93155747Y-105455247D03*
%TO.N,SWCLK*%
X91900000Y-110150000D03*
%TO.N,SWO*%
X92900000Y-106929747D03*
%TO.N,TXD*%
X96300000Y-102050000D03*
%TO.N,RXD*%
X100300000Y-102050000D03*
%TD*%
D18*
%TO.N,LED*%
X92150000Y-97100000D02*
X93850000Y-98800000D01*
X82350000Y-95350000D02*
X84100000Y-97100000D01*
X92200000Y-103400195D02*
X92200000Y-103650000D01*
X93850000Y-98800000D02*
X93850000Y-101750195D01*
X93850000Y-101750195D02*
X92200000Y-103400195D01*
X84100000Y-97100000D02*
X92150000Y-97100000D01*
%TO.N,LED2*%
X94900000Y-98200000D02*
X94900000Y-103275500D01*
X87100000Y-95000000D02*
X91700000Y-95000000D01*
X91700000Y-95000000D02*
X94900000Y-98200000D01*
X86825000Y-95275000D02*
X87100000Y-95000000D01*
%TO.N,RX_EN*%
X94450000Y-102175500D02*
X93350000Y-103275500D01*
X90875000Y-110875000D02*
X89060000Y-112690000D01*
X93725000Y-110875000D02*
X90875000Y-110875000D01*
X94450000Y-98600000D02*
X94450000Y-102175500D01*
X89060000Y-112690000D02*
X89060000Y-117250000D01*
X91574500Y-95724500D02*
X94450000Y-98600000D01*
X91100000Y-95724500D02*
X91574500Y-95724500D01*
X94400000Y-110200000D02*
X93725000Y-110875000D01*
D19*
%TO.N,USB_D+*%
X75584348Y-104554085D02*
X75588433Y-104550000D01*
X73950000Y-104350000D02*
X74154085Y-104554085D01*
X75588433Y-104550000D02*
X84600000Y-104550000D01*
X74154085Y-104554085D02*
X75584348Y-104554085D01*
X84600000Y-104550000D02*
X85250000Y-105200000D01*
%TO.N,USB_D-*%
X85104085Y-103854085D02*
X85250000Y-104000000D01*
X75294398Y-103854085D02*
X85104085Y-103854085D01*
D18*
%TO.N,NRST*%
X97162701Y-104000500D02*
X97162701Y-101837299D01*
X120816250Y-101100000D02*
X121450000Y-100466250D01*
X92950000Y-104000000D02*
X86850000Y-110100000D01*
X97162201Y-104000000D02*
X92950000Y-104000000D01*
X97900000Y-101100000D02*
X120816250Y-101100000D01*
X97162701Y-104000500D02*
X97162201Y-104000000D01*
X97162701Y-101837299D02*
X97900000Y-101100000D01*
X86850000Y-110100000D02*
X81900000Y-110100000D01*
%TO.N,SWDIO*%
X101775305Y-101600000D02*
X120043750Y-101600000D01*
X120043750Y-101600000D02*
X121450000Y-103006250D01*
X97920058Y-105455247D02*
X101775305Y-101600000D01*
X93155747Y-105455247D02*
X97920058Y-105455247D01*
%TO.N,SWCLK*%
X92294753Y-106205247D02*
X97806454Y-106205247D01*
X97806454Y-106205247D02*
X101911701Y-102100000D01*
X118003750Y-102100000D02*
X121450000Y-105546250D01*
X101911701Y-102100000D02*
X118003750Y-102100000D01*
X91900000Y-110150000D02*
X91900000Y-106600000D01*
X91900000Y-106600000D02*
X92294753Y-106205247D01*
%TO.N,SWO*%
X101948097Y-102700000D02*
X116063750Y-102700000D01*
X97718350Y-106929747D02*
X101948097Y-102700000D01*
X116063750Y-102700000D02*
X121450000Y-108086250D01*
X92900000Y-106929747D02*
X97718350Y-106929747D01*
%TO.N,TXD*%
X96699097Y-101650903D02*
X96712701Y-101650903D01*
X109100000Y-100650000D02*
X110425000Y-99325000D01*
X110425000Y-96285000D02*
X113300000Y-93410000D01*
X110425000Y-99325000D02*
X110425000Y-96285000D01*
X96300000Y-102050000D02*
X96699097Y-101650903D01*
X96712701Y-101650903D02*
X97713604Y-100650000D01*
X97713604Y-100650000D02*
X109100000Y-100650000D01*
%TO.N,RXD*%
X86520000Y-111066396D02*
X92861396Y-104725000D01*
X86520000Y-117250000D02*
X86520000Y-111066396D01*
X97625000Y-104725000D02*
X100300000Y-102050000D01*
X92861396Y-104725000D02*
X97625000Y-104725000D01*
%TD*%
%TA.AperFunction,Conductor*%
%TO.N,GND*%
G36*
X68631534Y-88928502D02*
G01*
X68678027Y-88982158D01*
X68688131Y-89052432D01*
X68658637Y-89117012D01*
X68598911Y-89155396D01*
X68590257Y-89157608D01*
X68370117Y-89205606D01*
X68030271Y-89319317D01*
X68027178Y-89320739D01*
X68027177Y-89320740D01*
X68020974Y-89323593D01*
X67704694Y-89469066D01*
X67397193Y-89653101D01*
X67394467Y-89655163D01*
X67394465Y-89655164D01*
X67123927Y-89859771D01*
X67111367Y-89869270D01*
X67108882Y-89871612D01*
X67108877Y-89871616D01*
X67011626Y-89963261D01*
X66850559Y-90115043D01*
X66617819Y-90387546D01*
X66615900Y-90390358D01*
X66615897Y-90390363D01*
X66522624Y-90527097D01*
X66415871Y-90683591D01*
X66247077Y-90999714D01*
X66113411Y-91332218D01*
X66112491Y-91335492D01*
X66112489Y-91335497D01*
X66057486Y-91531178D01*
X66016437Y-91677213D01*
X66015875Y-91680570D01*
X66015875Y-91680571D01*
X65978274Y-91905270D01*
X65957290Y-92030663D01*
X65936661Y-92388434D01*
X65954792Y-92746340D01*
X65955329Y-92749695D01*
X65955330Y-92749701D01*
X65960316Y-92780828D01*
X66011470Y-93100195D01*
X66106033Y-93445859D01*
X66237374Y-93779288D01*
X66268151Y-93837909D01*
X66378281Y-94047676D01*
X66403957Y-94096582D01*
X66405858Y-94099411D01*
X66405864Y-94099421D01*
X66584023Y-94364547D01*
X66603834Y-94394029D01*
X66834665Y-94668150D01*
X67093751Y-94915738D01*
X67378061Y-95133897D01*
X67410056Y-95153350D01*
X67681355Y-95318303D01*
X67681360Y-95318306D01*
X67684270Y-95320075D01*
X67687358Y-95321521D01*
X67687357Y-95321521D01*
X68005710Y-95470649D01*
X68005720Y-95470653D01*
X68008794Y-95472093D01*
X68012012Y-95473195D01*
X68012015Y-95473196D01*
X68344615Y-95587071D01*
X68344623Y-95587073D01*
X68347838Y-95588174D01*
X68697435Y-95666959D01*
X68749728Y-95672917D01*
X69050114Y-95707142D01*
X69050122Y-95707142D01*
X69053497Y-95707527D01*
X69056901Y-95707545D01*
X69056904Y-95707545D01*
X69251227Y-95708562D01*
X69411857Y-95709403D01*
X69415243Y-95709053D01*
X69415245Y-95709053D01*
X69764932Y-95672917D01*
X69764941Y-95672916D01*
X69768324Y-95672566D01*
X69771657Y-95671852D01*
X69771660Y-95671851D01*
X69950550Y-95633500D01*
X70118727Y-95597446D01*
X70458968Y-95484922D01*
X70785066Y-95336311D01*
X71081886Y-95160072D01*
X71090262Y-95155099D01*
X71090267Y-95155096D01*
X71093207Y-95153350D01*
X71118007Y-95134730D01*
X71192506Y-95078794D01*
X71379786Y-94938180D01*
X71641451Y-94693319D01*
X71875140Y-94421630D01*
X72006994Y-94229781D01*
X72076190Y-94129101D01*
X72076195Y-94129094D01*
X72078120Y-94126292D01*
X72079732Y-94123298D01*
X72079737Y-94123290D01*
X72246395Y-93813772D01*
X72248017Y-93810760D01*
X72382842Y-93478724D01*
X72393142Y-93442568D01*
X72413527Y-93371006D01*
X72481020Y-93134070D01*
X72508415Y-92973804D01*
X72540829Y-92784175D01*
X72540829Y-92784173D01*
X72541401Y-92780828D01*
X72541617Y-92777311D01*
X72563168Y-92424928D01*
X72563278Y-92423131D01*
X72563359Y-92400000D01*
X72544573Y-92053134D01*
X95491500Y-92053134D01*
X95498255Y-92115316D01*
X95549385Y-92251705D01*
X95636739Y-92368261D01*
X95753295Y-92455615D01*
X95889684Y-92506745D01*
X95951866Y-92513500D01*
X97748134Y-92513500D01*
X97810316Y-92506745D01*
X97946705Y-92455615D01*
X98063261Y-92368261D01*
X98150615Y-92251705D01*
X98201745Y-92115316D01*
X98208500Y-92053134D01*
X98208500Y-91090000D01*
X99224647Y-91090000D01*
X99244022Y-91311463D01*
X99301560Y-91526196D01*
X99303882Y-91531177D01*
X99303883Y-91531178D01*
X99393186Y-91722689D01*
X99393189Y-91722694D01*
X99395512Y-91727676D01*
X99523023Y-91909781D01*
X99680219Y-92066977D01*
X99684727Y-92070134D01*
X99684730Y-92070136D01*
X99749254Y-92115316D01*
X99862323Y-92194488D01*
X99867305Y-92196811D01*
X99867310Y-92196814D01*
X100058822Y-92286117D01*
X100063804Y-92288440D01*
X100069112Y-92289862D01*
X100069114Y-92289863D01*
X100118836Y-92303186D01*
X100278537Y-92345978D01*
X100500000Y-92365353D01*
X100721463Y-92345978D01*
X100881164Y-92303186D01*
X100930886Y-92289863D01*
X100930888Y-92289862D01*
X100936196Y-92288440D01*
X100941178Y-92286117D01*
X101132690Y-92196814D01*
X101132695Y-92196811D01*
X101137677Y-92194488D01*
X101250746Y-92115316D01*
X101315270Y-92070136D01*
X101315273Y-92070134D01*
X101319781Y-92066977D01*
X101476977Y-91909781D01*
X101604488Y-91727676D01*
X101606811Y-91722694D01*
X101606814Y-91722689D01*
X101696117Y-91531178D01*
X101696118Y-91531177D01*
X101698440Y-91526196D01*
X101755978Y-91311463D01*
X101775353Y-91090000D01*
X101755978Y-90868537D01*
X101707225Y-90686590D01*
X101699863Y-90659114D01*
X101699862Y-90659112D01*
X101698440Y-90653804D01*
X101696117Y-90648822D01*
X101606814Y-90457311D01*
X101606811Y-90457306D01*
X101604488Y-90452324D01*
X101601331Y-90447815D01*
X101480136Y-90274730D01*
X101480134Y-90274727D01*
X101476977Y-90270219D01*
X101319781Y-90113023D01*
X101315273Y-90109866D01*
X101315270Y-90109864D01*
X101231359Y-90051109D01*
X101137677Y-89985512D01*
X101132695Y-89983189D01*
X101132690Y-89983186D01*
X100941178Y-89893883D01*
X100941177Y-89893882D01*
X100936196Y-89891560D01*
X100930888Y-89890138D01*
X100930886Y-89890137D01*
X100853009Y-89869270D01*
X100721463Y-89834022D01*
X100500000Y-89814647D01*
X100278537Y-89834022D01*
X100146991Y-89869270D01*
X100069114Y-89890137D01*
X100069112Y-89890138D01*
X100063804Y-89891560D01*
X100058823Y-89893882D01*
X100058822Y-89893883D01*
X99867311Y-89983186D01*
X99867306Y-89983189D01*
X99862324Y-89985512D01*
X99857817Y-89988668D01*
X99857815Y-89988669D01*
X99684730Y-90109864D01*
X99684727Y-90109866D01*
X99680219Y-90113023D01*
X99523023Y-90270219D01*
X99519866Y-90274727D01*
X99519864Y-90274730D01*
X99398669Y-90447815D01*
X99395512Y-90452324D01*
X99393189Y-90457306D01*
X99393186Y-90457311D01*
X99303883Y-90648822D01*
X99301560Y-90653804D01*
X99300138Y-90659112D01*
X99300137Y-90659114D01*
X99292775Y-90686590D01*
X99244022Y-90868537D01*
X99224647Y-91090000D01*
X98208500Y-91090000D01*
X98208500Y-90256866D01*
X98201745Y-90194684D01*
X98150615Y-90058295D01*
X98063261Y-89941739D01*
X97946705Y-89854385D01*
X97810316Y-89803255D01*
X97748134Y-89796500D01*
X95951866Y-89796500D01*
X95889684Y-89803255D01*
X95753295Y-89854385D01*
X95636739Y-89941739D01*
X95549385Y-90058295D01*
X95498255Y-90194684D01*
X95491500Y-90256866D01*
X95491500Y-92053134D01*
X72544573Y-92053134D01*
X72543979Y-92042159D01*
X72486066Y-91688505D01*
X72390297Y-91343173D01*
X72387243Y-91335497D01*
X72259052Y-91013369D01*
X72257793Y-91010205D01*
X72182784Y-90868537D01*
X72091702Y-90696513D01*
X72091698Y-90696506D01*
X72090103Y-90693494D01*
X71889190Y-90396746D01*
X71657403Y-90123432D01*
X71397454Y-89876750D01*
X71112384Y-89659585D01*
X71109472Y-89657828D01*
X71109467Y-89657825D01*
X70808443Y-89476236D01*
X70808437Y-89476233D01*
X70805528Y-89474478D01*
X70480475Y-89323593D01*
X70310751Y-89266145D01*
X70144255Y-89209789D01*
X70144250Y-89209788D01*
X70141028Y-89208697D01*
X69915896Y-89158786D01*
X69910154Y-89157513D01*
X69847978Y-89123241D01*
X69814200Y-89060794D01*
X69819546Y-88989999D01*
X69862318Y-88933333D01*
X69928936Y-88908786D01*
X69937426Y-88908500D01*
X119063413Y-88908500D01*
X119131534Y-88928502D01*
X119178027Y-88982158D01*
X119188131Y-89052432D01*
X119158637Y-89117012D01*
X119098911Y-89155396D01*
X119090257Y-89157608D01*
X118870117Y-89205606D01*
X118530271Y-89319317D01*
X118527178Y-89320739D01*
X118527177Y-89320740D01*
X118520974Y-89323593D01*
X118204694Y-89469066D01*
X117897193Y-89653101D01*
X117894467Y-89655163D01*
X117894465Y-89655164D01*
X117623927Y-89859771D01*
X117611367Y-89869270D01*
X117608882Y-89871612D01*
X117608877Y-89871616D01*
X117511626Y-89963261D01*
X117350559Y-90115043D01*
X117117819Y-90387546D01*
X117115900Y-90390358D01*
X117115897Y-90390363D01*
X117022624Y-90527097D01*
X116915871Y-90683591D01*
X116747077Y-90999714D01*
X116613411Y-91332218D01*
X116612491Y-91335492D01*
X116612489Y-91335497D01*
X116557486Y-91531178D01*
X116516437Y-91677213D01*
X116515875Y-91680570D01*
X116515875Y-91680571D01*
X116478274Y-91905270D01*
X116457290Y-92030663D01*
X116436661Y-92388434D01*
X116454792Y-92746340D01*
X116455329Y-92749695D01*
X116455330Y-92749701D01*
X116460316Y-92780828D01*
X116511470Y-93100195D01*
X116606033Y-93445859D01*
X116737374Y-93779288D01*
X116768151Y-93837909D01*
X116878281Y-94047676D01*
X116903957Y-94096582D01*
X116905858Y-94099411D01*
X116905864Y-94099421D01*
X117084023Y-94364547D01*
X117103834Y-94394029D01*
X117334665Y-94668150D01*
X117593751Y-94915738D01*
X117878061Y-95133897D01*
X117910056Y-95153350D01*
X118181355Y-95318303D01*
X118181360Y-95318306D01*
X118184270Y-95320075D01*
X118187358Y-95321521D01*
X118187357Y-95321521D01*
X118505710Y-95470649D01*
X118505720Y-95470653D01*
X118508794Y-95472093D01*
X118512012Y-95473195D01*
X118512015Y-95473196D01*
X118844615Y-95587071D01*
X118844623Y-95587073D01*
X118847838Y-95588174D01*
X119197435Y-95666959D01*
X119249728Y-95672917D01*
X119550114Y-95707142D01*
X119550122Y-95707142D01*
X119553497Y-95707527D01*
X119556901Y-95707545D01*
X119556904Y-95707545D01*
X119751227Y-95708562D01*
X119911857Y-95709403D01*
X119915243Y-95709053D01*
X119915245Y-95709053D01*
X120264932Y-95672917D01*
X120264941Y-95672916D01*
X120268324Y-95672566D01*
X120271657Y-95671852D01*
X120271660Y-95671851D01*
X120450550Y-95633500D01*
X120618727Y-95597446D01*
X120958968Y-95484922D01*
X121285066Y-95336311D01*
X121581886Y-95160072D01*
X121590262Y-95155099D01*
X121590267Y-95155096D01*
X121593207Y-95153350D01*
X121618007Y-95134730D01*
X121692506Y-95078794D01*
X121879786Y-94938180D01*
X122141451Y-94693319D01*
X122375140Y-94421630D01*
X122506994Y-94229781D01*
X122576190Y-94129101D01*
X122576195Y-94129094D01*
X122578120Y-94126292D01*
X122579732Y-94123298D01*
X122579737Y-94123290D01*
X122746395Y-93813772D01*
X122748017Y-93810760D01*
X122882842Y-93478724D01*
X122893142Y-93442568D01*
X122913527Y-93371006D01*
X122981020Y-93134070D01*
X123008415Y-92973804D01*
X123040829Y-92784175D01*
X123040829Y-92784173D01*
X123041401Y-92780828D01*
X123041617Y-92777311D01*
X123063168Y-92424928D01*
X123063278Y-92423131D01*
X123063359Y-92400000D01*
X123043979Y-92042159D01*
X122986066Y-91688505D01*
X122890297Y-91343173D01*
X122887243Y-91335497D01*
X122759052Y-91013369D01*
X122757793Y-91010205D01*
X122682784Y-90868537D01*
X122591702Y-90696513D01*
X122591698Y-90696506D01*
X122590103Y-90693494D01*
X122389190Y-90396746D01*
X122157403Y-90123432D01*
X121897454Y-89876750D01*
X121612384Y-89659585D01*
X121609472Y-89657828D01*
X121609467Y-89657825D01*
X121308443Y-89476236D01*
X121308437Y-89476233D01*
X121305528Y-89474478D01*
X120980475Y-89323593D01*
X120810751Y-89266145D01*
X120644255Y-89209789D01*
X120644250Y-89209788D01*
X120641028Y-89208697D01*
X120415896Y-89158786D01*
X120410154Y-89157513D01*
X120347978Y-89123241D01*
X120314200Y-89060794D01*
X120319546Y-88989999D01*
X120362318Y-88933333D01*
X120428936Y-88908786D01*
X120437426Y-88908500D01*
X123265500Y-88908500D01*
X123333621Y-88928502D01*
X123380114Y-88982158D01*
X123391500Y-89034500D01*
X123391500Y-119265500D01*
X123371498Y-119333621D01*
X123317842Y-119380114D01*
X123265500Y-119391500D01*
X120435919Y-119391500D01*
X120367798Y-119371498D01*
X120321305Y-119317842D01*
X120311201Y-119247568D01*
X120340695Y-119182988D01*
X120400421Y-119144604D01*
X120409507Y-119142299D01*
X120458678Y-119131757D01*
X120618727Y-119097446D01*
X120958968Y-118984922D01*
X121285066Y-118836311D01*
X121379052Y-118780506D01*
X121590262Y-118655099D01*
X121590267Y-118655096D01*
X121593207Y-118653350D01*
X121879786Y-118438180D01*
X122141451Y-118193319D01*
X122375140Y-117921630D01*
X122511139Y-117723750D01*
X122576190Y-117629101D01*
X122576195Y-117629094D01*
X122578120Y-117626292D01*
X122579732Y-117623298D01*
X122579737Y-117623290D01*
X122746395Y-117313772D01*
X122748017Y-117310760D01*
X122860355Y-117034104D01*
X122881562Y-116981877D01*
X122881564Y-116981872D01*
X122882842Y-116978724D01*
X122893142Y-116942568D01*
X122929821Y-116813804D01*
X122981020Y-116634070D01*
X123041401Y-116280828D01*
X123041879Y-116273023D01*
X123063168Y-115924928D01*
X123063278Y-115923131D01*
X123063359Y-115900000D01*
X123043979Y-115542159D01*
X122986066Y-115188505D01*
X122890297Y-114843173D01*
X122887243Y-114835497D01*
X122759052Y-114513369D01*
X122757793Y-114510205D01*
X122727768Y-114453498D01*
X122591702Y-114196513D01*
X122591698Y-114196506D01*
X122590103Y-114193494D01*
X122389190Y-113896746D01*
X122157403Y-113623432D01*
X121897454Y-113376750D01*
X121612384Y-113159585D01*
X121609472Y-113157828D01*
X121609467Y-113157825D01*
X121308443Y-112976236D01*
X121308437Y-112976233D01*
X121305528Y-112974478D01*
X120980475Y-112823593D01*
X120810751Y-112766145D01*
X120644255Y-112709789D01*
X120644250Y-112709788D01*
X120641028Y-112708697D01*
X120430908Y-112662114D01*
X120294493Y-112631871D01*
X120294487Y-112631870D01*
X120291158Y-112631132D01*
X120287769Y-112630758D01*
X120287764Y-112630757D01*
X119938338Y-112592180D01*
X119938333Y-112592180D01*
X119934957Y-112591807D01*
X119931558Y-112591801D01*
X119931557Y-112591801D01*
X119762080Y-112591505D01*
X119576592Y-112591182D01*
X119472660Y-112602289D01*
X119223639Y-112628901D01*
X119223631Y-112628902D01*
X119220256Y-112629263D01*
X118870117Y-112705606D01*
X118530271Y-112819317D01*
X118527178Y-112820739D01*
X118527177Y-112820740D01*
X118520974Y-112823593D01*
X118204694Y-112969066D01*
X117897193Y-113153101D01*
X117894467Y-113155163D01*
X117894465Y-113155164D01*
X117888620Y-113159585D01*
X117611367Y-113369270D01*
X117350559Y-113615043D01*
X117117819Y-113887546D01*
X117115900Y-113890358D01*
X117115897Y-113890363D01*
X117022624Y-114027097D01*
X116915871Y-114183591D01*
X116747077Y-114499714D01*
X116613411Y-114832218D01*
X116612491Y-114835492D01*
X116612489Y-114835497D01*
X116610332Y-114843173D01*
X116516437Y-115177213D01*
X116457290Y-115530663D01*
X116436661Y-115888434D01*
X116436833Y-115891829D01*
X116436833Y-115891830D01*
X116449589Y-116143624D01*
X116454792Y-116246340D01*
X116455329Y-116249695D01*
X116455330Y-116249701D01*
X116460316Y-116280828D01*
X116511470Y-116600195D01*
X116606033Y-116945859D01*
X116638601Y-117028537D01*
X116723681Y-117244525D01*
X116737374Y-117279288D01*
X116768151Y-117337909D01*
X116835392Y-117465984D01*
X116903957Y-117596582D01*
X116905858Y-117599411D01*
X116905864Y-117599421D01*
X117089569Y-117872800D01*
X117103834Y-117894029D01*
X117334665Y-118168150D01*
X117593751Y-118415738D01*
X117878061Y-118633897D01*
X117910056Y-118653350D01*
X118181355Y-118818303D01*
X118181360Y-118818306D01*
X118184270Y-118820075D01*
X118187358Y-118821521D01*
X118187357Y-118821521D01*
X118505710Y-118970649D01*
X118505720Y-118970653D01*
X118508794Y-118972093D01*
X118512012Y-118973195D01*
X118512015Y-118973196D01*
X118844615Y-119087071D01*
X118844623Y-119087073D01*
X118847838Y-119088174D01*
X118851166Y-119088924D01*
X119089270Y-119142583D01*
X119151326Y-119177071D01*
X119184886Y-119239636D01*
X119179293Y-119310412D01*
X119136324Y-119366928D01*
X119069620Y-119391243D01*
X119061569Y-119391500D01*
X69935919Y-119391500D01*
X69867798Y-119371498D01*
X69821305Y-119317842D01*
X69811201Y-119247568D01*
X69840695Y-119182988D01*
X69900421Y-119144604D01*
X69909507Y-119142299D01*
X69958678Y-119131757D01*
X70118727Y-119097446D01*
X70458968Y-118984922D01*
X70785066Y-118836311D01*
X70879052Y-118780506D01*
X71090262Y-118655099D01*
X71090267Y-118655096D01*
X71093207Y-118653350D01*
X71379786Y-118438180D01*
X71518069Y-118308777D01*
X83285777Y-118308777D01*
X83295074Y-118320793D01*
X83338069Y-118350898D01*
X83347555Y-118356376D01*
X83538993Y-118445645D01*
X83549285Y-118449391D01*
X83753309Y-118504059D01*
X83764104Y-118505962D01*
X83974525Y-118524372D01*
X83985475Y-118524372D01*
X84195896Y-118505962D01*
X84206691Y-118504059D01*
X84410715Y-118449391D01*
X84421007Y-118445645D01*
X84612445Y-118356376D01*
X84621931Y-118350898D01*
X84665764Y-118320207D01*
X84674139Y-118309729D01*
X84667071Y-118296281D01*
X83992812Y-117622022D01*
X83978868Y-117614408D01*
X83977035Y-117614539D01*
X83970420Y-117618790D01*
X83292207Y-118297003D01*
X83285777Y-118308777D01*
X71518069Y-118308777D01*
X71641451Y-118193319D01*
X71875140Y-117921630D01*
X72011139Y-117723750D01*
X72076190Y-117629101D01*
X72076195Y-117629094D01*
X72078120Y-117626292D01*
X72079732Y-117623298D01*
X72079737Y-117623290D01*
X72246395Y-117313772D01*
X72248017Y-117310760D01*
X72270466Y-117255475D01*
X82705628Y-117255475D01*
X82724038Y-117465896D01*
X82725941Y-117476691D01*
X82780609Y-117680715D01*
X82784355Y-117691007D01*
X82873623Y-117882441D01*
X82879103Y-117891932D01*
X82909794Y-117935765D01*
X82920271Y-117944140D01*
X82933718Y-117937072D01*
X83607978Y-117262812D01*
X83615592Y-117248868D01*
X83615461Y-117247035D01*
X83611210Y-117240420D01*
X82932997Y-116562207D01*
X82921223Y-116555777D01*
X82909207Y-116565074D01*
X82879103Y-116608068D01*
X82873623Y-116617559D01*
X82784355Y-116808993D01*
X82780609Y-116819285D01*
X82725941Y-117023309D01*
X82724038Y-117034104D01*
X82705628Y-117244525D01*
X82705628Y-117255475D01*
X72270466Y-117255475D01*
X72360355Y-117034104D01*
X72381562Y-116981877D01*
X72381564Y-116981872D01*
X72382842Y-116978724D01*
X72393142Y-116942568D01*
X72429821Y-116813804D01*
X72481020Y-116634070D01*
X72541401Y-116280828D01*
X72541879Y-116273023D01*
X72546940Y-116190271D01*
X83285860Y-116190271D01*
X83292928Y-116203718D01*
X83967188Y-116877978D01*
X83981132Y-116885592D01*
X83982965Y-116885461D01*
X83989580Y-116881210D01*
X84667793Y-116202997D01*
X84674223Y-116191223D01*
X84664926Y-116179207D01*
X84621931Y-116149102D01*
X84612445Y-116143624D01*
X84421007Y-116054355D01*
X84410715Y-116050609D01*
X84206691Y-115995941D01*
X84195896Y-115994038D01*
X83985475Y-115975628D01*
X83974525Y-115975628D01*
X83764104Y-115994038D01*
X83753309Y-115995941D01*
X83549285Y-116050609D01*
X83538993Y-116054355D01*
X83347559Y-116143623D01*
X83338068Y-116149103D01*
X83294235Y-116179794D01*
X83285860Y-116190271D01*
X72546940Y-116190271D01*
X72563168Y-115924928D01*
X72563278Y-115923131D01*
X72563359Y-115900000D01*
X72543979Y-115542159D01*
X72486066Y-115188505D01*
X72390297Y-114843173D01*
X72387243Y-114835497D01*
X72259052Y-114513369D01*
X72257793Y-114510205D01*
X72227768Y-114453498D01*
X72091702Y-114196513D01*
X72091698Y-114196506D01*
X72090103Y-114193494D01*
X71889190Y-113896746D01*
X71657403Y-113623432D01*
X71397454Y-113376750D01*
X71112384Y-113159585D01*
X71109472Y-113157828D01*
X71109467Y-113157825D01*
X70808443Y-112976236D01*
X70808437Y-112976233D01*
X70805528Y-112974478D01*
X70480475Y-112823593D01*
X70310751Y-112766145D01*
X70144255Y-112709789D01*
X70144250Y-112709788D01*
X70141028Y-112708697D01*
X69930908Y-112662114D01*
X69794493Y-112631871D01*
X69794487Y-112631870D01*
X69791158Y-112631132D01*
X69787769Y-112630758D01*
X69787764Y-112630757D01*
X69438338Y-112592180D01*
X69438333Y-112592180D01*
X69434957Y-112591807D01*
X69431558Y-112591801D01*
X69431557Y-112591801D01*
X69262080Y-112591505D01*
X69076592Y-112591182D01*
X68972660Y-112602289D01*
X68723639Y-112628901D01*
X68723631Y-112628902D01*
X68720256Y-112629263D01*
X68370117Y-112705606D01*
X68030271Y-112819317D01*
X68027178Y-112820739D01*
X68027177Y-112820740D01*
X68020974Y-112823593D01*
X67704694Y-112969066D01*
X67397193Y-113153101D01*
X67394467Y-113155163D01*
X67394465Y-113155164D01*
X67388620Y-113159585D01*
X67111367Y-113369270D01*
X66850559Y-113615043D01*
X66617819Y-113887546D01*
X66615900Y-113890358D01*
X66615897Y-113890363D01*
X66522624Y-114027097D01*
X66415871Y-114183591D01*
X66247077Y-114499714D01*
X66113411Y-114832218D01*
X66112491Y-114835492D01*
X66112489Y-114835497D01*
X66110332Y-114843173D01*
X66016437Y-115177213D01*
X65957290Y-115530663D01*
X65936661Y-115888434D01*
X65936833Y-115891829D01*
X65936833Y-115891830D01*
X65949589Y-116143624D01*
X65954792Y-116246340D01*
X65955329Y-116249695D01*
X65955330Y-116249701D01*
X65960316Y-116280828D01*
X66011470Y-116600195D01*
X66106033Y-116945859D01*
X66138601Y-117028537D01*
X66223681Y-117244525D01*
X66237374Y-117279288D01*
X66268151Y-117337909D01*
X66335392Y-117465984D01*
X66403957Y-117596582D01*
X66405858Y-117599411D01*
X66405864Y-117599421D01*
X66589569Y-117872800D01*
X66603834Y-117894029D01*
X66834665Y-118168150D01*
X67093751Y-118415738D01*
X67378061Y-118633897D01*
X67410056Y-118653350D01*
X67681355Y-118818303D01*
X67681360Y-118818306D01*
X67684270Y-118820075D01*
X67687358Y-118821521D01*
X67687357Y-118821521D01*
X68005710Y-118970649D01*
X68005720Y-118970653D01*
X68008794Y-118972093D01*
X68012012Y-118973195D01*
X68012015Y-118973196D01*
X68344615Y-119087071D01*
X68344623Y-119087073D01*
X68347838Y-119088174D01*
X68351166Y-119088924D01*
X68589270Y-119142583D01*
X68651326Y-119177071D01*
X68684886Y-119239636D01*
X68679293Y-119310412D01*
X68636324Y-119366928D01*
X68569620Y-119391243D01*
X68561569Y-119391500D01*
X65734500Y-119391500D01*
X65666379Y-119371498D01*
X65619886Y-119317842D01*
X65608500Y-119265500D01*
X65608500Y-110100000D01*
X80986496Y-110100000D01*
X80987186Y-110106565D01*
X81004888Y-110274986D01*
X81006458Y-110289928D01*
X81065473Y-110471556D01*
X81068776Y-110477278D01*
X81068777Y-110477279D01*
X81085623Y-110506457D01*
X81160960Y-110636944D01*
X81288747Y-110778866D01*
X81387843Y-110850864D01*
X81428290Y-110880250D01*
X81443248Y-110891118D01*
X81449276Y-110893802D01*
X81449278Y-110893803D01*
X81534891Y-110931920D01*
X81617712Y-110968794D01*
X81704479Y-110987237D01*
X81798056Y-111007128D01*
X81798061Y-111007128D01*
X81804513Y-111008500D01*
X81995487Y-111008500D01*
X82001939Y-111007128D01*
X82001944Y-111007128D01*
X82095521Y-110987237D01*
X82182288Y-110968794D01*
X82265109Y-110931920D01*
X82350722Y-110893803D01*
X82350724Y-110893802D01*
X82356752Y-110891118D01*
X82371711Y-110880250D01*
X82499528Y-110787385D01*
X82511253Y-110778866D01*
X82515668Y-110773963D01*
X82520580Y-110769540D01*
X82521705Y-110770789D01*
X82575014Y-110737949D01*
X82608200Y-110733500D01*
X85784996Y-110733500D01*
X85853117Y-110753502D01*
X85899610Y-110807158D01*
X85909714Y-110877432D01*
X85907932Y-110885679D01*
X85906819Y-110888251D01*
X85905580Y-110896075D01*
X85905578Y-110896081D01*
X85899901Y-110931920D01*
X85897495Y-110943540D01*
X85890659Y-110970166D01*
X85886500Y-110986366D01*
X85886500Y-111006620D01*
X85884949Y-111026330D01*
X85881780Y-111046339D01*
X85882526Y-111054231D01*
X85885941Y-111090357D01*
X85886500Y-111102215D01*
X85886500Y-116076996D01*
X85866498Y-116145117D01*
X85832771Y-116180209D01*
X85704730Y-116269864D01*
X85704727Y-116269866D01*
X85700219Y-116273023D01*
X85543023Y-116430219D01*
X85539866Y-116434727D01*
X85539864Y-116434730D01*
X85424005Y-116600195D01*
X85415512Y-116612324D01*
X85413189Y-116617306D01*
X85413186Y-116617311D01*
X85363919Y-116722965D01*
X85317001Y-116776250D01*
X85248724Y-116795711D01*
X85180764Y-116775169D01*
X85135529Y-116722965D01*
X85086377Y-116617559D01*
X85080897Y-116608068D01*
X85050206Y-116564235D01*
X85039729Y-116555860D01*
X85026282Y-116562928D01*
X84352022Y-117237188D01*
X84344408Y-117251132D01*
X84344539Y-117252965D01*
X84348790Y-117259580D01*
X85027003Y-117937793D01*
X85038777Y-117944223D01*
X85050793Y-117934926D01*
X85080897Y-117891932D01*
X85086377Y-117882441D01*
X85135529Y-117777035D01*
X85182447Y-117723750D01*
X85250724Y-117704289D01*
X85318684Y-117724831D01*
X85363919Y-117777035D01*
X85413186Y-117882689D01*
X85413189Y-117882694D01*
X85415512Y-117887676D01*
X85418668Y-117892183D01*
X85418669Y-117892185D01*
X85455107Y-117944223D01*
X85543023Y-118069781D01*
X85700219Y-118226977D01*
X85704727Y-118230134D01*
X85704730Y-118230136D01*
X85780495Y-118283187D01*
X85882323Y-118354488D01*
X85887305Y-118356811D01*
X85887310Y-118356814D01*
X86077810Y-118445645D01*
X86083804Y-118448440D01*
X86089112Y-118449862D01*
X86089114Y-118449863D01*
X86154949Y-118467503D01*
X86298537Y-118505978D01*
X86520000Y-118525353D01*
X86741463Y-118505978D01*
X86885051Y-118467503D01*
X86950886Y-118449863D01*
X86950888Y-118449862D01*
X86956196Y-118448440D01*
X86962190Y-118445645D01*
X87152690Y-118356814D01*
X87152695Y-118356811D01*
X87157677Y-118354488D01*
X87259505Y-118283187D01*
X87335270Y-118230136D01*
X87335273Y-118230134D01*
X87339781Y-118226977D01*
X87496977Y-118069781D01*
X87584894Y-117944223D01*
X87621331Y-117892185D01*
X87621332Y-117892183D01*
X87624488Y-117887676D01*
X87626811Y-117882694D01*
X87626814Y-117882689D01*
X87675805Y-117777627D01*
X87722723Y-117724342D01*
X87791000Y-117704881D01*
X87858960Y-117725423D01*
X87904195Y-117777627D01*
X87953186Y-117882689D01*
X87953189Y-117882694D01*
X87955512Y-117887676D01*
X87958668Y-117892183D01*
X87958669Y-117892185D01*
X87995107Y-117944223D01*
X88083023Y-118069781D01*
X88240219Y-118226977D01*
X88244727Y-118230134D01*
X88244730Y-118230136D01*
X88320495Y-118283187D01*
X88422323Y-118354488D01*
X88427305Y-118356811D01*
X88427310Y-118356814D01*
X88617810Y-118445645D01*
X88623804Y-118448440D01*
X88629112Y-118449862D01*
X88629114Y-118449863D01*
X88694949Y-118467503D01*
X88838537Y-118505978D01*
X89060000Y-118525353D01*
X89281463Y-118505978D01*
X89425051Y-118467503D01*
X89490886Y-118449863D01*
X89490888Y-118449862D01*
X89496196Y-118448440D01*
X89502190Y-118445645D01*
X89692690Y-118356814D01*
X89692695Y-118356811D01*
X89697677Y-118354488D01*
X89799505Y-118283187D01*
X89875270Y-118230136D01*
X89875273Y-118230134D01*
X89879781Y-118226977D01*
X90036977Y-118069781D01*
X90124894Y-117944223D01*
X90161331Y-117892185D01*
X90161332Y-117892183D01*
X90164488Y-117887676D01*
X90166811Y-117882694D01*
X90166814Y-117882689D01*
X90215805Y-117777627D01*
X90262723Y-117724342D01*
X90331000Y-117704881D01*
X90398960Y-117725423D01*
X90444195Y-117777627D01*
X90493186Y-117882689D01*
X90493189Y-117882694D01*
X90495512Y-117887676D01*
X90498668Y-117892183D01*
X90498669Y-117892185D01*
X90535107Y-117944223D01*
X90623023Y-118069781D01*
X90780219Y-118226977D01*
X90784727Y-118230134D01*
X90784730Y-118230136D01*
X90860495Y-118283187D01*
X90962323Y-118354488D01*
X90967305Y-118356811D01*
X90967310Y-118356814D01*
X91157810Y-118445645D01*
X91163804Y-118448440D01*
X91169112Y-118449862D01*
X91169114Y-118449863D01*
X91234949Y-118467503D01*
X91378537Y-118505978D01*
X91600000Y-118525353D01*
X91821463Y-118505978D01*
X91965051Y-118467503D01*
X92030886Y-118449863D01*
X92030888Y-118449862D01*
X92036196Y-118448440D01*
X92042190Y-118445645D01*
X92232690Y-118356814D01*
X92232695Y-118356811D01*
X92237677Y-118354488D01*
X92302959Y-118308777D01*
X109765777Y-118308777D01*
X109775074Y-118320793D01*
X109818069Y-118350898D01*
X109827555Y-118356376D01*
X110018993Y-118445645D01*
X110029285Y-118449391D01*
X110233309Y-118504059D01*
X110244104Y-118505962D01*
X110454525Y-118524372D01*
X110465475Y-118524372D01*
X110675896Y-118505962D01*
X110686691Y-118504059D01*
X110890715Y-118449391D01*
X110901007Y-118445645D01*
X111092445Y-118356376D01*
X111101931Y-118350898D01*
X111145764Y-118320207D01*
X111154139Y-118309729D01*
X111147071Y-118296281D01*
X110472812Y-117622022D01*
X110458868Y-117614408D01*
X110457035Y-117614539D01*
X110450420Y-117618790D01*
X109772207Y-118297003D01*
X109765777Y-118308777D01*
X92302959Y-118308777D01*
X92339505Y-118283187D01*
X92415270Y-118230136D01*
X92415273Y-118230134D01*
X92419781Y-118226977D01*
X92576977Y-118069781D01*
X92664894Y-117944223D01*
X92701331Y-117892185D01*
X92701332Y-117892183D01*
X92704488Y-117887676D01*
X92706811Y-117882694D01*
X92706814Y-117882689D01*
X92796117Y-117691178D01*
X92796118Y-117691177D01*
X92798440Y-117686196D01*
X92855978Y-117471463D01*
X92874874Y-117255475D01*
X109185628Y-117255475D01*
X109204038Y-117465896D01*
X109205941Y-117476691D01*
X109260609Y-117680715D01*
X109264355Y-117691007D01*
X109353623Y-117882441D01*
X109359103Y-117891932D01*
X109389794Y-117935765D01*
X109400271Y-117944140D01*
X109413718Y-117937072D01*
X110087978Y-117262812D01*
X110094356Y-117251132D01*
X110824408Y-117251132D01*
X110824539Y-117252965D01*
X110828790Y-117259580D01*
X111507003Y-117937793D01*
X111518777Y-117944223D01*
X111530793Y-117934926D01*
X111560897Y-117891932D01*
X111566377Y-117882441D01*
X111615529Y-117777035D01*
X111662447Y-117723750D01*
X111730724Y-117704289D01*
X111798684Y-117724831D01*
X111843919Y-117777035D01*
X111893186Y-117882689D01*
X111893189Y-117882694D01*
X111895512Y-117887676D01*
X111898668Y-117892183D01*
X111898669Y-117892185D01*
X111935107Y-117944223D01*
X112023023Y-118069781D01*
X112180219Y-118226977D01*
X112184727Y-118230134D01*
X112184730Y-118230136D01*
X112260495Y-118283187D01*
X112362323Y-118354488D01*
X112367305Y-118356811D01*
X112367310Y-118356814D01*
X112557810Y-118445645D01*
X112563804Y-118448440D01*
X112569112Y-118449862D01*
X112569114Y-118449863D01*
X112634949Y-118467503D01*
X112778537Y-118505978D01*
X113000000Y-118525353D01*
X113221463Y-118505978D01*
X113365051Y-118467503D01*
X113430886Y-118449863D01*
X113430888Y-118449862D01*
X113436196Y-118448440D01*
X113442190Y-118445645D01*
X113632690Y-118356814D01*
X113632695Y-118356811D01*
X113637677Y-118354488D01*
X113739505Y-118283187D01*
X113815270Y-118230136D01*
X113815273Y-118230134D01*
X113819781Y-118226977D01*
X113976977Y-118069781D01*
X114064894Y-117944223D01*
X114101331Y-117892185D01*
X114101332Y-117892183D01*
X114104488Y-117887676D01*
X114106811Y-117882694D01*
X114106814Y-117882689D01*
X114196117Y-117691178D01*
X114196118Y-117691177D01*
X114198440Y-117686196D01*
X114255978Y-117471463D01*
X114275353Y-117250000D01*
X114255978Y-117028537D01*
X114198440Y-116813804D01*
X114155805Y-116722373D01*
X114106814Y-116617311D01*
X114106811Y-116617306D01*
X114104488Y-116612324D01*
X114095995Y-116600195D01*
X113980136Y-116434730D01*
X113980134Y-116434727D01*
X113976977Y-116430219D01*
X113819781Y-116273023D01*
X113815273Y-116269866D01*
X113815270Y-116269864D01*
X113739505Y-116216813D01*
X113637677Y-116145512D01*
X113632695Y-116143189D01*
X113632690Y-116143186D01*
X113441178Y-116053883D01*
X113441177Y-116053882D01*
X113436196Y-116051560D01*
X113430888Y-116050138D01*
X113430886Y-116050137D01*
X113365051Y-116032497D01*
X113221463Y-115994022D01*
X113000000Y-115974647D01*
X112778537Y-115994022D01*
X112634949Y-116032497D01*
X112569114Y-116050137D01*
X112569112Y-116050138D01*
X112563804Y-116051560D01*
X112558823Y-116053882D01*
X112558822Y-116053883D01*
X112367311Y-116143186D01*
X112367306Y-116143189D01*
X112362324Y-116145512D01*
X112357817Y-116148668D01*
X112357815Y-116148669D01*
X112184730Y-116269864D01*
X112184727Y-116269866D01*
X112180219Y-116273023D01*
X112023023Y-116430219D01*
X112019866Y-116434727D01*
X112019864Y-116434730D01*
X111904005Y-116600195D01*
X111895512Y-116612324D01*
X111893189Y-116617306D01*
X111893186Y-116617311D01*
X111843919Y-116722965D01*
X111797001Y-116776250D01*
X111728724Y-116795711D01*
X111660764Y-116775169D01*
X111615529Y-116722965D01*
X111566377Y-116617559D01*
X111560897Y-116608068D01*
X111530206Y-116564235D01*
X111519729Y-116555860D01*
X111506282Y-116562928D01*
X110832022Y-117237188D01*
X110824408Y-117251132D01*
X110094356Y-117251132D01*
X110095592Y-117248868D01*
X110095461Y-117247035D01*
X110091210Y-117240420D01*
X109412997Y-116562207D01*
X109401223Y-116555777D01*
X109389207Y-116565074D01*
X109359103Y-116608068D01*
X109353623Y-116617559D01*
X109264355Y-116808993D01*
X109260609Y-116819285D01*
X109205941Y-117023309D01*
X109204038Y-117034104D01*
X109185628Y-117244525D01*
X109185628Y-117255475D01*
X92874874Y-117255475D01*
X92875353Y-117250000D01*
X92855978Y-117028537D01*
X92798440Y-116813804D01*
X92755805Y-116722373D01*
X92706814Y-116617311D01*
X92706811Y-116617306D01*
X92704488Y-116612324D01*
X92695995Y-116600195D01*
X92580136Y-116434730D01*
X92580134Y-116434727D01*
X92576977Y-116430219D01*
X92419781Y-116273023D01*
X92415273Y-116269866D01*
X92415270Y-116269864D01*
X92339505Y-116216813D01*
X92301599Y-116190271D01*
X109765860Y-116190271D01*
X109772928Y-116203718D01*
X110447188Y-116877978D01*
X110461132Y-116885592D01*
X110462965Y-116885461D01*
X110469580Y-116881210D01*
X111147793Y-116202997D01*
X111154223Y-116191223D01*
X111144926Y-116179207D01*
X111101931Y-116149102D01*
X111092445Y-116143624D01*
X110901007Y-116054355D01*
X110890715Y-116050609D01*
X110686691Y-115995941D01*
X110675896Y-115994038D01*
X110465475Y-115975628D01*
X110454525Y-115975628D01*
X110244104Y-115994038D01*
X110233309Y-115995941D01*
X110029285Y-116050609D01*
X110018993Y-116054355D01*
X109827559Y-116143623D01*
X109818068Y-116149103D01*
X109774235Y-116179794D01*
X109765860Y-116190271D01*
X92301599Y-116190271D01*
X92237677Y-116145512D01*
X92232695Y-116143189D01*
X92232690Y-116143186D01*
X92041178Y-116053883D01*
X92041177Y-116053882D01*
X92036196Y-116051560D01*
X92030888Y-116050138D01*
X92030886Y-116050137D01*
X91965051Y-116032497D01*
X91821463Y-115994022D01*
X91600000Y-115974647D01*
X91378537Y-115994022D01*
X91234949Y-116032497D01*
X91169114Y-116050137D01*
X91169112Y-116050138D01*
X91163804Y-116051560D01*
X91158823Y-116053882D01*
X91158822Y-116053883D01*
X90967311Y-116143186D01*
X90967306Y-116143189D01*
X90962324Y-116145512D01*
X90957817Y-116148668D01*
X90957815Y-116148669D01*
X90784730Y-116269864D01*
X90784727Y-116269866D01*
X90780219Y-116273023D01*
X90623023Y-116430219D01*
X90619866Y-116434727D01*
X90619864Y-116434730D01*
X90504005Y-116600195D01*
X90495512Y-116612324D01*
X90493189Y-116617306D01*
X90493186Y-116617311D01*
X90444195Y-116722373D01*
X90397277Y-116775658D01*
X90329000Y-116795119D01*
X90261040Y-116774577D01*
X90215805Y-116722373D01*
X90166814Y-116617311D01*
X90166811Y-116617306D01*
X90164488Y-116612324D01*
X90155995Y-116600195D01*
X90040136Y-116434730D01*
X90040134Y-116434727D01*
X90036977Y-116430219D01*
X89879781Y-116273023D01*
X89875273Y-116269866D01*
X89875270Y-116269864D01*
X89794275Y-116213151D01*
X89747229Y-116180209D01*
X89702901Y-116124752D01*
X89693500Y-116076996D01*
X89693500Y-113004594D01*
X89713502Y-112936473D01*
X89730405Y-112915499D01*
X91100499Y-111545405D01*
X91162811Y-111511379D01*
X91189594Y-111508500D01*
X93646233Y-111508500D01*
X93657416Y-111509027D01*
X93664909Y-111510702D01*
X93672835Y-111510453D01*
X93672836Y-111510453D01*
X93732986Y-111508562D01*
X93736945Y-111508500D01*
X93764856Y-111508500D01*
X93768791Y-111508003D01*
X93768856Y-111507995D01*
X93780693Y-111507062D01*
X93812951Y-111506048D01*
X93816970Y-111505922D01*
X93824889Y-111505673D01*
X93844343Y-111500021D01*
X93863700Y-111496013D01*
X93875930Y-111494468D01*
X93875931Y-111494468D01*
X93883797Y-111493474D01*
X93891168Y-111490555D01*
X93891170Y-111490555D01*
X93924912Y-111477196D01*
X93936142Y-111473351D01*
X93970983Y-111463229D01*
X93970984Y-111463229D01*
X93978593Y-111461018D01*
X93985412Y-111456985D01*
X93985417Y-111456983D01*
X93996028Y-111450707D01*
X94013776Y-111442012D01*
X94032617Y-111434552D01*
X94068387Y-111408564D01*
X94078307Y-111402048D01*
X94109535Y-111383580D01*
X94109538Y-111383578D01*
X94116362Y-111379542D01*
X94130683Y-111365221D01*
X94145717Y-111352380D01*
X94155694Y-111345131D01*
X94162107Y-111340472D01*
X94190298Y-111306395D01*
X94198288Y-111297616D01*
X94350499Y-111145405D01*
X94412811Y-111111379D01*
X94439594Y-111108500D01*
X94495487Y-111108500D01*
X94501939Y-111107128D01*
X94501944Y-111107128D01*
X94588888Y-111088647D01*
X94682288Y-111068794D01*
X94688319Y-111066109D01*
X94850722Y-110993803D01*
X94850724Y-110993802D01*
X94856752Y-110991118D01*
X94873865Y-110978685D01*
X94955793Y-110919160D01*
X94990126Y-110894216D01*
X120118257Y-110894216D01*
X120148565Y-111028696D01*
X120151645Y-111038525D01*
X120231770Y-111235853D01*
X120236413Y-111245044D01*
X120347694Y-111426638D01*
X120353777Y-111434949D01*
X120493213Y-111595917D01*
X120500580Y-111603133D01*
X120664434Y-111739166D01*
X120672881Y-111745081D01*
X120856756Y-111852529D01*
X120866042Y-111856979D01*
X121065001Y-111932953D01*
X121074899Y-111935829D01*
X121178250Y-111956856D01*
X121192299Y-111955660D01*
X121196000Y-111945315D01*
X121196000Y-111944767D01*
X121704000Y-111944767D01*
X121708064Y-111958609D01*
X121721478Y-111960643D01*
X121728184Y-111959784D01*
X121738262Y-111957642D01*
X121942255Y-111896441D01*
X121951842Y-111892683D01*
X122143095Y-111798989D01*
X122151945Y-111793714D01*
X122325328Y-111670042D01*
X122333200Y-111663389D01*
X122484052Y-111513062D01*
X122490730Y-111505215D01*
X122615003Y-111332270D01*
X122620313Y-111323433D01*
X122714670Y-111132517D01*
X122718469Y-111122922D01*
X122780377Y-110919160D01*
X122782555Y-110909087D01*
X122783986Y-110898212D01*
X122781775Y-110884028D01*
X122768617Y-110880250D01*
X121722115Y-110880250D01*
X121706876Y-110884725D01*
X121705671Y-110886115D01*
X121704000Y-110893798D01*
X121704000Y-111944767D01*
X121196000Y-111944767D01*
X121196000Y-110898365D01*
X121191525Y-110883126D01*
X121190135Y-110881921D01*
X121182452Y-110880250D01*
X120133225Y-110880250D01*
X120119694Y-110884223D01*
X120118257Y-110894216D01*
X94990126Y-110894216D01*
X95011253Y-110878866D01*
X95108566Y-110770789D01*
X95134621Y-110741852D01*
X95134622Y-110741851D01*
X95139040Y-110736944D01*
X95234527Y-110571556D01*
X95293542Y-110389928D01*
X95295589Y-110370458D01*
X95312814Y-110206565D01*
X95313504Y-110200000D01*
X95299818Y-110069781D01*
X95294232Y-110016635D01*
X95294232Y-110016633D01*
X95293542Y-110010072D01*
X95234527Y-109828444D01*
X95139040Y-109663056D01*
X95106094Y-109626465D01*
X95015675Y-109526045D01*
X95015674Y-109526044D01*
X95011253Y-109521134D01*
X94891434Y-109434080D01*
X94862094Y-109412763D01*
X94862093Y-109412762D01*
X94856752Y-109408882D01*
X94850724Y-109406198D01*
X94850722Y-109406197D01*
X94688319Y-109333891D01*
X94688318Y-109333891D01*
X94682288Y-109331206D01*
X94588888Y-109311353D01*
X94501944Y-109292872D01*
X94501939Y-109292872D01*
X94495487Y-109291500D01*
X94304513Y-109291500D01*
X94298061Y-109292872D01*
X94298056Y-109292872D01*
X94211113Y-109311353D01*
X94117712Y-109331206D01*
X94111682Y-109333891D01*
X94111681Y-109333891D01*
X93949278Y-109406197D01*
X93949276Y-109406198D01*
X93943248Y-109408882D01*
X93937907Y-109412762D01*
X93937906Y-109412763D01*
X93908566Y-109434080D01*
X93788747Y-109521134D01*
X93784326Y-109526044D01*
X93784325Y-109526045D01*
X93693907Y-109626465D01*
X93660960Y-109663056D01*
X93565473Y-109828444D01*
X93506458Y-110010072D01*
X93505768Y-110016633D01*
X93505768Y-110016635D01*
X93493993Y-110128670D01*
X93466980Y-110194327D01*
X93408758Y-110234957D01*
X93368683Y-110241500D01*
X92936572Y-110241500D01*
X92868451Y-110221498D01*
X92821958Y-110167842D01*
X92811262Y-110128670D01*
X92794232Y-109966635D01*
X92794232Y-109966633D01*
X92793542Y-109960072D01*
X92734527Y-109778444D01*
X92639040Y-109613056D01*
X92565863Y-109531785D01*
X92535147Y-109467779D01*
X92533500Y-109447476D01*
X92533500Y-109250000D01*
X111724647Y-109250000D01*
X111744022Y-109471463D01*
X111770097Y-109568774D01*
X111795360Y-109663056D01*
X111801560Y-109686196D01*
X111803882Y-109691177D01*
X111803883Y-109691178D01*
X111893186Y-109882689D01*
X111893189Y-109882694D01*
X111895512Y-109887676D01*
X111898668Y-109892183D01*
X111898669Y-109892185D01*
X111976819Y-110003794D01*
X112023023Y-110069781D01*
X112180219Y-110226977D01*
X112184727Y-110230134D01*
X112184730Y-110230136D01*
X112245661Y-110272800D01*
X112362323Y-110354488D01*
X112367305Y-110356811D01*
X112367310Y-110356814D01*
X112493451Y-110415634D01*
X112563804Y-110448440D01*
X112569112Y-110449862D01*
X112569114Y-110449863D01*
X112578523Y-110452384D01*
X112778537Y-110505978D01*
X113000000Y-110525353D01*
X113221463Y-110505978D01*
X113421477Y-110452384D01*
X113430886Y-110449863D01*
X113430888Y-110449862D01*
X113436196Y-110448440D01*
X113506549Y-110415634D01*
X113632690Y-110356814D01*
X113632695Y-110356811D01*
X113637677Y-110354488D01*
X113754339Y-110272800D01*
X113815270Y-110230136D01*
X113815273Y-110230134D01*
X113819781Y-110226977D01*
X113976977Y-110069781D01*
X114023182Y-110003794D01*
X114101331Y-109892185D01*
X114101332Y-109892183D01*
X114104488Y-109887676D01*
X114106811Y-109882694D01*
X114106814Y-109882689D01*
X114196117Y-109691178D01*
X114196118Y-109691177D01*
X114198440Y-109686196D01*
X114204641Y-109663056D01*
X114229903Y-109568774D01*
X114255978Y-109471463D01*
X114275353Y-109250000D01*
X114255978Y-109028537D01*
X114204955Y-108838119D01*
X114199863Y-108819114D01*
X114199862Y-108819112D01*
X114198440Y-108813804D01*
X114196117Y-108808822D01*
X114106814Y-108617311D01*
X114106811Y-108617306D01*
X114104488Y-108612324D01*
X114101331Y-108607815D01*
X113980136Y-108434730D01*
X113980134Y-108434727D01*
X113976977Y-108430219D01*
X113819781Y-108273023D01*
X113815273Y-108269866D01*
X113815270Y-108269864D01*
X113739505Y-108216813D01*
X113637677Y-108145512D01*
X113632695Y-108143189D01*
X113632690Y-108143186D01*
X113441178Y-108053883D01*
X113441177Y-108053882D01*
X113436196Y-108051560D01*
X113430888Y-108050138D01*
X113430886Y-108050137D01*
X113365051Y-108032497D01*
X113221463Y-107994022D01*
X113000000Y-107974647D01*
X112778537Y-107994022D01*
X112634949Y-108032497D01*
X112569114Y-108050137D01*
X112569112Y-108050138D01*
X112563804Y-108051560D01*
X112558823Y-108053882D01*
X112558822Y-108053883D01*
X112367311Y-108143186D01*
X112367306Y-108143189D01*
X112362324Y-108145512D01*
X112357817Y-108148668D01*
X112357815Y-108148669D01*
X112184730Y-108269864D01*
X112184727Y-108269866D01*
X112180219Y-108273023D01*
X112023023Y-108430219D01*
X112019866Y-108434727D01*
X112019864Y-108434730D01*
X111898669Y-108607815D01*
X111895512Y-108612324D01*
X111893189Y-108617306D01*
X111893186Y-108617311D01*
X111803883Y-108808822D01*
X111801560Y-108813804D01*
X111800138Y-108819112D01*
X111800137Y-108819114D01*
X111795045Y-108838119D01*
X111744022Y-109028537D01*
X111724647Y-109250000D01*
X92533500Y-109250000D01*
X92533500Y-107936239D01*
X92553502Y-107868118D01*
X92607158Y-107821625D01*
X92677432Y-107811521D01*
X92685697Y-107812992D01*
X92798056Y-107836875D01*
X92798061Y-107836875D01*
X92804513Y-107838247D01*
X92995487Y-107838247D01*
X93001939Y-107836875D01*
X93001944Y-107836875D01*
X93088887Y-107818394D01*
X93182288Y-107798541D01*
X93188319Y-107795856D01*
X93350722Y-107723550D01*
X93350724Y-107723549D01*
X93356752Y-107720865D01*
X93451578Y-107651970D01*
X93505914Y-107612492D01*
X93511253Y-107608613D01*
X93515668Y-107603710D01*
X93520580Y-107599287D01*
X93521705Y-107600536D01*
X93575014Y-107567696D01*
X93608200Y-107563247D01*
X97639583Y-107563247D01*
X97650766Y-107563774D01*
X97658259Y-107565449D01*
X97666185Y-107565200D01*
X97666186Y-107565200D01*
X97726336Y-107563309D01*
X97730295Y-107563247D01*
X97758206Y-107563247D01*
X97762141Y-107562750D01*
X97762206Y-107562742D01*
X97774043Y-107561809D01*
X97806301Y-107560795D01*
X97810320Y-107560669D01*
X97818239Y-107560420D01*
X97837693Y-107554768D01*
X97857050Y-107550760D01*
X97869280Y-107549215D01*
X97869281Y-107549215D01*
X97877147Y-107548221D01*
X97884518Y-107545302D01*
X97884520Y-107545302D01*
X97918262Y-107531943D01*
X97929492Y-107528098D01*
X97964333Y-107517976D01*
X97964334Y-107517976D01*
X97971943Y-107515765D01*
X97978762Y-107511732D01*
X97978767Y-107511730D01*
X97989378Y-107505454D01*
X98007126Y-107496759D01*
X98025967Y-107489299D01*
X98061737Y-107463311D01*
X98071657Y-107456795D01*
X98102885Y-107438327D01*
X98102888Y-107438325D01*
X98109712Y-107434289D01*
X98124033Y-107419968D01*
X98139067Y-107407127D01*
X98143905Y-107403612D01*
X98155457Y-107395219D01*
X98183648Y-107361142D01*
X98191638Y-107352363D01*
X98895867Y-106648134D01*
X111891500Y-106648134D01*
X111898255Y-106710316D01*
X111949385Y-106846705D01*
X112036739Y-106963261D01*
X112153295Y-107050615D01*
X112289684Y-107101745D01*
X112351866Y-107108500D01*
X114148134Y-107108500D01*
X114210316Y-107101745D01*
X114346705Y-107050615D01*
X114463261Y-106963261D01*
X114550615Y-106846705D01*
X114601745Y-106710316D01*
X114608500Y-106648134D01*
X114608500Y-104851866D01*
X114601745Y-104789684D01*
X114550615Y-104653295D01*
X114463261Y-104536739D01*
X114346705Y-104449385D01*
X114210316Y-104398255D01*
X114148134Y-104391500D01*
X112351866Y-104391500D01*
X112289684Y-104398255D01*
X112153295Y-104449385D01*
X112036739Y-104536739D01*
X111949385Y-104653295D01*
X111898255Y-104789684D01*
X111891500Y-104851866D01*
X111891500Y-106648134D01*
X98895867Y-106648134D01*
X102173596Y-103370405D01*
X102235908Y-103336379D01*
X102262691Y-103333500D01*
X115749156Y-103333500D01*
X115817277Y-103353502D01*
X115838251Y-103370405D01*
X120099777Y-107631932D01*
X120133803Y-107694244D01*
X120132100Y-107754696D01*
X120110989Y-107830820D01*
X120087251Y-108052945D01*
X120087548Y-108058098D01*
X120087548Y-108058101D01*
X120093011Y-108152840D01*
X120100110Y-108275965D01*
X120101247Y-108281011D01*
X120101248Y-108281017D01*
X120121119Y-108369189D01*
X120149222Y-108493889D01*
X120233266Y-108700866D01*
X120349987Y-108891338D01*
X120496250Y-109060188D01*
X120668126Y-109202882D01*
X120714249Y-109229834D01*
X120741955Y-109246024D01*
X120790679Y-109297662D01*
X120803750Y-109367445D01*
X120777019Y-109433217D01*
X120736562Y-109466577D01*
X120728457Y-109470796D01*
X120719738Y-109476286D01*
X120549433Y-109604155D01*
X120541726Y-109610998D01*
X120394590Y-109764967D01*
X120388104Y-109772977D01*
X120268098Y-109948899D01*
X120263000Y-109957873D01*
X120173338Y-110151033D01*
X120169775Y-110160720D01*
X120114389Y-110360433D01*
X120115912Y-110368857D01*
X120128292Y-110372250D01*
X122768344Y-110372250D01*
X122781875Y-110368277D01*
X122783180Y-110359197D01*
X122741214Y-110192125D01*
X122737894Y-110182374D01*
X122652972Y-109987064D01*
X122648105Y-109977989D01*
X122532426Y-109799176D01*
X122526136Y-109791007D01*
X122382806Y-109633490D01*
X122375273Y-109626465D01*
X122208139Y-109494472D01*
X122199556Y-109488770D01*
X122162602Y-109468370D01*
X122112631Y-109417937D01*
X122097859Y-109348495D01*
X122122975Y-109282089D01*
X122150327Y-109255482D01*
X122186284Y-109229834D01*
X122329860Y-109127423D01*
X122488096Y-108969739D01*
X122547594Y-108886939D01*
X122615435Y-108792527D01*
X122618453Y-108788327D01*
X122717430Y-108588061D01*
X122760265Y-108447075D01*
X122780865Y-108379273D01*
X122780865Y-108379271D01*
X122782370Y-108374319D01*
X122811529Y-108152840D01*
X122813156Y-108086250D01*
X122794852Y-107863611D01*
X122740431Y-107646952D01*
X122651354Y-107442090D01*
X122530014Y-107254527D01*
X122379670Y-107089301D01*
X122375619Y-107086102D01*
X122375615Y-107086098D01*
X122208414Y-106954050D01*
X122208410Y-106954048D01*
X122204359Y-106950848D01*
X122163053Y-106928046D01*
X122113084Y-106877614D01*
X122098312Y-106808171D01*
X122123428Y-106741766D01*
X122150780Y-106715159D01*
X122239983Y-106651531D01*
X122329860Y-106587423D01*
X122488096Y-106429739D01*
X122618453Y-106248327D01*
X122687560Y-106108500D01*
X122715136Y-106052703D01*
X122715137Y-106052701D01*
X122717430Y-106048061D01*
X122770328Y-105873955D01*
X122780865Y-105839273D01*
X122780865Y-105839271D01*
X122782370Y-105834319D01*
X122811529Y-105612840D01*
X122813156Y-105546250D01*
X122794852Y-105323611D01*
X122740431Y-105106952D01*
X122651354Y-104902090D01*
X122538264Y-104727279D01*
X122532822Y-104718867D01*
X122532820Y-104718864D01*
X122530014Y-104714527D01*
X122379670Y-104549301D01*
X122375619Y-104546102D01*
X122375615Y-104546098D01*
X122208414Y-104414050D01*
X122208410Y-104414048D01*
X122204359Y-104410848D01*
X122163053Y-104388046D01*
X122113084Y-104337614D01*
X122098312Y-104268171D01*
X122123428Y-104201766D01*
X122150780Y-104175159D01*
X122194603Y-104143900D01*
X122329860Y-104047423D01*
X122392774Y-103984729D01*
X122484435Y-103893387D01*
X122488096Y-103889739D01*
X122519378Y-103846206D01*
X122615435Y-103712527D01*
X122618453Y-103708327D01*
X122650525Y-103643435D01*
X122715136Y-103512703D01*
X122715137Y-103512701D01*
X122717430Y-103508061D01*
X122782370Y-103294319D01*
X122811529Y-103072840D01*
X122811611Y-103069490D01*
X122813074Y-103009615D01*
X122813074Y-103009611D01*
X122813156Y-103006250D01*
X122794852Y-102783611D01*
X122740431Y-102566952D01*
X122651354Y-102362090D01*
X122568373Y-102233821D01*
X122532822Y-102178867D01*
X122532820Y-102178864D01*
X122530014Y-102174527D01*
X122379670Y-102009301D01*
X122375619Y-102006102D01*
X122375615Y-102006098D01*
X122208414Y-101874050D01*
X122208410Y-101874048D01*
X122204359Y-101870848D01*
X122163053Y-101848046D01*
X122113084Y-101797614D01*
X122098312Y-101728171D01*
X122123428Y-101661766D01*
X122150780Y-101635159D01*
X122194603Y-101603900D01*
X122329860Y-101507423D01*
X122388755Y-101448734D01*
X122473738Y-101364047D01*
X122488096Y-101349739D01*
X122618453Y-101168327D01*
X122657473Y-101089377D01*
X122715136Y-100972703D01*
X122715137Y-100972701D01*
X122717430Y-100968061D01*
X122765605Y-100809499D01*
X122780865Y-100759273D01*
X122780865Y-100759271D01*
X122782370Y-100754319D01*
X122811529Y-100532840D01*
X122811611Y-100529490D01*
X122813074Y-100469615D01*
X122813074Y-100469611D01*
X122813156Y-100466250D01*
X122794852Y-100243611D01*
X122740431Y-100026952D01*
X122651354Y-99822090D01*
X122601333Y-99744770D01*
X122532822Y-99638867D01*
X122532820Y-99638864D01*
X122530014Y-99634527D01*
X122513384Y-99616251D01*
X122382798Y-99472738D01*
X122351746Y-99408892D01*
X122360141Y-99338393D01*
X122405317Y-99283625D01*
X122431761Y-99269956D01*
X122538297Y-99230017D01*
X122546705Y-99226865D01*
X122663261Y-99139511D01*
X122750615Y-99022955D01*
X122801745Y-98886566D01*
X122808500Y-98824384D01*
X122808500Y-97028116D01*
X122801745Y-96965934D01*
X122750615Y-96829545D01*
X122663261Y-96712989D01*
X122546705Y-96625635D01*
X122410316Y-96574505D01*
X122348134Y-96567750D01*
X120551866Y-96567750D01*
X120489684Y-96574505D01*
X120353295Y-96625635D01*
X120236739Y-96712989D01*
X120149385Y-96829545D01*
X120098255Y-96965934D01*
X120091500Y-97028116D01*
X120091500Y-98824384D01*
X120098255Y-98886566D01*
X120149385Y-99022955D01*
X120236739Y-99139511D01*
X120353295Y-99226865D01*
X120361704Y-99230017D01*
X120361705Y-99230018D01*
X120470451Y-99270785D01*
X120527216Y-99313426D01*
X120551916Y-99379988D01*
X120536709Y-99449337D01*
X120517316Y-99475818D01*
X120399790Y-99598802D01*
X120390629Y-99608388D01*
X120387715Y-99612660D01*
X120387714Y-99612661D01*
X120332657Y-99693372D01*
X120264743Y-99792930D01*
X120249003Y-99826840D01*
X120173319Y-99989888D01*
X120170688Y-99995555D01*
X120110989Y-100210820D01*
X120110440Y-100215954D01*
X120110440Y-100215956D01*
X120095700Y-100353889D01*
X120068572Y-100419498D01*
X120010280Y-100460027D01*
X119970413Y-100466500D01*
X110483595Y-100466500D01*
X110415474Y-100446498D01*
X110368981Y-100392842D01*
X110358877Y-100322568D01*
X110388371Y-100257988D01*
X110394500Y-100251404D01*
X110504483Y-100141422D01*
X110817258Y-99828647D01*
X110825537Y-99821113D01*
X110832018Y-99817000D01*
X110878644Y-99767348D01*
X110881398Y-99764507D01*
X110901135Y-99744770D01*
X110903615Y-99741573D01*
X110911320Y-99732551D01*
X110936159Y-99706100D01*
X110941586Y-99700321D01*
X110945405Y-99693375D01*
X110945407Y-99693372D01*
X110951348Y-99682566D01*
X110962199Y-99666047D01*
X110969758Y-99656301D01*
X110974614Y-99650041D01*
X110977759Y-99642772D01*
X110977762Y-99642768D01*
X110992174Y-99609463D01*
X110997391Y-99598813D01*
X111018695Y-99560060D01*
X111021592Y-99548777D01*
X112605777Y-99548777D01*
X112615074Y-99560793D01*
X112658069Y-99590898D01*
X112667555Y-99596376D01*
X112858993Y-99685645D01*
X112869285Y-99689391D01*
X113073309Y-99744059D01*
X113084104Y-99745962D01*
X113294525Y-99764372D01*
X113305475Y-99764372D01*
X113515896Y-99745962D01*
X113526691Y-99744059D01*
X113730715Y-99689391D01*
X113741007Y-99685645D01*
X113932445Y-99596376D01*
X113941931Y-99590898D01*
X113985764Y-99560207D01*
X113994139Y-99549729D01*
X113987071Y-99536281D01*
X113312812Y-98862022D01*
X113298868Y-98854408D01*
X113297035Y-98854539D01*
X113290420Y-98858790D01*
X112612207Y-99537003D01*
X112605777Y-99548777D01*
X111021592Y-99548777D01*
X111023733Y-99540437D01*
X111030137Y-99521734D01*
X111035033Y-99510420D01*
X111035033Y-99510419D01*
X111038181Y-99503145D01*
X111039420Y-99495322D01*
X111039423Y-99495312D01*
X111045099Y-99459476D01*
X111047505Y-99447856D01*
X111056528Y-99412711D01*
X111056528Y-99412710D01*
X111058500Y-99405030D01*
X111058500Y-99384776D01*
X111060051Y-99365065D01*
X111061980Y-99352886D01*
X111063220Y-99345057D01*
X111059059Y-99301038D01*
X111058500Y-99289181D01*
X111058500Y-98495475D01*
X112025628Y-98495475D01*
X112044038Y-98705896D01*
X112045941Y-98716691D01*
X112100609Y-98920715D01*
X112104355Y-98931007D01*
X112193623Y-99122441D01*
X112199103Y-99131932D01*
X112229794Y-99175765D01*
X112240271Y-99184140D01*
X112253718Y-99177072D01*
X112927978Y-98502812D01*
X112934356Y-98491132D01*
X113664408Y-98491132D01*
X113664539Y-98492965D01*
X113668790Y-98499580D01*
X114347003Y-99177793D01*
X114358777Y-99184223D01*
X114370793Y-99174926D01*
X114400897Y-99131932D01*
X114406377Y-99122441D01*
X114495645Y-98931007D01*
X114499391Y-98920715D01*
X114554059Y-98716691D01*
X114555962Y-98705896D01*
X114574372Y-98495475D01*
X114574372Y-98484525D01*
X114555962Y-98274104D01*
X114554059Y-98263309D01*
X114499391Y-98059285D01*
X114495645Y-98048993D01*
X114406377Y-97857559D01*
X114400897Y-97848068D01*
X114370206Y-97804235D01*
X114359729Y-97795860D01*
X114346282Y-97802928D01*
X113672022Y-98477188D01*
X113664408Y-98491132D01*
X112934356Y-98491132D01*
X112935592Y-98488868D01*
X112935461Y-98487035D01*
X112931210Y-98480420D01*
X112252997Y-97802207D01*
X112241223Y-97795777D01*
X112229207Y-97805074D01*
X112199103Y-97848068D01*
X112193623Y-97857559D01*
X112104355Y-98048993D01*
X112100609Y-98059285D01*
X112045941Y-98263309D01*
X112044038Y-98274104D01*
X112025628Y-98484525D01*
X112025628Y-98495475D01*
X111058500Y-98495475D01*
X111058500Y-96599594D01*
X111078502Y-96531473D01*
X111095405Y-96510499D01*
X111815213Y-95790691D01*
X111877525Y-95756665D01*
X111948340Y-95761730D01*
X112005176Y-95804277D01*
X112029987Y-95870797D01*
X112029829Y-95890767D01*
X112027759Y-95914428D01*
X112024647Y-95950000D01*
X112044022Y-96171463D01*
X112061085Y-96235142D01*
X112087388Y-96333304D01*
X112101560Y-96386196D01*
X112103882Y-96391177D01*
X112103883Y-96391178D01*
X112193186Y-96582689D01*
X112193189Y-96582694D01*
X112195512Y-96587676D01*
X112323023Y-96769781D01*
X112480219Y-96926977D01*
X112484727Y-96930134D01*
X112484730Y-96930136D01*
X112525288Y-96958535D01*
X112662323Y-97054488D01*
X112667305Y-97056811D01*
X112667310Y-97056814D01*
X112772965Y-97106081D01*
X112826250Y-97152998D01*
X112845711Y-97221275D01*
X112825169Y-97289235D01*
X112772965Y-97334471D01*
X112667559Y-97383623D01*
X112658068Y-97389103D01*
X112614235Y-97419794D01*
X112605860Y-97430271D01*
X112612928Y-97443718D01*
X113287188Y-98117978D01*
X113301132Y-98125592D01*
X113302965Y-98125461D01*
X113309580Y-98121210D01*
X113987793Y-97442997D01*
X113994223Y-97431223D01*
X113984926Y-97419207D01*
X113941931Y-97389102D01*
X113932445Y-97383624D01*
X113827035Y-97334471D01*
X113773750Y-97287554D01*
X113754289Y-97219277D01*
X113774831Y-97151317D01*
X113827035Y-97106081D01*
X113932690Y-97056814D01*
X113932695Y-97056811D01*
X113937677Y-97054488D01*
X114074712Y-96958535D01*
X114115270Y-96930136D01*
X114115273Y-96930134D01*
X114119781Y-96926977D01*
X114276977Y-96769781D01*
X114404488Y-96587676D01*
X114406811Y-96582694D01*
X114406814Y-96582689D01*
X114496117Y-96391178D01*
X114496118Y-96391177D01*
X114498440Y-96386196D01*
X114512613Y-96333304D01*
X114538915Y-96235142D01*
X114555978Y-96171463D01*
X114575353Y-95950000D01*
X114555978Y-95728537D01*
X114505440Y-95539928D01*
X114499863Y-95519114D01*
X114499862Y-95519112D01*
X114498440Y-95513804D01*
X114478576Y-95471206D01*
X114406814Y-95317311D01*
X114406811Y-95317306D01*
X114404488Y-95312324D01*
X114401331Y-95307815D01*
X114280136Y-95134730D01*
X114280134Y-95134727D01*
X114276977Y-95130219D01*
X114119781Y-94973023D01*
X114115273Y-94969866D01*
X114115270Y-94969864D01*
X114012239Y-94897721D01*
X113937677Y-94845512D01*
X113932695Y-94843189D01*
X113932690Y-94843186D01*
X113827627Y-94794195D01*
X113774342Y-94747278D01*
X113754881Y-94679001D01*
X113775423Y-94611041D01*
X113827627Y-94565805D01*
X113932690Y-94516814D01*
X113932695Y-94516811D01*
X113937677Y-94514488D01*
X114070292Y-94421630D01*
X114115270Y-94390136D01*
X114115273Y-94390134D01*
X114119781Y-94386977D01*
X114276977Y-94229781D01*
X114404488Y-94047676D01*
X114406811Y-94042694D01*
X114406814Y-94042689D01*
X114496117Y-93851178D01*
X114496118Y-93851177D01*
X114498440Y-93846196D01*
X114508784Y-93807594D01*
X114526686Y-93740782D01*
X114555978Y-93631463D01*
X114575353Y-93410000D01*
X114555978Y-93188537D01*
X114498440Y-92973804D01*
X114496117Y-92968822D01*
X114406814Y-92777311D01*
X114406811Y-92777306D01*
X114404488Y-92772324D01*
X114276977Y-92590219D01*
X114119781Y-92433023D01*
X114115273Y-92429866D01*
X114115270Y-92429864D01*
X114034976Y-92373642D01*
X113937677Y-92305512D01*
X113932695Y-92303189D01*
X113932690Y-92303186D01*
X113741178Y-92213883D01*
X113741177Y-92213882D01*
X113736196Y-92211560D01*
X113730888Y-92210138D01*
X113730886Y-92210137D01*
X113660701Y-92191331D01*
X113521463Y-92154022D01*
X113300000Y-92134647D01*
X113078537Y-92154022D01*
X112939299Y-92191331D01*
X112869114Y-92210137D01*
X112869112Y-92210138D01*
X112863804Y-92211560D01*
X112858823Y-92213882D01*
X112858822Y-92213883D01*
X112667311Y-92303186D01*
X112667306Y-92303189D01*
X112662324Y-92305512D01*
X112657817Y-92308668D01*
X112657815Y-92308669D01*
X112484730Y-92429864D01*
X112484727Y-92429866D01*
X112480219Y-92433023D01*
X112323023Y-92590219D01*
X112195512Y-92772324D01*
X112193189Y-92777306D01*
X112193186Y-92777311D01*
X112103883Y-92968822D01*
X112101560Y-92973804D01*
X112044022Y-93188537D01*
X112024647Y-93410000D01*
X112044022Y-93631463D01*
X112045446Y-93636776D01*
X112045446Y-93636777D01*
X112054486Y-93670516D01*
X112052796Y-93741493D01*
X112021874Y-93792222D01*
X110032747Y-95781348D01*
X110024461Y-95788888D01*
X110017982Y-95793000D01*
X110012557Y-95798777D01*
X109971357Y-95842651D01*
X109968602Y-95845493D01*
X109948865Y-95865230D01*
X109946385Y-95868427D01*
X109938682Y-95877447D01*
X109908414Y-95909679D01*
X109904595Y-95916625D01*
X109904593Y-95916628D01*
X109898652Y-95927434D01*
X109887801Y-95943953D01*
X109875386Y-95959959D01*
X109872241Y-95967228D01*
X109872238Y-95967232D01*
X109857826Y-96000537D01*
X109852609Y-96011187D01*
X109831305Y-96049940D01*
X109829334Y-96057615D01*
X109829334Y-96057616D01*
X109826267Y-96069562D01*
X109819863Y-96088266D01*
X109811819Y-96106855D01*
X109810580Y-96114680D01*
X109810579Y-96114682D01*
X109804904Y-96150513D01*
X109802497Y-96162135D01*
X109797012Y-96183500D01*
X109791500Y-96204970D01*
X109791500Y-96225224D01*
X109789949Y-96244934D01*
X109786780Y-96264943D01*
X109787526Y-96272835D01*
X109790941Y-96308961D01*
X109791500Y-96320819D01*
X109791500Y-99010405D01*
X109771498Y-99078526D01*
X109754595Y-99099501D01*
X108874499Y-99979596D01*
X108812187Y-100013621D01*
X108785404Y-100016500D01*
X97792372Y-100016500D01*
X97781189Y-100015973D01*
X97773696Y-100014298D01*
X97765770Y-100014547D01*
X97765769Y-100014547D01*
X97705606Y-100016438D01*
X97701648Y-100016500D01*
X97673748Y-100016500D01*
X97669758Y-100017004D01*
X97657924Y-100017936D01*
X97613715Y-100019326D01*
X97606099Y-100021539D01*
X97606097Y-100021539D01*
X97594256Y-100024979D01*
X97574897Y-100028988D01*
X97573587Y-100029154D01*
X97554807Y-100031526D01*
X97547441Y-100034442D01*
X97547435Y-100034444D01*
X97513702Y-100047800D01*
X97502472Y-100051645D01*
X97467621Y-100061770D01*
X97460011Y-100063981D01*
X97453188Y-100068016D01*
X97442570Y-100074295D01*
X97424817Y-100082992D01*
X97417172Y-100086019D01*
X97405987Y-100090448D01*
X97399572Y-100095109D01*
X97370216Y-100116437D01*
X97360299Y-100122951D01*
X97322242Y-100145458D01*
X97307921Y-100159779D01*
X97292888Y-100172619D01*
X97276497Y-100184528D01*
X97271447Y-100190632D01*
X97271442Y-100190637D01*
X97248311Y-100218598D01*
X97240321Y-100227379D01*
X96363103Y-101104596D01*
X96300791Y-101138621D01*
X96274008Y-101141500D01*
X96204513Y-101141500D01*
X96198061Y-101142872D01*
X96198056Y-101142872D01*
X96111112Y-101161353D01*
X96017712Y-101181206D01*
X96011682Y-101183891D01*
X96011681Y-101183891D01*
X95849278Y-101256197D01*
X95849276Y-101256198D01*
X95843248Y-101258882D01*
X95837907Y-101262762D01*
X95837906Y-101262763D01*
X95818583Y-101276802D01*
X95733560Y-101338575D01*
X95666694Y-101362433D01*
X95597542Y-101346353D01*
X95548062Y-101295440D01*
X95533500Y-101236639D01*
X95533500Y-98278763D01*
X95534027Y-98267579D01*
X95535701Y-98260091D01*
X95533562Y-98192032D01*
X95533500Y-98188075D01*
X95533500Y-98160144D01*
X95532994Y-98156138D01*
X95532061Y-98144292D01*
X95531470Y-98125461D01*
X95530673Y-98100110D01*
X95525022Y-98080658D01*
X95521014Y-98061306D01*
X95519468Y-98049068D01*
X95519467Y-98049066D01*
X95518474Y-98041203D01*
X95502194Y-98000086D01*
X95498359Y-97988885D01*
X95486018Y-97946406D01*
X95481985Y-97939587D01*
X95481983Y-97939582D01*
X95475707Y-97928971D01*
X95467010Y-97911221D01*
X95459552Y-97892383D01*
X95433571Y-97856623D01*
X95427053Y-97846701D01*
X95408578Y-97815460D01*
X95408574Y-97815455D01*
X95404542Y-97808637D01*
X95390218Y-97794313D01*
X95377376Y-97779278D01*
X95365472Y-97762893D01*
X95331406Y-97734711D01*
X95322627Y-97726722D01*
X92203652Y-94607747D01*
X92196112Y-94599461D01*
X92192000Y-94592982D01*
X92142348Y-94546356D01*
X92139507Y-94543602D01*
X92119770Y-94523865D01*
X92116573Y-94521385D01*
X92107551Y-94513680D01*
X92081100Y-94488841D01*
X92075321Y-94483414D01*
X92068375Y-94479595D01*
X92068372Y-94479593D01*
X92057566Y-94473652D01*
X92041047Y-94462801D01*
X92040583Y-94462441D01*
X92025041Y-94450386D01*
X92017772Y-94447241D01*
X92017768Y-94447238D01*
X91984463Y-94432826D01*
X91973813Y-94427609D01*
X91935060Y-94406305D01*
X91915437Y-94401267D01*
X91896734Y-94394863D01*
X91885420Y-94389967D01*
X91885419Y-94389967D01*
X91878145Y-94386819D01*
X91870322Y-94385580D01*
X91870312Y-94385577D01*
X91834476Y-94379901D01*
X91822856Y-94377495D01*
X91787711Y-94368472D01*
X91787710Y-94368472D01*
X91780030Y-94366500D01*
X91759776Y-94366500D01*
X91740065Y-94364949D01*
X91727886Y-94363020D01*
X91720057Y-94361780D01*
X91690786Y-94364547D01*
X91676039Y-94365941D01*
X91664181Y-94366500D01*
X87178768Y-94366500D01*
X87167585Y-94365973D01*
X87160092Y-94364298D01*
X87152166Y-94364547D01*
X87152165Y-94364547D01*
X87092002Y-94366438D01*
X87088044Y-94366500D01*
X87060144Y-94366500D01*
X87056154Y-94367004D01*
X87044320Y-94367936D01*
X87000111Y-94369326D01*
X86992499Y-94371538D01*
X86987881Y-94372269D01*
X86941973Y-94371067D01*
X86926944Y-94367872D01*
X86926939Y-94367872D01*
X86920487Y-94366500D01*
X86729513Y-94366500D01*
X86723061Y-94367872D01*
X86723056Y-94367872D01*
X86639763Y-94385577D01*
X86542712Y-94406206D01*
X86536682Y-94408891D01*
X86536681Y-94408891D01*
X86374278Y-94481197D01*
X86374276Y-94481198D01*
X86368248Y-94483882D01*
X86362907Y-94487762D01*
X86362906Y-94487763D01*
X86330468Y-94511331D01*
X86213747Y-94596134D01*
X86209326Y-94601044D01*
X86209325Y-94601045D01*
X86148904Y-94668150D01*
X86085960Y-94738056D01*
X85990473Y-94903444D01*
X85931458Y-95085072D01*
X85930768Y-95091633D01*
X85930768Y-95091635D01*
X85926713Y-95130219D01*
X85911496Y-95275000D01*
X85912186Y-95281565D01*
X85916234Y-95320075D01*
X85931458Y-95464928D01*
X85990473Y-95646556D01*
X85993776Y-95652278D01*
X85993777Y-95652279D01*
X86019308Y-95696500D01*
X86085960Y-95811944D01*
X86090378Y-95816851D01*
X86090379Y-95816852D01*
X86197766Y-95936117D01*
X86213747Y-95953866D01*
X86310216Y-96023955D01*
X86336428Y-96042999D01*
X86368248Y-96066118D01*
X86374276Y-96068802D01*
X86374278Y-96068803D01*
X86536681Y-96141109D01*
X86542712Y-96143794D01*
X86628999Y-96162135D01*
X86723056Y-96182128D01*
X86723061Y-96182128D01*
X86729513Y-96183500D01*
X86920487Y-96183500D01*
X86926939Y-96182128D01*
X86926944Y-96182128D01*
X87021001Y-96162135D01*
X87107288Y-96143794D01*
X87113319Y-96141109D01*
X87275722Y-96068803D01*
X87275724Y-96068802D01*
X87281752Y-96066118D01*
X87313573Y-96042999D01*
X87339784Y-96023955D01*
X87436253Y-95953866D01*
X87452234Y-95936117D01*
X87559621Y-95816852D01*
X87559622Y-95816851D01*
X87564040Y-95811944D01*
X87612195Y-95728537D01*
X87630692Y-95696500D01*
X87682075Y-95647507D01*
X87739811Y-95633500D01*
X90063480Y-95633500D01*
X90131601Y-95653502D01*
X90178094Y-95707158D01*
X90188790Y-95746329D01*
X90201622Y-95868419D01*
X90206458Y-95914428D01*
X90265473Y-96096056D01*
X90268776Y-96101778D01*
X90268777Y-96101779D01*
X90351429Y-96244935D01*
X90360960Y-96261444D01*
X90365383Y-96266357D01*
X90365441Y-96266436D01*
X90389301Y-96333304D01*
X90373223Y-96402456D01*
X90322310Y-96451937D01*
X90263507Y-96466500D01*
X84414594Y-96466500D01*
X84346473Y-96446498D01*
X84325499Y-96429595D01*
X83297122Y-95401217D01*
X83263096Y-95338905D01*
X83260907Y-95325292D01*
X83260173Y-95318303D01*
X83243542Y-95160072D01*
X83184527Y-94978444D01*
X83089040Y-94813056D01*
X83072058Y-94794195D01*
X82965675Y-94676045D01*
X82965674Y-94676044D01*
X82961253Y-94671134D01*
X82806752Y-94558882D01*
X82800724Y-94556198D01*
X82800722Y-94556197D01*
X82638319Y-94483891D01*
X82638318Y-94483891D01*
X82632288Y-94481206D01*
X82510138Y-94455242D01*
X82451944Y-94442872D01*
X82451939Y-94442872D01*
X82445487Y-94441500D01*
X82254513Y-94441500D01*
X82248061Y-94442872D01*
X82248056Y-94442872D01*
X82189862Y-94455242D01*
X82067712Y-94481206D01*
X82061682Y-94483891D01*
X82061681Y-94483891D01*
X81899278Y-94556197D01*
X81899276Y-94556198D01*
X81893248Y-94558882D01*
X81738747Y-94671134D01*
X81734326Y-94676044D01*
X81734325Y-94676045D01*
X81627943Y-94794195D01*
X81610960Y-94813056D01*
X81515473Y-94978444D01*
X81456458Y-95160072D01*
X81436496Y-95350000D01*
X81437186Y-95356565D01*
X81453189Y-95508822D01*
X81456458Y-95539928D01*
X81515473Y-95721556D01*
X81518776Y-95727278D01*
X81518777Y-95727279D01*
X81549994Y-95781348D01*
X81610960Y-95886944D01*
X81615378Y-95891851D01*
X81615379Y-95891852D01*
X81713239Y-96000537D01*
X81738747Y-96028866D01*
X81893248Y-96141118D01*
X81899276Y-96143802D01*
X81899278Y-96143803D01*
X82061681Y-96216109D01*
X82067712Y-96218794D01*
X82144623Y-96235142D01*
X82248056Y-96257128D01*
X82248061Y-96257128D01*
X82254513Y-96258500D01*
X82310406Y-96258500D01*
X82378527Y-96278502D01*
X82399501Y-96295405D01*
X83596348Y-97492253D01*
X83603888Y-97500539D01*
X83608000Y-97507018D01*
X83613777Y-97512443D01*
X83657651Y-97553643D01*
X83660493Y-97556398D01*
X83680230Y-97576135D01*
X83683427Y-97578615D01*
X83692447Y-97586318D01*
X83724679Y-97616586D01*
X83731625Y-97620405D01*
X83731628Y-97620407D01*
X83742434Y-97626348D01*
X83758953Y-97637199D01*
X83774959Y-97649614D01*
X83782228Y-97652759D01*
X83782232Y-97652762D01*
X83815537Y-97667174D01*
X83826187Y-97672391D01*
X83864940Y-97693695D01*
X83872615Y-97695666D01*
X83872616Y-97695666D01*
X83884562Y-97698733D01*
X83903267Y-97705137D01*
X83921855Y-97713181D01*
X83929678Y-97714420D01*
X83929688Y-97714423D01*
X83965524Y-97720099D01*
X83977144Y-97722505D01*
X84009952Y-97730928D01*
X84019970Y-97733500D01*
X84040224Y-97733500D01*
X84059934Y-97735051D01*
X84079943Y-97738220D01*
X84087835Y-97737474D01*
X84123961Y-97734059D01*
X84135819Y-97733500D01*
X91835406Y-97733500D01*
X91903527Y-97753502D01*
X91924501Y-97770405D01*
X93179595Y-99025500D01*
X93213621Y-99087812D01*
X93216500Y-99114595D01*
X93216500Y-101435600D01*
X93196498Y-101503721D01*
X93179595Y-101524695D01*
X91943910Y-102760380D01*
X91906064Y-102786392D01*
X91749278Y-102856197D01*
X91749276Y-102856198D01*
X91743248Y-102858882D01*
X91588747Y-102971134D01*
X91584326Y-102976044D01*
X91584325Y-102976045D01*
X91497171Y-103072840D01*
X91460960Y-103113056D01*
X91365473Y-103278444D01*
X91306458Y-103460072D01*
X91305768Y-103466633D01*
X91305768Y-103466635D01*
X91300586Y-103515938D01*
X91286496Y-103650000D01*
X91287186Y-103656565D01*
X91304235Y-103818774D01*
X91306458Y-103839928D01*
X91365473Y-104021556D01*
X91460960Y-104186944D01*
X91465378Y-104191851D01*
X91465379Y-104191852D01*
X91573405Y-104311827D01*
X91604123Y-104375834D01*
X91595358Y-104446288D01*
X91568864Y-104485232D01*
X89090897Y-106963198D01*
X86624500Y-109429595D01*
X86562188Y-109463621D01*
X86535405Y-109466500D01*
X82608200Y-109466500D01*
X82540079Y-109446498D01*
X82520853Y-109430157D01*
X82520580Y-109430460D01*
X82515668Y-109426037D01*
X82511253Y-109421134D01*
X82420811Y-109355424D01*
X82362094Y-109312763D01*
X82362093Y-109312762D01*
X82356752Y-109308882D01*
X82350724Y-109306198D01*
X82350722Y-109306197D01*
X82188319Y-109233891D01*
X82188318Y-109233891D01*
X82182288Y-109231206D01*
X82088888Y-109211353D01*
X82001944Y-109192872D01*
X82001939Y-109192872D01*
X81995487Y-109191500D01*
X81804513Y-109191500D01*
X81798061Y-109192872D01*
X81798056Y-109192872D01*
X81711112Y-109211353D01*
X81617712Y-109231206D01*
X81611682Y-109233891D01*
X81611681Y-109233891D01*
X81449278Y-109306197D01*
X81449276Y-109306198D01*
X81443248Y-109308882D01*
X81288747Y-109421134D01*
X81284326Y-109426044D01*
X81284325Y-109426045D01*
X81212432Y-109505891D01*
X81160960Y-109563056D01*
X81103225Y-109663056D01*
X81086989Y-109691178D01*
X81065473Y-109728444D01*
X81006458Y-109910072D01*
X81005768Y-109916633D01*
X81005768Y-109916635D01*
X80987186Y-110093435D01*
X80986496Y-110100000D01*
X65608500Y-110100000D01*
X65608500Y-109574012D01*
X65628502Y-109505891D01*
X65682158Y-109459398D01*
X65741198Y-109448272D01*
X65743227Y-109448500D01*
X66649769Y-109448500D01*
X66652825Y-109448200D01*
X66652832Y-109448200D01*
X66711340Y-109442463D01*
X66796833Y-109434080D01*
X66802734Y-109432298D01*
X66802736Y-109432298D01*
X66889186Y-109406197D01*
X66986169Y-109376916D01*
X67160796Y-109284066D01*
X67260337Y-109202882D01*
X67309287Y-109162960D01*
X67309290Y-109162957D01*
X67314062Y-109159065D01*
X67326344Y-109144219D01*
X67436201Y-109011425D01*
X67436203Y-109011421D01*
X67440130Y-109006675D01*
X67534198Y-108832701D01*
X67592682Y-108643768D01*
X67613355Y-108447075D01*
X67612067Y-108432925D01*
X68836645Y-108432925D01*
X68837204Y-108439065D01*
X68852972Y-108612324D01*
X68854570Y-108629888D01*
X68856308Y-108635794D01*
X68856309Y-108635798D01*
X68876756Y-108705270D01*
X68910410Y-108819619D01*
X68913263Y-108825077D01*
X68913265Y-108825081D01*
X68945604Y-108886939D01*
X69002040Y-108994890D01*
X69125968Y-109149025D01*
X69130692Y-109152989D01*
X69137933Y-109159065D01*
X69277474Y-109276154D01*
X69282872Y-109279121D01*
X69282877Y-109279125D01*
X69382498Y-109333891D01*
X69450787Y-109371433D01*
X69456654Y-109373294D01*
X69456656Y-109373295D01*
X69622945Y-109426045D01*
X69639306Y-109431235D01*
X69793227Y-109448500D01*
X70999769Y-109448500D01*
X71002825Y-109448200D01*
X71002832Y-109448200D01*
X71061340Y-109442463D01*
X71146833Y-109434080D01*
X71152734Y-109432298D01*
X71152736Y-109432298D01*
X71239186Y-109406197D01*
X71336169Y-109376916D01*
X71510796Y-109284066D01*
X71610337Y-109202882D01*
X71659287Y-109162960D01*
X71659290Y-109162957D01*
X71664062Y-109159065D01*
X71676344Y-109144219D01*
X71786201Y-109011425D01*
X71786203Y-109011421D01*
X71790130Y-109006675D01*
X71884198Y-108832701D01*
X71942682Y-108643768D01*
X71963355Y-108447075D01*
X71947515Y-108273023D01*
X71945989Y-108256251D01*
X71945988Y-108256248D01*
X71945430Y-108250112D01*
X71889590Y-108060381D01*
X71884979Y-108051560D01*
X71800813Y-107890568D01*
X71797960Y-107885110D01*
X71674032Y-107730975D01*
X71667727Y-107725684D01*
X71630258Y-107694244D01*
X71522526Y-107603846D01*
X71517128Y-107600879D01*
X71517123Y-107600875D01*
X71362306Y-107515765D01*
X71349213Y-107508567D01*
X71343346Y-107506706D01*
X71343344Y-107506705D01*
X71166564Y-107450627D01*
X71166563Y-107450627D01*
X71160694Y-107448765D01*
X71006773Y-107431500D01*
X70795223Y-107431500D01*
X70727102Y-107411498D01*
X70680609Y-107357842D01*
X70670505Y-107287568D01*
X70678234Y-107258708D01*
X70684995Y-107241803D01*
X70687530Y-107235466D01*
X70688644Y-107228738D01*
X70688645Y-107228734D01*
X70715993Y-107063539D01*
X70715993Y-107063536D01*
X70717108Y-107056802D01*
X70716502Y-107045229D01*
X70707987Y-106882766D01*
X70707630Y-106875953D01*
X70698523Y-106842888D01*
X70661352Y-106707941D01*
X70659539Y-106701359D01*
X70575078Y-106541164D01*
X70570673Y-106535951D01*
X70570670Y-106535947D01*
X70462594Y-106408057D01*
X70462590Y-106408053D01*
X70458187Y-106402843D01*
X70452762Y-106398695D01*
X70319743Y-106296994D01*
X70319739Y-106296991D01*
X70314322Y-106292850D01*
X70208894Y-106243688D01*
X70156369Y-106219195D01*
X70156366Y-106219194D01*
X70150192Y-106216315D01*
X70143544Y-106214829D01*
X70143541Y-106214828D01*
X69978494Y-106177936D01*
X69978495Y-106177936D01*
X69973457Y-106176810D01*
X69967912Y-106176500D01*
X69834756Y-106176500D01*
X69699963Y-106191143D01*
X69616609Y-106219195D01*
X69534796Y-106246728D01*
X69534794Y-106246729D01*
X69528325Y-106248906D01*
X69373095Y-106342177D01*
X69368138Y-106346865D01*
X69368135Y-106346867D01*
X69246473Y-106461918D01*
X69241515Y-106466607D01*
X69237683Y-106472245D01*
X69237680Y-106472249D01*
X69186740Y-106547205D01*
X69139723Y-106616388D01*
X69072470Y-106784534D01*
X69071356Y-106791262D01*
X69071355Y-106791266D01*
X69044406Y-106954050D01*
X69042892Y-106963198D01*
X69043249Y-106970015D01*
X69043249Y-106970019D01*
X69048151Y-107063539D01*
X69052370Y-107144047D01*
X69054181Y-107150620D01*
X69054181Y-107150623D01*
X69091902Y-107287568D01*
X69100461Y-107318641D01*
X69184922Y-107478836D01*
X69189327Y-107484049D01*
X69189330Y-107484053D01*
X69189824Y-107484637D01*
X69203151Y-107500406D01*
X69203290Y-107500571D01*
X69231983Y-107565511D01*
X69221011Y-107635655D01*
X69186689Y-107679543D01*
X69135938Y-107720935D01*
X69132011Y-107725682D01*
X69132009Y-107725684D01*
X69013799Y-107868575D01*
X69013797Y-107868579D01*
X69009870Y-107873325D01*
X68915802Y-108047299D01*
X68857318Y-108236232D01*
X68856674Y-108242357D01*
X68856674Y-108242358D01*
X68842805Y-108374319D01*
X68836645Y-108432925D01*
X67612067Y-108432925D01*
X67597515Y-108273023D01*
X67595989Y-108256251D01*
X67595988Y-108256248D01*
X67595430Y-108250112D01*
X67539590Y-108060381D01*
X67534979Y-108051560D01*
X67450813Y-107890568D01*
X67447960Y-107885110D01*
X67324032Y-107730975D01*
X67317727Y-107725684D01*
X67280258Y-107694244D01*
X67172526Y-107603846D01*
X67167128Y-107600879D01*
X67167123Y-107600875D01*
X67012306Y-107515765D01*
X66999213Y-107508567D01*
X66993346Y-107506706D01*
X66993344Y-107506705D01*
X66816564Y-107450627D01*
X66816563Y-107450627D01*
X66810694Y-107448765D01*
X66656773Y-107431500D01*
X65750231Y-107431500D01*
X65746892Y-107431827D01*
X65746803Y-107431836D01*
X65746728Y-107431822D01*
X65744086Y-107431951D01*
X65744055Y-107431314D01*
X65677054Y-107418581D01*
X65625545Y-107369721D01*
X65608500Y-107306438D01*
X65608500Y-104350000D01*
X73036496Y-104350000D01*
X73056458Y-104539928D01*
X73115473Y-104721556D01*
X73210960Y-104886944D01*
X73215378Y-104891851D01*
X73215379Y-104891852D01*
X73228874Y-104906840D01*
X73338747Y-105028866D01*
X73493248Y-105141118D01*
X73499276Y-105143802D01*
X73499278Y-105143803D01*
X73640245Y-105206565D01*
X73667712Y-105218794D01*
X73761112Y-105238647D01*
X73848056Y-105257128D01*
X73848061Y-105257128D01*
X73854513Y-105258500D01*
X74045487Y-105258500D01*
X74051939Y-105257128D01*
X74051944Y-105257128D01*
X74138888Y-105238647D01*
X74232288Y-105218794D01*
X74289246Y-105193435D01*
X74334070Y-105173478D01*
X74385319Y-105162585D01*
X75536212Y-105162585D01*
X75552655Y-105163663D01*
X75584348Y-105167835D01*
X75592537Y-105166757D01*
X75624222Y-105162586D01*
X75624232Y-105162585D01*
X75624233Y-105162585D01*
X75647073Y-105159578D01*
X75663520Y-105158500D01*
X84218683Y-105158500D01*
X84286804Y-105178502D01*
X84333297Y-105232158D01*
X84343993Y-105271330D01*
X84356458Y-105389928D01*
X84415473Y-105571556D01*
X84418776Y-105577278D01*
X84418777Y-105577279D01*
X84441224Y-105616158D01*
X84510960Y-105736944D01*
X84638747Y-105878866D01*
X84793248Y-105991118D01*
X84799276Y-105993802D01*
X84799278Y-105993803D01*
X84961681Y-106066109D01*
X84967712Y-106068794D01*
X85061113Y-106088647D01*
X85148056Y-106107128D01*
X85148061Y-106107128D01*
X85154513Y-106108500D01*
X85345487Y-106108500D01*
X85351939Y-106107128D01*
X85351944Y-106107128D01*
X85438887Y-106088647D01*
X85532288Y-106068794D01*
X85538319Y-106066109D01*
X85700722Y-105993803D01*
X85700724Y-105993802D01*
X85706752Y-105991118D01*
X85861253Y-105878866D01*
X85989040Y-105736944D01*
X86058776Y-105616158D01*
X86081223Y-105577279D01*
X86081224Y-105577278D01*
X86084527Y-105571556D01*
X86143542Y-105389928D01*
X86154482Y-105285845D01*
X86162814Y-105206565D01*
X86163504Y-105200000D01*
X86162814Y-105193435D01*
X86144232Y-105016635D01*
X86144232Y-105016633D01*
X86143542Y-105010072D01*
X86084527Y-104828444D01*
X85989040Y-104663056D01*
X85991777Y-104661476D01*
X85972351Y-104607653D01*
X85988178Y-104538443D01*
X85989114Y-104536987D01*
X85989040Y-104536944D01*
X86081223Y-104377279D01*
X86081224Y-104377278D01*
X86084527Y-104371556D01*
X86143542Y-104189928D01*
X86144886Y-104177146D01*
X86162814Y-104006565D01*
X86163504Y-104000000D01*
X86143542Y-103810072D01*
X86084527Y-103628444D01*
X85989040Y-103463056D01*
X85980701Y-103453794D01*
X85865675Y-103326045D01*
X85865674Y-103326044D01*
X85861253Y-103321134D01*
X85706752Y-103208882D01*
X85700724Y-103206198D01*
X85700722Y-103206197D01*
X85538319Y-103133891D01*
X85538318Y-103133891D01*
X85532288Y-103131206D01*
X85429544Y-103109367D01*
X85351944Y-103092872D01*
X85351939Y-103092872D01*
X85345487Y-103091500D01*
X85154513Y-103091500D01*
X85148061Y-103092872D01*
X85148056Y-103092872D01*
X85070456Y-103109367D01*
X84967712Y-103131206D01*
X84961682Y-103133891D01*
X84961681Y-103133891D01*
X84799278Y-103206197D01*
X84799276Y-103206198D01*
X84793248Y-103208882D01*
X84787907Y-103212762D01*
X84787906Y-103212763D01*
X84775852Y-103221521D01*
X84708985Y-103245379D01*
X84701791Y-103245585D01*
X76025108Y-103245585D01*
X75956987Y-103225583D01*
X75931472Y-103203896D01*
X75910066Y-103180122D01*
X75910064Y-103180121D01*
X75905651Y-103175219D01*
X75843184Y-103129834D01*
X75756492Y-103066848D01*
X75756491Y-103066847D01*
X75751150Y-103062967D01*
X75745122Y-103060283D01*
X75745120Y-103060282D01*
X75582717Y-102987976D01*
X75582716Y-102987976D01*
X75576686Y-102985291D01*
X75454776Y-102959378D01*
X75396342Y-102946957D01*
X75396337Y-102946957D01*
X75389885Y-102945585D01*
X75198911Y-102945585D01*
X75192459Y-102946957D01*
X75192454Y-102946957D01*
X75134020Y-102959378D01*
X75012110Y-102985291D01*
X75006080Y-102987976D01*
X75006079Y-102987976D01*
X74843676Y-103060282D01*
X74843674Y-103060283D01*
X74837646Y-103062967D01*
X74832305Y-103066847D01*
X74832304Y-103066848D01*
X74809125Y-103083689D01*
X74683145Y-103175219D01*
X74678724Y-103180129D01*
X74678723Y-103180130D01*
X74612507Y-103253671D01*
X74555358Y-103317141D01*
X74547441Y-103330854D01*
X74470666Y-103463831D01*
X74419283Y-103512824D01*
X74349570Y-103526260D01*
X74310299Y-103515938D01*
X74238323Y-103483892D01*
X74238315Y-103483889D01*
X74232288Y-103481206D01*
X74132861Y-103460072D01*
X74051944Y-103442872D01*
X74051939Y-103442872D01*
X74045487Y-103441500D01*
X73854513Y-103441500D01*
X73848061Y-103442872D01*
X73848056Y-103442872D01*
X73767139Y-103460072D01*
X73667712Y-103481206D01*
X73661682Y-103483891D01*
X73661681Y-103483891D01*
X73499278Y-103556197D01*
X73499276Y-103556198D01*
X73493248Y-103558882D01*
X73338747Y-103671134D01*
X73334326Y-103676044D01*
X73334325Y-103676045D01*
X73219300Y-103803794D01*
X73210960Y-103813056D01*
X73115473Y-103978444D01*
X73056458Y-104160072D01*
X73055768Y-104166633D01*
X73055768Y-104166635D01*
X73053320Y-104189928D01*
X73036496Y-104350000D01*
X65608500Y-104350000D01*
X65608500Y-100934012D01*
X65628502Y-100865891D01*
X65682158Y-100819398D01*
X65741198Y-100808272D01*
X65743227Y-100808500D01*
X66649769Y-100808500D01*
X66652825Y-100808200D01*
X66652832Y-100808200D01*
X66711340Y-100802463D01*
X66796833Y-100794080D01*
X66802734Y-100792298D01*
X66802736Y-100792298D01*
X66912119Y-100759273D01*
X66986169Y-100736916D01*
X67160796Y-100644066D01*
X67261323Y-100562078D01*
X67309287Y-100522960D01*
X67309290Y-100522957D01*
X67314062Y-100519065D01*
X67317991Y-100514316D01*
X67436201Y-100371425D01*
X67436203Y-100371421D01*
X67440130Y-100366675D01*
X67534198Y-100192701D01*
X67592682Y-100003768D01*
X67613355Y-99807075D01*
X67612067Y-99792925D01*
X68836645Y-99792925D01*
X68854570Y-99989888D01*
X68856308Y-99995794D01*
X68856309Y-99995798D01*
X68872746Y-100051645D01*
X68910410Y-100179619D01*
X68913263Y-100185077D01*
X68913265Y-100185081D01*
X68960720Y-100275853D01*
X69002040Y-100354890D01*
X69125968Y-100509025D01*
X69189199Y-100562082D01*
X69228522Y-100621187D01*
X69229649Y-100692175D01*
X69212417Y-100729423D01*
X69139723Y-100836388D01*
X69072470Y-101004534D01*
X69071356Y-101011262D01*
X69071355Y-101011266D01*
X69044007Y-101176461D01*
X69042892Y-101183198D01*
X69043249Y-101190015D01*
X69043249Y-101190019D01*
X69048151Y-101283539D01*
X69052370Y-101364047D01*
X69054181Y-101370620D01*
X69054181Y-101370623D01*
X69077551Y-101455466D01*
X69100461Y-101538641D01*
X69184922Y-101698836D01*
X69189327Y-101704049D01*
X69189330Y-101704053D01*
X69297406Y-101831943D01*
X69297410Y-101831947D01*
X69301813Y-101837157D01*
X69307237Y-101841304D01*
X69307238Y-101841305D01*
X69440257Y-101943006D01*
X69440261Y-101943009D01*
X69445678Y-101947150D01*
X69532372Y-101987576D01*
X69603631Y-102020805D01*
X69603634Y-102020806D01*
X69609808Y-102023685D01*
X69616456Y-102025171D01*
X69616459Y-102025172D01*
X69722421Y-102048857D01*
X69786543Y-102063190D01*
X69792088Y-102063500D01*
X69925244Y-102063500D01*
X70060037Y-102048857D01*
X70187092Y-102006098D01*
X70225204Y-101993272D01*
X70225206Y-101993271D01*
X70231675Y-101991094D01*
X70386905Y-101897823D01*
X70391862Y-101893135D01*
X70391865Y-101893133D01*
X70513527Y-101778082D01*
X70513529Y-101778080D01*
X70518485Y-101773393D01*
X70522317Y-101767755D01*
X70522320Y-101767751D01*
X70616442Y-101629255D01*
X70620277Y-101623612D01*
X70687530Y-101455466D01*
X70688644Y-101448738D01*
X70688645Y-101448734D01*
X70715993Y-101283539D01*
X70715993Y-101283536D01*
X70717108Y-101276802D01*
X70716373Y-101262763D01*
X70707987Y-101102766D01*
X70707630Y-101095953D01*
X70684304Y-101011266D01*
X70672375Y-100967960D01*
X70673569Y-100896973D01*
X70712952Y-100837901D01*
X70778019Y-100809499D01*
X70793851Y-100808500D01*
X70999769Y-100808500D01*
X71002825Y-100808200D01*
X71002832Y-100808200D01*
X71061340Y-100802463D01*
X71146833Y-100794080D01*
X71152734Y-100792298D01*
X71152736Y-100792298D01*
X71262119Y-100759273D01*
X71336169Y-100736916D01*
X71510796Y-100644066D01*
X71611323Y-100562078D01*
X71659287Y-100522960D01*
X71659290Y-100522957D01*
X71664062Y-100519065D01*
X71667991Y-100514316D01*
X71786201Y-100371425D01*
X71786203Y-100371421D01*
X71790130Y-100366675D01*
X71884198Y-100192701D01*
X71942682Y-100003768D01*
X71963355Y-99807075D01*
X71951234Y-99673883D01*
X71945989Y-99616251D01*
X71945988Y-99616248D01*
X71945430Y-99610112D01*
X71943635Y-99604011D01*
X71891330Y-99426294D01*
X71889590Y-99420381D01*
X71885581Y-99412711D01*
X71815152Y-99277995D01*
X71797960Y-99245110D01*
X71674032Y-99090975D01*
X71667727Y-99085684D01*
X71582949Y-99014547D01*
X71522526Y-98963846D01*
X71517128Y-98960879D01*
X71517123Y-98960875D01*
X71354608Y-98871533D01*
X71354609Y-98871533D01*
X71349213Y-98868567D01*
X71343346Y-98866706D01*
X71343344Y-98866705D01*
X71166564Y-98810627D01*
X71166563Y-98810627D01*
X71160694Y-98808765D01*
X71006773Y-98791500D01*
X69800231Y-98791500D01*
X69797175Y-98791800D01*
X69797168Y-98791800D01*
X69738660Y-98797537D01*
X69653167Y-98805920D01*
X69647266Y-98807702D01*
X69647264Y-98807702D01*
X69603329Y-98820967D01*
X69463831Y-98863084D01*
X69289204Y-98955934D01*
X69222416Y-99010405D01*
X69140713Y-99077040D01*
X69140710Y-99077043D01*
X69135938Y-99080935D01*
X69132011Y-99085682D01*
X69132009Y-99085684D01*
X69013799Y-99228575D01*
X69013797Y-99228579D01*
X69009870Y-99233325D01*
X68915802Y-99407299D01*
X68857318Y-99596232D01*
X68856674Y-99602357D01*
X68856674Y-99602358D01*
X68841412Y-99747574D01*
X68836645Y-99792925D01*
X67612067Y-99792925D01*
X67601234Y-99673883D01*
X67595989Y-99616251D01*
X67595988Y-99616248D01*
X67595430Y-99610112D01*
X67593635Y-99604011D01*
X67541330Y-99426294D01*
X67539590Y-99420381D01*
X67535581Y-99412711D01*
X67465152Y-99277995D01*
X67447960Y-99245110D01*
X67324032Y-99090975D01*
X67317727Y-99085684D01*
X67232949Y-99014547D01*
X67172526Y-98963846D01*
X67167128Y-98960879D01*
X67167123Y-98960875D01*
X67004608Y-98871533D01*
X67004609Y-98871533D01*
X66999213Y-98868567D01*
X66993346Y-98866706D01*
X66993344Y-98866705D01*
X66816564Y-98810627D01*
X66816563Y-98810627D01*
X66810694Y-98808765D01*
X66656773Y-98791500D01*
X65750231Y-98791500D01*
X65746892Y-98791827D01*
X65746803Y-98791836D01*
X65746728Y-98791822D01*
X65744086Y-98791951D01*
X65744055Y-98791314D01*
X65677054Y-98778581D01*
X65625545Y-98729721D01*
X65608500Y-98666438D01*
X65608500Y-89034500D01*
X65628502Y-88966379D01*
X65682158Y-88919886D01*
X65734500Y-88908500D01*
X68563413Y-88908500D01*
X68631534Y-88928502D01*
G37*
%TD.AperFunction*%
%TA.AperFunction,Conductor*%
G36*
X91184532Y-107401934D02*
G01*
X91241368Y-107444481D01*
X91266179Y-107511001D01*
X91266500Y-107519990D01*
X91266500Y-109447476D01*
X91246498Y-109515597D01*
X91234142Y-109531779D01*
X91160960Y-109613056D01*
X91065473Y-109778444D01*
X91006458Y-109960072D01*
X91005769Y-109966631D01*
X91005768Y-109966634D01*
X90988739Y-110128659D01*
X90961726Y-110194315D01*
X90903504Y-110234945D01*
X90867354Y-110241427D01*
X90867077Y-110241436D01*
X90866969Y-110241439D01*
X90863044Y-110241500D01*
X90835144Y-110241500D01*
X90831154Y-110242004D01*
X90819320Y-110242936D01*
X90775111Y-110244326D01*
X90767495Y-110246539D01*
X90767493Y-110246539D01*
X90755652Y-110249979D01*
X90736293Y-110253988D01*
X90734983Y-110254154D01*
X90716203Y-110256526D01*
X90708837Y-110259442D01*
X90708831Y-110259444D01*
X90675098Y-110272800D01*
X90663868Y-110276645D01*
X90629017Y-110286770D01*
X90621407Y-110288981D01*
X90614584Y-110293016D01*
X90603966Y-110299295D01*
X90586213Y-110307992D01*
X90578568Y-110311019D01*
X90567383Y-110315448D01*
X90560968Y-110320109D01*
X90531612Y-110341437D01*
X90521695Y-110347951D01*
X90483638Y-110370458D01*
X90469317Y-110384779D01*
X90454284Y-110397619D01*
X90437893Y-110409528D01*
X90432842Y-110415634D01*
X90409702Y-110443605D01*
X90401712Y-110452384D01*
X88667747Y-112186348D01*
X88659461Y-112193888D01*
X88652982Y-112198000D01*
X88647557Y-112203777D01*
X88606357Y-112247651D01*
X88603602Y-112250493D01*
X88583865Y-112270230D01*
X88581385Y-112273427D01*
X88573682Y-112282447D01*
X88543414Y-112314679D01*
X88539595Y-112321625D01*
X88539593Y-112321628D01*
X88533652Y-112332434D01*
X88522801Y-112348953D01*
X88510386Y-112364959D01*
X88507241Y-112372228D01*
X88507238Y-112372232D01*
X88492826Y-112405537D01*
X88487609Y-112416187D01*
X88466305Y-112454940D01*
X88464334Y-112462615D01*
X88464334Y-112462616D01*
X88461267Y-112474562D01*
X88454863Y-112493266D01*
X88446819Y-112511855D01*
X88445580Y-112519678D01*
X88445577Y-112519688D01*
X88439901Y-112555524D01*
X88437495Y-112567144D01*
X88428472Y-112602289D01*
X88426500Y-112609970D01*
X88426500Y-112630224D01*
X88424949Y-112649934D01*
X88421780Y-112669943D01*
X88422526Y-112677835D01*
X88425941Y-112713961D01*
X88426500Y-112725819D01*
X88426500Y-116076996D01*
X88406498Y-116145117D01*
X88372771Y-116180209D01*
X88244730Y-116269864D01*
X88244727Y-116269866D01*
X88240219Y-116273023D01*
X88083023Y-116430219D01*
X88079866Y-116434727D01*
X88079864Y-116434730D01*
X87964005Y-116600195D01*
X87955512Y-116612324D01*
X87953189Y-116617306D01*
X87953186Y-116617311D01*
X87904195Y-116722373D01*
X87857277Y-116775658D01*
X87789000Y-116795119D01*
X87721040Y-116774577D01*
X87675805Y-116722373D01*
X87626814Y-116617311D01*
X87626811Y-116617306D01*
X87624488Y-116612324D01*
X87615995Y-116600195D01*
X87500136Y-116434730D01*
X87500134Y-116434727D01*
X87496977Y-116430219D01*
X87339781Y-116273023D01*
X87335273Y-116269866D01*
X87335270Y-116269864D01*
X87254275Y-116213151D01*
X87207229Y-116180209D01*
X87162901Y-116124752D01*
X87153500Y-116076996D01*
X87153500Y-111380990D01*
X87173502Y-111312869D01*
X87190405Y-111291895D01*
X91051405Y-107430895D01*
X91113717Y-107396869D01*
X91184532Y-107401934D01*
G37*
%TD.AperFunction*%
%TD*%
M02*
