%TF.GenerationSoftware,KiCad,Pcbnew,(6.0.11)*%
%TF.CreationDate,2025-09-27T21:04:19-04:00*%
%TF.ProjectId,433MHz-SRX882S-Dongle,3433334d-487a-42d5-9352-58383832532d,rev?*%
%TF.SameCoordinates,Original*%
%TF.FileFunction,Legend,Top*%
%TF.FilePolarity,Positive*%
%FSLAX46Y46*%
G04 Gerber Fmt 4.6, Leading zero omitted, Abs format (unit mm)*
G04 Created by KiCad (PCBNEW (6.0.11)) date 2025-09-27 21:04:19*
%MOMM*%
%LPD*%
G01*
G04 APERTURE LIST*
%ADD10C,0.050000*%
%ADD11C,0.150000*%
%ADD12C,0.600000*%
%ADD13C,0.300000*%
%ADD14C,0.120000*%
%ADD15C,0.100000*%
G04 APERTURE END LIST*
D10*
X111100000Y-107800000D02*
X111350000Y-107850000D01*
X111350000Y-107850000D02*
X108350000Y-109700000D01*
X111300000Y-108100000D02*
X111350000Y-107850000D01*
D11*
X104650000Y-92800000D02*
X104250000Y-93450000D01*
D10*
X108050000Y-112550000D02*
X108450000Y-112425000D01*
X108450000Y-112425000D02*
X106650000Y-111575000D01*
D11*
X104650000Y-92800000D02*
X103950000Y-92500000D01*
X97300000Y-92850000D02*
X97800000Y-93050000D01*
X97300000Y-92850000D02*
X97100000Y-93350000D01*
D12*
X99150000Y-108500000D02*
G75*
G03*
X99150000Y-108500000I-300000J0D01*
G01*
D11*
X97650000Y-93700000D02*
X97300000Y-92850000D01*
D10*
X108450000Y-112425000D02*
X108350000Y-112000000D01*
D11*
X103550000Y-93200000D02*
X104650000Y-92800000D01*
D13*
X76221428Y-118678571D02*
X75721428Y-117964285D01*
X75364285Y-118678571D02*
X75364285Y-117178571D01*
X75935714Y-117178571D01*
X76078571Y-117250000D01*
X76150000Y-117321428D01*
X76221428Y-117464285D01*
X76221428Y-117678571D01*
X76150000Y-117821428D01*
X76078571Y-117892857D01*
X75935714Y-117964285D01*
X75364285Y-117964285D01*
X76864285Y-117892857D02*
X77364285Y-117892857D01*
X77578571Y-118678571D02*
X76864285Y-118678571D01*
X76864285Y-117178571D01*
X77578571Y-117178571D01*
X78150000Y-118607142D02*
X78364285Y-118678571D01*
X78721428Y-118678571D01*
X78864285Y-118607142D01*
X78935714Y-118535714D01*
X79007142Y-118392857D01*
X79007142Y-118250000D01*
X78935714Y-118107142D01*
X78864285Y-118035714D01*
X78721428Y-117964285D01*
X78435714Y-117892857D01*
X78292857Y-117821428D01*
X78221428Y-117750000D01*
X78150000Y-117607142D01*
X78150000Y-117464285D01*
X78221428Y-117321428D01*
X78292857Y-117250000D01*
X78435714Y-117178571D01*
X78792857Y-117178571D01*
X79007142Y-117250000D01*
X79650000Y-117892857D02*
X80150000Y-117892857D01*
X80364285Y-118678571D02*
X79650000Y-118678571D01*
X79650000Y-117178571D01*
X80364285Y-117178571D01*
X80792857Y-117178571D02*
X81650000Y-117178571D01*
X81221428Y-118678571D02*
X81221428Y-117178571D01*
D11*
X103619047Y-111252380D02*
X103285714Y-110776190D01*
X103047619Y-111252380D02*
X103047619Y-110252380D01*
X103428571Y-110252380D01*
X103523809Y-110300000D01*
X103571428Y-110347619D01*
X103619047Y-110442857D01*
X103619047Y-110585714D01*
X103571428Y-110680952D01*
X103523809Y-110728571D01*
X103428571Y-110776190D01*
X103047619Y-110776190D01*
X103952380Y-110252380D02*
X104619047Y-111252380D01*
X104619047Y-110252380D02*
X103952380Y-111252380D01*
X104761904Y-111347619D02*
X105523809Y-111347619D01*
X105714285Y-110966666D02*
X106190476Y-110966666D01*
X105619047Y-111252380D02*
X105952380Y-110252380D01*
X106285714Y-111252380D01*
X106619047Y-111252380D02*
X106619047Y-110252380D01*
X107190476Y-111252380D01*
X107190476Y-110252380D01*
X107523809Y-110252380D02*
X108095238Y-110252380D01*
X107809523Y-111252380D02*
X107809523Y-110252380D01*
X102435714Y-118478571D02*
X102578571Y-118526190D01*
X102626190Y-118573809D01*
X102673809Y-118669047D01*
X102673809Y-118811904D01*
X102626190Y-118907142D01*
X102578571Y-118954761D01*
X102483333Y-119002380D01*
X102102380Y-119002380D01*
X102102380Y-118002380D01*
X102435714Y-118002380D01*
X102530952Y-118050000D01*
X102578571Y-118097619D01*
X102626190Y-118192857D01*
X102626190Y-118288095D01*
X102578571Y-118383333D01*
X102530952Y-118430952D01*
X102435714Y-118478571D01*
X102102380Y-118478571D01*
X103292857Y-118002380D02*
X103483333Y-118002380D01*
X103578571Y-118050000D01*
X103673809Y-118145238D01*
X103721428Y-118335714D01*
X103721428Y-118669047D01*
X103673809Y-118859523D01*
X103578571Y-118954761D01*
X103483333Y-119002380D01*
X103292857Y-119002380D01*
X103197619Y-118954761D01*
X103102380Y-118859523D01*
X103054761Y-118669047D01*
X103054761Y-118335714D01*
X103102380Y-118145238D01*
X103197619Y-118050000D01*
X103292857Y-118002380D01*
X104340476Y-118002380D02*
X104530952Y-118002380D01*
X104626190Y-118050000D01*
X104721428Y-118145238D01*
X104769047Y-118335714D01*
X104769047Y-118669047D01*
X104721428Y-118859523D01*
X104626190Y-118954761D01*
X104530952Y-119002380D01*
X104340476Y-119002380D01*
X104245238Y-118954761D01*
X104150000Y-118859523D01*
X104102380Y-118669047D01*
X104102380Y-118335714D01*
X104150000Y-118145238D01*
X104245238Y-118050000D01*
X104340476Y-118002380D01*
X105054761Y-118002380D02*
X105626190Y-118002380D01*
X105340476Y-119002380D02*
X105340476Y-118002380D01*
X107245238Y-119002380D02*
X106673809Y-119002380D01*
X106959523Y-119002380D02*
X106959523Y-118002380D01*
X106864285Y-118145238D01*
X106769047Y-118240476D01*
X106673809Y-118288095D01*
X78183333Y-90352619D02*
X78183333Y-91352619D01*
X77802380Y-91352619D01*
X77707142Y-91305000D01*
X77659523Y-91257380D01*
X77611904Y-91162142D01*
X77611904Y-91019285D01*
X77659523Y-90924047D01*
X77707142Y-90876428D01*
X77802380Y-90828809D01*
X78183333Y-90828809D01*
X77278571Y-91352619D02*
X77040476Y-90352619D01*
X76850000Y-91066904D01*
X76659523Y-90352619D01*
X76421428Y-91352619D01*
X75469047Y-90352619D02*
X75802380Y-90828809D01*
X76040476Y-90352619D02*
X76040476Y-91352619D01*
X75659523Y-91352619D01*
X75564285Y-91305000D01*
X75516666Y-91257380D01*
X75469047Y-91162142D01*
X75469047Y-91019285D01*
X75516666Y-90924047D01*
X75564285Y-90876428D01*
X75659523Y-90828809D01*
X76040476Y-90828809D01*
X77445238Y-89742619D02*
X77254761Y-89742619D01*
X77159523Y-89695000D01*
X77064285Y-89599761D01*
X77016666Y-89409285D01*
X77016666Y-89075952D01*
X77064285Y-88885476D01*
X77159523Y-88790238D01*
X77254761Y-88742619D01*
X77445238Y-88742619D01*
X77540476Y-88790238D01*
X77635714Y-88885476D01*
X77683333Y-89075952D01*
X77683333Y-89409285D01*
X77635714Y-89599761D01*
X77540476Y-89695000D01*
X77445238Y-89742619D01*
X76588095Y-88742619D02*
X76588095Y-89742619D01*
X76016666Y-88742619D02*
X76445238Y-89314047D01*
X76016666Y-89742619D02*
X76588095Y-89171190D01*
X82061904Y-91352619D02*
X81490476Y-91352619D01*
X81776190Y-90352619D02*
X81776190Y-91352619D01*
X81252380Y-91352619D02*
X80585714Y-90352619D01*
X80585714Y-91352619D02*
X81252380Y-90352619D01*
X82419047Y-89028333D02*
X81942857Y-89028333D01*
X82514285Y-88742619D02*
X82180952Y-89742619D01*
X81847619Y-88742619D01*
X80942857Y-88837857D02*
X80990476Y-88790238D01*
X81133333Y-88742619D01*
X81228571Y-88742619D01*
X81371428Y-88790238D01*
X81466666Y-88885476D01*
X81514285Y-88980714D01*
X81561904Y-89171190D01*
X81561904Y-89314047D01*
X81514285Y-89504523D01*
X81466666Y-89599761D01*
X81371428Y-89695000D01*
X81228571Y-89742619D01*
X81133333Y-89742619D01*
X80990476Y-89695000D01*
X80942857Y-89647380D01*
X80657142Y-89742619D02*
X80085714Y-89742619D01*
X80371428Y-88742619D02*
X80371428Y-89742619D01*
X98173809Y-93202380D02*
X98745238Y-93202380D01*
X98459523Y-94202380D02*
X98459523Y-93202380D01*
X98983333Y-93202380D02*
X99650000Y-94202380D01*
X99650000Y-93202380D02*
X98983333Y-94202380D01*
X99792857Y-94297619D02*
X100554761Y-94297619D01*
X100745238Y-93916666D02*
X101221428Y-93916666D01*
X100650000Y-94202380D02*
X100983333Y-93202380D01*
X101316666Y-94202380D01*
X101650000Y-94202380D02*
X101650000Y-93202380D01*
X102221428Y-94202380D01*
X102221428Y-93202380D01*
X102554761Y-93202380D02*
X103126190Y-93202380D01*
X102840476Y-94202380D02*
X102840476Y-93202380D01*
X90316666Y-90402619D02*
X90650000Y-90878809D01*
X90888095Y-90402619D02*
X90888095Y-91402619D01*
X90507142Y-91402619D01*
X90411904Y-91355000D01*
X90364285Y-91307380D01*
X90316666Y-91212142D01*
X90316666Y-91069285D01*
X90364285Y-90974047D01*
X90411904Y-90926428D01*
X90507142Y-90878809D01*
X90888095Y-90878809D01*
X89983333Y-91402619D02*
X89316666Y-90402619D01*
X89316666Y-91402619D02*
X89983333Y-90402619D01*
X91269047Y-89078333D02*
X90792857Y-89078333D01*
X91364285Y-88792619D02*
X91030952Y-89792619D01*
X90697619Y-88792619D01*
X89792857Y-88887857D02*
X89840476Y-88840238D01*
X89983333Y-88792619D01*
X90078571Y-88792619D01*
X90221428Y-88840238D01*
X90316666Y-88935476D01*
X90364285Y-89030714D01*
X90411904Y-89221190D01*
X90411904Y-89364047D01*
X90364285Y-89554523D01*
X90316666Y-89649761D01*
X90221428Y-89745000D01*
X90078571Y-89792619D01*
X89983333Y-89792619D01*
X89840476Y-89745000D01*
X89792857Y-89697380D01*
X89507142Y-89792619D02*
X88935714Y-89792619D01*
X89221428Y-88792619D02*
X89221428Y-89792619D01*
X95235714Y-118578571D02*
X95378571Y-118626190D01*
X95426190Y-118673809D01*
X95473809Y-118769047D01*
X95473809Y-118911904D01*
X95426190Y-119007142D01*
X95378571Y-119054761D01*
X95283333Y-119102380D01*
X94902380Y-119102380D01*
X94902380Y-118102380D01*
X95235714Y-118102380D01*
X95330952Y-118150000D01*
X95378571Y-118197619D01*
X95426190Y-118292857D01*
X95426190Y-118388095D01*
X95378571Y-118483333D01*
X95330952Y-118530952D01*
X95235714Y-118578571D01*
X94902380Y-118578571D01*
X96092857Y-118102380D02*
X96283333Y-118102380D01*
X96378571Y-118150000D01*
X96473809Y-118245238D01*
X96521428Y-118435714D01*
X96521428Y-118769047D01*
X96473809Y-118959523D01*
X96378571Y-119054761D01*
X96283333Y-119102380D01*
X96092857Y-119102380D01*
X95997619Y-119054761D01*
X95902380Y-118959523D01*
X95854761Y-118769047D01*
X95854761Y-118435714D01*
X95902380Y-118245238D01*
X95997619Y-118150000D01*
X96092857Y-118102380D01*
X97140476Y-118102380D02*
X97330952Y-118102380D01*
X97426190Y-118150000D01*
X97521428Y-118245238D01*
X97569047Y-118435714D01*
X97569047Y-118769047D01*
X97521428Y-118959523D01*
X97426190Y-119054761D01*
X97330952Y-119102380D01*
X97140476Y-119102380D01*
X97045238Y-119054761D01*
X96950000Y-118959523D01*
X96902380Y-118769047D01*
X96902380Y-118435714D01*
X96950000Y-118245238D01*
X97045238Y-118150000D01*
X97140476Y-118102380D01*
X97854761Y-118102380D02*
X98426190Y-118102380D01*
X98140476Y-119102380D02*
X98140476Y-118102380D01*
X99711904Y-118102380D02*
X99807142Y-118102380D01*
X99902380Y-118150000D01*
X99950000Y-118197619D01*
X99997619Y-118292857D01*
X100045238Y-118483333D01*
X100045238Y-118721428D01*
X99997619Y-118911904D01*
X99950000Y-119007142D01*
X99902380Y-119054761D01*
X99807142Y-119102380D01*
X99711904Y-119102380D01*
X99616666Y-119054761D01*
X99569047Y-119007142D01*
X99521428Y-118911904D01*
X99473809Y-118721428D01*
X99473809Y-118483333D01*
X99521428Y-118292857D01*
X99569047Y-118197619D01*
X99616666Y-118150000D01*
X99711904Y-118102380D01*
X87514285Y-91347619D02*
X87514285Y-90538095D01*
X87466666Y-90442857D01*
X87419047Y-90395238D01*
X87323809Y-90347619D01*
X87133333Y-90347619D01*
X87038095Y-90395238D01*
X86990476Y-90442857D01*
X86942857Y-90538095D01*
X86942857Y-91347619D01*
X86514285Y-90395238D02*
X86371428Y-90347619D01*
X86133333Y-90347619D01*
X86038095Y-90395238D01*
X85990476Y-90442857D01*
X85942857Y-90538095D01*
X85942857Y-90633333D01*
X85990476Y-90728571D01*
X86038095Y-90776190D01*
X86133333Y-90823809D01*
X86323809Y-90871428D01*
X86419047Y-90919047D01*
X86466666Y-90966666D01*
X86514285Y-91061904D01*
X86514285Y-91157142D01*
X86466666Y-91252380D01*
X86419047Y-91300000D01*
X86323809Y-91347619D01*
X86085714Y-91347619D01*
X85942857Y-91300000D01*
X85514285Y-90871428D02*
X85180952Y-90871428D01*
X85038095Y-90347619D02*
X85514285Y-90347619D01*
X85514285Y-91347619D01*
X85038095Y-91347619D01*
X84038095Y-90347619D02*
X84371428Y-90823809D01*
X84609523Y-90347619D02*
X84609523Y-91347619D01*
X84228571Y-91347619D01*
X84133333Y-91300000D01*
X84085714Y-91252380D01*
X84038095Y-91157142D01*
X84038095Y-91014285D01*
X84085714Y-90919047D01*
X84133333Y-90871428D01*
X84228571Y-90823809D01*
X84609523Y-90823809D01*
%TO.C,D3*%
X86102380Y-96700595D02*
X85102380Y-96700595D01*
X85102380Y-96462500D01*
X85150000Y-96319642D01*
X85245238Y-96224404D01*
X85340476Y-96176785D01*
X85530952Y-96129166D01*
X85673809Y-96129166D01*
X85864285Y-96176785D01*
X85959523Y-96224404D01*
X86054761Y-96319642D01*
X86102380Y-96462500D01*
X86102380Y-96700595D01*
X85102380Y-95795833D02*
X85102380Y-95176785D01*
X85483333Y-95510119D01*
X85483333Y-95367261D01*
X85530952Y-95272023D01*
X85578571Y-95224404D01*
X85673809Y-95176785D01*
X85911904Y-95176785D01*
X86007142Y-95224404D01*
X86054761Y-95272023D01*
X86102380Y-95367261D01*
X86102380Y-95652976D01*
X86054761Y-95748214D01*
X86007142Y-95795833D01*
%TO.C,C1*%
X87933333Y-115657142D02*
X87885714Y-115704761D01*
X87742857Y-115752380D01*
X87647619Y-115752380D01*
X87504761Y-115704761D01*
X87409523Y-115609523D01*
X87361904Y-115514285D01*
X87314285Y-115323809D01*
X87314285Y-115180952D01*
X87361904Y-114990476D01*
X87409523Y-114895238D01*
X87504761Y-114800000D01*
X87647619Y-114752380D01*
X87742857Y-114752380D01*
X87885714Y-114800000D01*
X87933333Y-114847619D01*
X88885714Y-115752380D02*
X88314285Y-115752380D01*
X88600000Y-115752380D02*
X88600000Y-114752380D01*
X88504761Y-114895238D01*
X88409523Y-114990476D01*
X88314285Y-115038095D01*
%TO.C,C4*%
X76083333Y-98707142D02*
X76035714Y-98754761D01*
X75892857Y-98802380D01*
X75797619Y-98802380D01*
X75654761Y-98754761D01*
X75559523Y-98659523D01*
X75511904Y-98564285D01*
X75464285Y-98373809D01*
X75464285Y-98230952D01*
X75511904Y-98040476D01*
X75559523Y-97945238D01*
X75654761Y-97850000D01*
X75797619Y-97802380D01*
X75892857Y-97802380D01*
X76035714Y-97850000D01*
X76083333Y-97897619D01*
X76940476Y-98135714D02*
X76940476Y-98802380D01*
X76702380Y-97754761D02*
X76464285Y-98469047D01*
X77083333Y-98469047D01*
%TO.C,J4*%
X118416666Y-96158630D02*
X118416666Y-96872916D01*
X118369047Y-97015773D01*
X118273809Y-97111011D01*
X118130952Y-97158630D01*
X118035714Y-97158630D01*
X119321428Y-96491964D02*
X119321428Y-97158630D01*
X119083333Y-96111011D02*
X118845238Y-96825297D01*
X119464285Y-96825297D01*
%TO.C,R10*%
X88265064Y-97055357D02*
X87788874Y-97388690D01*
X88265064Y-97626785D02*
X87265064Y-97626785D01*
X87265064Y-97245833D01*
X87312684Y-97150595D01*
X87360303Y-97102976D01*
X87455541Y-97055357D01*
X87598398Y-97055357D01*
X87693636Y-97102976D01*
X87741255Y-97150595D01*
X87788874Y-97245833D01*
X87788874Y-97626785D01*
X88265064Y-96102976D02*
X88265064Y-96674404D01*
X88265064Y-96388690D02*
X87265064Y-96388690D01*
X87407922Y-96483928D01*
X87503160Y-96579166D01*
X87550779Y-96674404D01*
X87265064Y-95483928D02*
X87265064Y-95388690D01*
X87312684Y-95293452D01*
X87360303Y-95245833D01*
X87455541Y-95198214D01*
X87646017Y-95150595D01*
X87884112Y-95150595D01*
X88074588Y-95198214D01*
X88169826Y-95245833D01*
X88217445Y-95293452D01*
X88265064Y-95388690D01*
X88265064Y-95483928D01*
X88217445Y-95579166D01*
X88169826Y-95626785D01*
X88074588Y-95674404D01*
X87884112Y-95722023D01*
X87646017Y-95722023D01*
X87455541Y-95674404D01*
X87360303Y-95626785D01*
X87312684Y-95579166D01*
X87265064Y-95483928D01*
%TO.C,FB1*%
X77078571Y-107483333D02*
X77078571Y-107816666D01*
X77602380Y-107816666D02*
X76602380Y-107816666D01*
X76602380Y-107340476D01*
X77078571Y-106626190D02*
X77126190Y-106483333D01*
X77173809Y-106435714D01*
X77269047Y-106388095D01*
X77411904Y-106388095D01*
X77507142Y-106435714D01*
X77554761Y-106483333D01*
X77602380Y-106578571D01*
X77602380Y-106959523D01*
X76602380Y-106959523D01*
X76602380Y-106626190D01*
X76650000Y-106530952D01*
X76697619Y-106483333D01*
X76792857Y-106435714D01*
X76888095Y-106435714D01*
X76983333Y-106483333D01*
X77030952Y-106530952D01*
X77078571Y-106626190D01*
X77078571Y-106959523D01*
X77602380Y-105435714D02*
X77602380Y-106007142D01*
X77602380Y-105721428D02*
X76602380Y-105721428D01*
X76745238Y-105816666D01*
X76840476Y-105911904D01*
X76888095Y-106007142D01*
%TO.C,C5*%
X98583333Y-112157142D02*
X98535714Y-112204761D01*
X98392857Y-112252380D01*
X98297619Y-112252380D01*
X98154761Y-112204761D01*
X98059523Y-112109523D01*
X98011904Y-112014285D01*
X97964285Y-111823809D01*
X97964285Y-111680952D01*
X98011904Y-111490476D01*
X98059523Y-111395238D01*
X98154761Y-111300000D01*
X98297619Y-111252380D01*
X98392857Y-111252380D01*
X98535714Y-111300000D01*
X98583333Y-111347619D01*
X99488095Y-111252380D02*
X99011904Y-111252380D01*
X98964285Y-111728571D01*
X99011904Y-111680952D01*
X99107142Y-111633333D01*
X99345238Y-111633333D01*
X99440476Y-111680952D01*
X99488095Y-111728571D01*
X99535714Y-111823809D01*
X99535714Y-112061904D01*
X99488095Y-112157142D01*
X99440476Y-112204761D01*
X99345238Y-112252380D01*
X99107142Y-112252380D01*
X99011904Y-112204761D01*
X98964285Y-112157142D01*
%TO.C,C3*%
X89491169Y-110257142D02*
X89443550Y-110304761D01*
X89300693Y-110352380D01*
X89205455Y-110352380D01*
X89062597Y-110304761D01*
X88967359Y-110209523D01*
X88919740Y-110114285D01*
X88872121Y-109923809D01*
X88872121Y-109780952D01*
X88919740Y-109590476D01*
X88967359Y-109495238D01*
X89062597Y-109400000D01*
X89205455Y-109352380D01*
X89300693Y-109352380D01*
X89443550Y-109400000D01*
X89491169Y-109447619D01*
X89824502Y-109352380D02*
X90443550Y-109352380D01*
X90110216Y-109733333D01*
X90253074Y-109733333D01*
X90348312Y-109780952D01*
X90395931Y-109828571D01*
X90443550Y-109923809D01*
X90443550Y-110161904D01*
X90395931Y-110257142D01*
X90348312Y-110304761D01*
X90253074Y-110352380D01*
X89967359Y-110352380D01*
X89872121Y-110304761D01*
X89824502Y-110257142D01*
%TO.C,R12*%
X86307142Y-109102380D02*
X85973809Y-108626190D01*
X85735714Y-109102380D02*
X85735714Y-108102380D01*
X86116666Y-108102380D01*
X86211904Y-108150000D01*
X86259523Y-108197619D01*
X86307142Y-108292857D01*
X86307142Y-108435714D01*
X86259523Y-108530952D01*
X86211904Y-108578571D01*
X86116666Y-108626190D01*
X85735714Y-108626190D01*
X87259523Y-109102380D02*
X86688095Y-109102380D01*
X86973809Y-109102380D02*
X86973809Y-108102380D01*
X86878571Y-108245238D01*
X86783333Y-108340476D01*
X86688095Y-108388095D01*
X87640476Y-108197619D02*
X87688095Y-108150000D01*
X87783333Y-108102380D01*
X88021428Y-108102380D01*
X88116666Y-108150000D01*
X88164285Y-108197619D01*
X88211904Y-108292857D01*
X88211904Y-108388095D01*
X88164285Y-108530952D01*
X87592857Y-109102380D01*
X88211904Y-109102380D01*
%TO.C,JP1*%
X95166666Y-113482380D02*
X95166666Y-114196666D01*
X95119047Y-114339523D01*
X95023809Y-114434761D01*
X94880952Y-114482380D01*
X94785714Y-114482380D01*
X95642857Y-114482380D02*
X95642857Y-113482380D01*
X96023809Y-113482380D01*
X96119047Y-113530000D01*
X96166666Y-113577619D01*
X96214285Y-113672857D01*
X96214285Y-113815714D01*
X96166666Y-113910952D01*
X96119047Y-113958571D01*
X96023809Y-114006190D01*
X95642857Y-114006190D01*
X97166666Y-114482380D02*
X96595238Y-114482380D01*
X96880952Y-114482380D02*
X96880952Y-113482380D01*
X96785714Y-113625238D01*
X96690476Y-113720476D01*
X96595238Y-113768095D01*
%TO.C,C11*%
X103207142Y-102257142D02*
X103159523Y-102304761D01*
X103016666Y-102352380D01*
X102921428Y-102352380D01*
X102778571Y-102304761D01*
X102683333Y-102209523D01*
X102635714Y-102114285D01*
X102588095Y-101923809D01*
X102588095Y-101780952D01*
X102635714Y-101590476D01*
X102683333Y-101495238D01*
X102778571Y-101400000D01*
X102921428Y-101352380D01*
X103016666Y-101352380D01*
X103159523Y-101400000D01*
X103207142Y-101447619D01*
X104159523Y-102352380D02*
X103588095Y-102352380D01*
X103873809Y-102352380D02*
X103873809Y-101352380D01*
X103778571Y-101495238D01*
X103683333Y-101590476D01*
X103588095Y-101638095D01*
X105111904Y-102352380D02*
X104540476Y-102352380D01*
X104826190Y-102352380D02*
X104826190Y-101352380D01*
X104730952Y-101495238D01*
X104635714Y-101590476D01*
X104540476Y-101638095D01*
%TO.C,J5*%
X110666666Y-105402380D02*
X110666666Y-106116666D01*
X110619047Y-106259523D01*
X110523809Y-106354761D01*
X110380952Y-106402380D01*
X110285714Y-106402380D01*
X111619047Y-105402380D02*
X111142857Y-105402380D01*
X111095238Y-105878571D01*
X111142857Y-105830952D01*
X111238095Y-105783333D01*
X111476190Y-105783333D01*
X111571428Y-105830952D01*
X111619047Y-105878571D01*
X111666666Y-105973809D01*
X111666666Y-106211904D01*
X111619047Y-106307142D01*
X111571428Y-106354761D01*
X111476190Y-106402380D01*
X111238095Y-106402380D01*
X111142857Y-106354761D01*
X111095238Y-106307142D01*
%TO.C,C2*%
X109207142Y-97366666D02*
X109254761Y-97414285D01*
X109302380Y-97557142D01*
X109302380Y-97652380D01*
X109254761Y-97795238D01*
X109159523Y-97890476D01*
X109064285Y-97938095D01*
X108873809Y-97985714D01*
X108730952Y-97985714D01*
X108540476Y-97938095D01*
X108445238Y-97890476D01*
X108350000Y-97795238D01*
X108302380Y-97652380D01*
X108302380Y-97557142D01*
X108350000Y-97414285D01*
X108397619Y-97366666D01*
X108397619Y-96985714D02*
X108350000Y-96938095D01*
X108302380Y-96842857D01*
X108302380Y-96604761D01*
X108350000Y-96509523D01*
X108397619Y-96461904D01*
X108492857Y-96414285D01*
X108588095Y-96414285D01*
X108730952Y-96461904D01*
X109302380Y-97033333D01*
X109302380Y-96414285D01*
%TO.C,J1*%
X68666666Y-97552380D02*
X68666666Y-98266666D01*
X68619047Y-98409523D01*
X68523809Y-98504761D01*
X68380952Y-98552380D01*
X68285714Y-98552380D01*
X69666666Y-98552380D02*
X69095238Y-98552380D01*
X69380952Y-98552380D02*
X69380952Y-97552380D01*
X69285714Y-97695238D01*
X69190476Y-97790476D01*
X69095238Y-97838095D01*
%TO.C,U4*%
X93888095Y-109552380D02*
X93888095Y-110361904D01*
X93935714Y-110457142D01*
X93983333Y-110504761D01*
X94078571Y-110552380D01*
X94269047Y-110552380D01*
X94364285Y-110504761D01*
X94411904Y-110457142D01*
X94459523Y-110361904D01*
X94459523Y-109552380D01*
X95364285Y-109885714D02*
X95364285Y-110552380D01*
X95126190Y-109504761D02*
X94888095Y-110219047D01*
X95507142Y-110219047D01*
%TO.C,R2*%
X98883333Y-114402380D02*
X98550000Y-113926190D01*
X98311904Y-114402380D02*
X98311904Y-113402380D01*
X98692857Y-113402380D01*
X98788095Y-113450000D01*
X98835714Y-113497619D01*
X98883333Y-113592857D01*
X98883333Y-113735714D01*
X98835714Y-113830952D01*
X98788095Y-113878571D01*
X98692857Y-113926190D01*
X98311904Y-113926190D01*
X99264285Y-113497619D02*
X99311904Y-113450000D01*
X99407142Y-113402380D01*
X99645238Y-113402380D01*
X99740476Y-113450000D01*
X99788095Y-113497619D01*
X99835714Y-113592857D01*
X99835714Y-113688095D01*
X99788095Y-113830952D01*
X99216666Y-114402380D01*
X99835714Y-114402380D01*
%TO.C,D4*%
X90554494Y-96550595D02*
X89554494Y-96550595D01*
X89554494Y-96312500D01*
X89602114Y-96169642D01*
X89697352Y-96074404D01*
X89792590Y-96026785D01*
X89983066Y-95979166D01*
X90125923Y-95979166D01*
X90316399Y-96026785D01*
X90411637Y-96074404D01*
X90506875Y-96169642D01*
X90554494Y-96312500D01*
X90554494Y-96550595D01*
X89887828Y-95122023D02*
X90554494Y-95122023D01*
X89506875Y-95360119D02*
X90221161Y-95598214D01*
X90221161Y-94979166D01*
%TO.C,R1*%
X72633333Y-111852380D02*
X72300000Y-111376190D01*
X72061904Y-111852380D02*
X72061904Y-110852380D01*
X72442857Y-110852380D01*
X72538095Y-110900000D01*
X72585714Y-110947619D01*
X72633333Y-111042857D01*
X72633333Y-111185714D01*
X72585714Y-111280952D01*
X72538095Y-111328571D01*
X72442857Y-111376190D01*
X72061904Y-111376190D01*
X73585714Y-111852380D02*
X73014285Y-111852380D01*
X73300000Y-111852380D02*
X73300000Y-110852380D01*
X73204761Y-110995238D01*
X73109523Y-111090476D01*
X73014285Y-111138095D01*
%TO.C,R7*%
X79565064Y-95979166D02*
X79088874Y-96312500D01*
X79565064Y-96550595D02*
X78565064Y-96550595D01*
X78565064Y-96169642D01*
X78612684Y-96074404D01*
X78660303Y-96026785D01*
X78755541Y-95979166D01*
X78898398Y-95979166D01*
X78993636Y-96026785D01*
X79041255Y-96074404D01*
X79088874Y-96169642D01*
X79088874Y-96550595D01*
X78565064Y-95645833D02*
X78565064Y-94979166D01*
X79565064Y-95407738D01*
%TO.C,R6*%
X114883333Y-91402380D02*
X114550000Y-90926190D01*
X114311904Y-91402380D02*
X114311904Y-90402380D01*
X114692857Y-90402380D01*
X114788095Y-90450000D01*
X114835714Y-90497619D01*
X114883333Y-90592857D01*
X114883333Y-90735714D01*
X114835714Y-90830952D01*
X114788095Y-90878571D01*
X114692857Y-90926190D01*
X114311904Y-90926190D01*
X115740476Y-90402380D02*
X115550000Y-90402380D01*
X115454761Y-90450000D01*
X115407142Y-90497619D01*
X115311904Y-90640476D01*
X115264285Y-90830952D01*
X115264285Y-91211904D01*
X115311904Y-91307142D01*
X115359523Y-91354761D01*
X115454761Y-91402380D01*
X115645238Y-91402380D01*
X115740476Y-91354761D01*
X115788095Y-91307142D01*
X115835714Y-91211904D01*
X115835714Y-90973809D01*
X115788095Y-90878571D01*
X115740476Y-90830952D01*
X115645238Y-90783333D01*
X115454761Y-90783333D01*
X115359523Y-90830952D01*
X115311904Y-90878571D01*
X115264285Y-90973809D01*
%TO.C,R5*%
X74483333Y-99852380D02*
X74150000Y-99376190D01*
X73911904Y-99852380D02*
X73911904Y-98852380D01*
X74292857Y-98852380D01*
X74388095Y-98900000D01*
X74435714Y-98947619D01*
X74483333Y-99042857D01*
X74483333Y-99185714D01*
X74435714Y-99280952D01*
X74388095Y-99328571D01*
X74292857Y-99376190D01*
X73911904Y-99376190D01*
X75388095Y-98852380D02*
X74911904Y-98852380D01*
X74864285Y-99328571D01*
X74911904Y-99280952D01*
X75007142Y-99233333D01*
X75245238Y-99233333D01*
X75340476Y-99280952D01*
X75388095Y-99328571D01*
X75435714Y-99423809D01*
X75435714Y-99661904D01*
X75388095Y-99757142D01*
X75340476Y-99804761D01*
X75245238Y-99852380D01*
X75007142Y-99852380D01*
X74911904Y-99804761D01*
X74864285Y-99757142D01*
%TO.C,U2*%
X78552380Y-107761904D02*
X79361904Y-107761904D01*
X79457142Y-107714285D01*
X79504761Y-107666666D01*
X79552380Y-107571428D01*
X79552380Y-107380952D01*
X79504761Y-107285714D01*
X79457142Y-107238095D01*
X79361904Y-107190476D01*
X78552380Y-107190476D01*
X78647619Y-106761904D02*
X78600000Y-106714285D01*
X78552380Y-106619047D01*
X78552380Y-106380952D01*
X78600000Y-106285714D01*
X78647619Y-106238095D01*
X78742857Y-106190476D01*
X78838095Y-106190476D01*
X78980952Y-106238095D01*
X79552380Y-106809523D01*
X79552380Y-106190476D01*
%TO.C,C6*%
X88633333Y-100257142D02*
X88585714Y-100304761D01*
X88442857Y-100352380D01*
X88347619Y-100352380D01*
X88204761Y-100304761D01*
X88109523Y-100209523D01*
X88061904Y-100114285D01*
X88014285Y-99923809D01*
X88014285Y-99780952D01*
X88061904Y-99590476D01*
X88109523Y-99495238D01*
X88204761Y-99400000D01*
X88347619Y-99352380D01*
X88442857Y-99352380D01*
X88585714Y-99400000D01*
X88633333Y-99447619D01*
X89490476Y-99352380D02*
X89300000Y-99352380D01*
X89204761Y-99400000D01*
X89157142Y-99447619D01*
X89061904Y-99590476D01*
X89014285Y-99780952D01*
X89014285Y-100161904D01*
X89061904Y-100257142D01*
X89109523Y-100304761D01*
X89204761Y-100352380D01*
X89395238Y-100352380D01*
X89490476Y-100304761D01*
X89538095Y-100257142D01*
X89585714Y-100161904D01*
X89585714Y-99923809D01*
X89538095Y-99828571D01*
X89490476Y-99780952D01*
X89395238Y-99733333D01*
X89204761Y-99733333D01*
X89109523Y-99780952D01*
X89061904Y-99828571D01*
X89014285Y-99923809D01*
%TO.C,R9*%
X84010836Y-95979166D02*
X83534646Y-96312500D01*
X84010836Y-96550595D02*
X83010836Y-96550595D01*
X83010836Y-96169642D01*
X83058456Y-96074404D01*
X83106075Y-96026785D01*
X83201313Y-95979166D01*
X83344170Y-95979166D01*
X83439408Y-96026785D01*
X83487027Y-96074404D01*
X83534646Y-96169642D01*
X83534646Y-96550595D01*
X84010836Y-95502976D02*
X84010836Y-95312500D01*
X83963217Y-95217261D01*
X83915598Y-95169642D01*
X83772741Y-95074404D01*
X83582265Y-95026785D01*
X83201313Y-95026785D01*
X83106075Y-95074404D01*
X83058456Y-95122023D01*
X83010836Y-95217261D01*
X83010836Y-95407738D01*
X83058456Y-95502976D01*
X83106075Y-95550595D01*
X83201313Y-95598214D01*
X83439408Y-95598214D01*
X83534646Y-95550595D01*
X83582265Y-95502976D01*
X83629884Y-95407738D01*
X83629884Y-95217261D01*
X83582265Y-95122023D01*
X83534646Y-95074404D01*
X83439408Y-95026785D01*
%TO.C,C10*%
X103207142Y-107957142D02*
X103159523Y-108004761D01*
X103016666Y-108052380D01*
X102921428Y-108052380D01*
X102778571Y-108004761D01*
X102683333Y-107909523D01*
X102635714Y-107814285D01*
X102588095Y-107623809D01*
X102588095Y-107480952D01*
X102635714Y-107290476D01*
X102683333Y-107195238D01*
X102778571Y-107100000D01*
X102921428Y-107052380D01*
X103016666Y-107052380D01*
X103159523Y-107100000D01*
X103207142Y-107147619D01*
X104159523Y-108052380D02*
X103588095Y-108052380D01*
X103873809Y-108052380D02*
X103873809Y-107052380D01*
X103778571Y-107195238D01*
X103683333Y-107290476D01*
X103588095Y-107338095D01*
X104778571Y-107052380D02*
X104873809Y-107052380D01*
X104969047Y-107100000D01*
X105016666Y-107147619D01*
X105064285Y-107242857D01*
X105111904Y-107433333D01*
X105111904Y-107671428D01*
X105064285Y-107861904D01*
X105016666Y-107957142D01*
X104969047Y-108004761D01*
X104873809Y-108052380D01*
X104778571Y-108052380D01*
X104683333Y-108004761D01*
X104635714Y-107957142D01*
X104588095Y-107861904D01*
X104540476Y-107671428D01*
X104540476Y-107433333D01*
X104588095Y-107242857D01*
X104635714Y-107147619D01*
X104683333Y-107100000D01*
X104778571Y-107052380D01*
%TO.C,R8*%
X82133333Y-115752380D02*
X81800000Y-115276190D01*
X81561904Y-115752380D02*
X81561904Y-114752380D01*
X81942857Y-114752380D01*
X82038095Y-114800000D01*
X82085714Y-114847619D01*
X82133333Y-114942857D01*
X82133333Y-115085714D01*
X82085714Y-115180952D01*
X82038095Y-115228571D01*
X81942857Y-115276190D01*
X81561904Y-115276190D01*
X82704761Y-115180952D02*
X82609523Y-115133333D01*
X82561904Y-115085714D01*
X82514285Y-114990476D01*
X82514285Y-114942857D01*
X82561904Y-114847619D01*
X82609523Y-114800000D01*
X82704761Y-114752380D01*
X82895238Y-114752380D01*
X82990476Y-114800000D01*
X83038095Y-114847619D01*
X83085714Y-114942857D01*
X83085714Y-114990476D01*
X83038095Y-115085714D01*
X82990476Y-115133333D01*
X82895238Y-115180952D01*
X82704761Y-115180952D01*
X82609523Y-115228571D01*
X82561904Y-115276190D01*
X82514285Y-115371428D01*
X82514285Y-115561904D01*
X82561904Y-115657142D01*
X82609523Y-115704761D01*
X82704761Y-115752380D01*
X82895238Y-115752380D01*
X82990476Y-115704761D01*
X83038095Y-115657142D01*
X83085714Y-115561904D01*
X83085714Y-115371428D01*
X83038095Y-115276190D01*
X82990476Y-115228571D01*
X82895238Y-115180952D01*
%TO.C,C12*%
X100607142Y-109557142D02*
X100559523Y-109604761D01*
X100416666Y-109652380D01*
X100321428Y-109652380D01*
X100178571Y-109604761D01*
X100083333Y-109509523D01*
X100035714Y-109414285D01*
X99988095Y-109223809D01*
X99988095Y-109080952D01*
X100035714Y-108890476D01*
X100083333Y-108795238D01*
X100178571Y-108700000D01*
X100321428Y-108652380D01*
X100416666Y-108652380D01*
X100559523Y-108700000D01*
X100607142Y-108747619D01*
X101559523Y-109652380D02*
X100988095Y-109652380D01*
X101273809Y-109652380D02*
X101273809Y-108652380D01*
X101178571Y-108795238D01*
X101083333Y-108890476D01*
X100988095Y-108938095D01*
X101940476Y-108747619D02*
X101988095Y-108700000D01*
X102083333Y-108652380D01*
X102321428Y-108652380D01*
X102416666Y-108700000D01*
X102464285Y-108747619D01*
X102511904Y-108842857D01*
X102511904Y-108938095D01*
X102464285Y-109080952D01*
X101892857Y-109652380D01*
X102511904Y-109652380D01*
%TO.C,C8*%
X101283333Y-98857142D02*
X101235714Y-98904761D01*
X101092857Y-98952380D01*
X100997619Y-98952380D01*
X100854761Y-98904761D01*
X100759523Y-98809523D01*
X100711904Y-98714285D01*
X100664285Y-98523809D01*
X100664285Y-98380952D01*
X100711904Y-98190476D01*
X100759523Y-98095238D01*
X100854761Y-98000000D01*
X100997619Y-97952380D01*
X101092857Y-97952380D01*
X101235714Y-98000000D01*
X101283333Y-98047619D01*
X101854761Y-98380952D02*
X101759523Y-98333333D01*
X101711904Y-98285714D01*
X101664285Y-98190476D01*
X101664285Y-98142857D01*
X101711904Y-98047619D01*
X101759523Y-98000000D01*
X101854761Y-97952380D01*
X102045238Y-97952380D01*
X102140476Y-98000000D01*
X102188095Y-98047619D01*
X102235714Y-98142857D01*
X102235714Y-98190476D01*
X102188095Y-98285714D01*
X102140476Y-98333333D01*
X102045238Y-98380952D01*
X101854761Y-98380952D01*
X101759523Y-98428571D01*
X101711904Y-98476190D01*
X101664285Y-98571428D01*
X101664285Y-98761904D01*
X101711904Y-98857142D01*
X101759523Y-98904761D01*
X101854761Y-98952380D01*
X102045238Y-98952380D01*
X102140476Y-98904761D01*
X102188095Y-98857142D01*
X102235714Y-98761904D01*
X102235714Y-98571428D01*
X102188095Y-98476190D01*
X102140476Y-98428571D01*
X102045238Y-98380952D01*
%TO.C,SW1*%
X75154761Y-114733333D02*
X75202380Y-114590476D01*
X75202380Y-114352380D01*
X75154761Y-114257142D01*
X75107142Y-114209523D01*
X75011904Y-114161904D01*
X74916666Y-114161904D01*
X74821428Y-114209523D01*
X74773809Y-114257142D01*
X74726190Y-114352380D01*
X74678571Y-114542857D01*
X74630952Y-114638095D01*
X74583333Y-114685714D01*
X74488095Y-114733333D01*
X74392857Y-114733333D01*
X74297619Y-114685714D01*
X74250000Y-114638095D01*
X74202380Y-114542857D01*
X74202380Y-114304761D01*
X74250000Y-114161904D01*
X74202380Y-113828571D02*
X75202380Y-113590476D01*
X74488095Y-113400000D01*
X75202380Y-113209523D01*
X74202380Y-112971428D01*
X75202380Y-112066666D02*
X75202380Y-112638095D01*
X75202380Y-112352380D02*
X74202380Y-112352380D01*
X74345238Y-112447619D01*
X74440476Y-112542857D01*
X74488095Y-112638095D01*
%TO.C,Y1*%
X106773809Y-108476190D02*
X106773809Y-108952380D01*
X106440476Y-107952380D02*
X106773809Y-108476190D01*
X107107142Y-107952380D01*
X107964285Y-108952380D02*
X107392857Y-108952380D01*
X107678571Y-108952380D02*
X107678571Y-107952380D01*
X107583333Y-108095238D01*
X107488095Y-108190476D01*
X107392857Y-108238095D01*
%TO.C,R3*%
X105883333Y-114502380D02*
X105550000Y-114026190D01*
X105311904Y-114502380D02*
X105311904Y-113502380D01*
X105692857Y-113502380D01*
X105788095Y-113550000D01*
X105835714Y-113597619D01*
X105883333Y-113692857D01*
X105883333Y-113835714D01*
X105835714Y-113930952D01*
X105788095Y-113978571D01*
X105692857Y-114026190D01*
X105311904Y-114026190D01*
X106216666Y-113502380D02*
X106835714Y-113502380D01*
X106502380Y-113883333D01*
X106645238Y-113883333D01*
X106740476Y-113930952D01*
X106788095Y-113978571D01*
X106835714Y-114073809D01*
X106835714Y-114311904D01*
X106788095Y-114407142D01*
X106740476Y-114454761D01*
X106645238Y-114502380D01*
X106359523Y-114502380D01*
X106264285Y-114454761D01*
X106216666Y-114407142D01*
%TO.C,R4*%
X74483333Y-109362380D02*
X74150000Y-108886190D01*
X73911904Y-109362380D02*
X73911904Y-108362380D01*
X74292857Y-108362380D01*
X74388095Y-108410000D01*
X74435714Y-108457619D01*
X74483333Y-108552857D01*
X74483333Y-108695714D01*
X74435714Y-108790952D01*
X74388095Y-108838571D01*
X74292857Y-108886190D01*
X73911904Y-108886190D01*
X75340476Y-108695714D02*
X75340476Y-109362380D01*
X75102380Y-108314761D02*
X74864285Y-109029047D01*
X75483333Y-109029047D01*
%TO.C,R11*%
X92702380Y-96855357D02*
X92226190Y-97188690D01*
X92702380Y-97426785D02*
X91702380Y-97426785D01*
X91702380Y-97045833D01*
X91750000Y-96950595D01*
X91797619Y-96902976D01*
X91892857Y-96855357D01*
X92035714Y-96855357D01*
X92130952Y-96902976D01*
X92178571Y-96950595D01*
X92226190Y-97045833D01*
X92226190Y-97426785D01*
X92702380Y-95902976D02*
X92702380Y-96474404D01*
X92702380Y-96188690D02*
X91702380Y-96188690D01*
X91845238Y-96283928D01*
X91940476Y-96379166D01*
X91988095Y-96474404D01*
X92702380Y-94950595D02*
X92702380Y-95522023D01*
X92702380Y-95236309D02*
X91702380Y-95236309D01*
X91845238Y-95331547D01*
X91940476Y-95426785D01*
X91988095Y-95522023D01*
%TO.C,L1*%
X99183333Y-96702380D02*
X98707142Y-96702380D01*
X98707142Y-95702380D01*
X100040476Y-96702380D02*
X99469047Y-96702380D01*
X99754761Y-96702380D02*
X99754761Y-95702380D01*
X99659523Y-95845238D01*
X99564285Y-95940476D01*
X99469047Y-95988095D01*
%TO.C,D1*%
X77367178Y-96400595D02*
X76367178Y-96400595D01*
X76367178Y-96162500D01*
X76414798Y-96019642D01*
X76510036Y-95924404D01*
X76605274Y-95876785D01*
X76795750Y-95829166D01*
X76938607Y-95829166D01*
X77129083Y-95876785D01*
X77224321Y-95924404D01*
X77319559Y-96019642D01*
X77367178Y-96162500D01*
X77367178Y-96400595D01*
X77367178Y-94876785D02*
X77367178Y-95448214D01*
X77367178Y-95162500D02*
X76367178Y-95162500D01*
X76510036Y-95257738D01*
X76605274Y-95352976D01*
X76652893Y-95448214D01*
%TO.C,J3*%
X109416666Y-92002380D02*
X109416666Y-92716666D01*
X109369047Y-92859523D01*
X109273809Y-92954761D01*
X109130952Y-93002380D01*
X109035714Y-93002380D01*
X109797619Y-92002380D02*
X110416666Y-92002380D01*
X110083333Y-92383333D01*
X110226190Y-92383333D01*
X110321428Y-92430952D01*
X110369047Y-92478571D01*
X110416666Y-92573809D01*
X110416666Y-92811904D01*
X110369047Y-92907142D01*
X110321428Y-92954761D01*
X110226190Y-93002380D01*
X109940476Y-93002380D01*
X109845238Y-92954761D01*
X109797619Y-92907142D01*
%TO.C,J2*%
X94168780Y-91164880D02*
X94168780Y-91879166D01*
X94121161Y-92022023D01*
X94025923Y-92117261D01*
X93883066Y-92164880D01*
X93787828Y-92164880D01*
X94597352Y-91260119D02*
X94644971Y-91212500D01*
X94740209Y-91164880D01*
X94978304Y-91164880D01*
X95073542Y-91212500D01*
X95121161Y-91260119D01*
X95168780Y-91355357D01*
X95168780Y-91450595D01*
X95121161Y-91593452D01*
X94549733Y-92164880D01*
X95168780Y-92164880D01*
%TO.C,C7*%
X86733333Y-99107142D02*
X86685714Y-99154761D01*
X86542857Y-99202380D01*
X86447619Y-99202380D01*
X86304761Y-99154761D01*
X86209523Y-99059523D01*
X86161904Y-98964285D01*
X86114285Y-98773809D01*
X86114285Y-98630952D01*
X86161904Y-98440476D01*
X86209523Y-98345238D01*
X86304761Y-98250000D01*
X86447619Y-98202380D01*
X86542857Y-98202380D01*
X86685714Y-98250000D01*
X86733333Y-98297619D01*
X87066666Y-98202380D02*
X87733333Y-98202380D01*
X87304761Y-99202380D01*
%TO.C,D2*%
X81712950Y-96600595D02*
X80712950Y-96600595D01*
X80712950Y-96362500D01*
X80760570Y-96219642D01*
X80855808Y-96124404D01*
X80951046Y-96076785D01*
X81141522Y-96029166D01*
X81284379Y-96029166D01*
X81474855Y-96076785D01*
X81570093Y-96124404D01*
X81665331Y-96219642D01*
X81712950Y-96362500D01*
X81712950Y-96600595D01*
X80808189Y-95648214D02*
X80760570Y-95600595D01*
X80712950Y-95505357D01*
X80712950Y-95267261D01*
X80760570Y-95172023D01*
X80808189Y-95124404D01*
X80903427Y-95076785D01*
X80998665Y-95076785D01*
X81141522Y-95124404D01*
X81712950Y-95695833D01*
X81712950Y-95076785D01*
%TO.C,J6*%
X110566666Y-109752380D02*
X110566666Y-110466666D01*
X110519047Y-110609523D01*
X110423809Y-110704761D01*
X110280952Y-110752380D01*
X110185714Y-110752380D01*
X111471428Y-109752380D02*
X111280952Y-109752380D01*
X111185714Y-109800000D01*
X111138095Y-109847619D01*
X111042857Y-109990476D01*
X110995238Y-110180952D01*
X110995238Y-110561904D01*
X111042857Y-110657142D01*
X111090476Y-110704761D01*
X111185714Y-110752380D01*
X111376190Y-110752380D01*
X111471428Y-110704761D01*
X111519047Y-110657142D01*
X111566666Y-110561904D01*
X111566666Y-110323809D01*
X111519047Y-110228571D01*
X111471428Y-110180952D01*
X111376190Y-110133333D01*
X111185714Y-110133333D01*
X111090476Y-110180952D01*
X111042857Y-110228571D01*
X110995238Y-110323809D01*
%TO.C,JP2*%
X102416666Y-113482380D02*
X102416666Y-114196666D01*
X102369047Y-114339523D01*
X102273809Y-114434761D01*
X102130952Y-114482380D01*
X102035714Y-114482380D01*
X102892857Y-114482380D02*
X102892857Y-113482380D01*
X103273809Y-113482380D01*
X103369047Y-113530000D01*
X103416666Y-113577619D01*
X103464285Y-113672857D01*
X103464285Y-113815714D01*
X103416666Y-113910952D01*
X103369047Y-113958571D01*
X103273809Y-114006190D01*
X102892857Y-114006190D01*
X103845238Y-113577619D02*
X103892857Y-113530000D01*
X103988095Y-113482380D01*
X104226190Y-113482380D01*
X104321428Y-113530000D01*
X104369047Y-113577619D01*
X104416666Y-113672857D01*
X104416666Y-113768095D01*
X104369047Y-113910952D01*
X103797619Y-114482380D01*
X104416666Y-114482380D01*
%TO.C,C9*%
X101383333Y-105057142D02*
X101335714Y-105104761D01*
X101192857Y-105152380D01*
X101097619Y-105152380D01*
X100954761Y-105104761D01*
X100859523Y-105009523D01*
X100811904Y-104914285D01*
X100764285Y-104723809D01*
X100764285Y-104580952D01*
X100811904Y-104390476D01*
X100859523Y-104295238D01*
X100954761Y-104200000D01*
X101097619Y-104152380D01*
X101192857Y-104152380D01*
X101335714Y-104200000D01*
X101383333Y-104247619D01*
X101859523Y-105152380D02*
X102050000Y-105152380D01*
X102145238Y-105104761D01*
X102192857Y-105057142D01*
X102288095Y-104914285D01*
X102335714Y-104723809D01*
X102335714Y-104342857D01*
X102288095Y-104247619D01*
X102240476Y-104200000D01*
X102145238Y-104152380D01*
X101954761Y-104152380D01*
X101859523Y-104200000D01*
X101811904Y-104247619D01*
X101764285Y-104342857D01*
X101764285Y-104580952D01*
X101811904Y-104676190D01*
X101859523Y-104723809D01*
X101954761Y-104771428D01*
X102145238Y-104771428D01*
X102240476Y-104723809D01*
X102288095Y-104676190D01*
X102335714Y-104580952D01*
D14*
%TO.C,D3*%
X86660000Y-91577500D02*
X84740000Y-91577500D01*
X86660000Y-94262500D02*
X86660000Y-91577500D01*
X84740000Y-91577500D02*
X84740000Y-94262500D01*
%TO.C,C1*%
X90388748Y-114115000D02*
X90911252Y-114115000D01*
X90388748Y-115585000D02*
X90911252Y-115585000D01*
%TO.C,C4*%
X78688748Y-98685000D02*
X79211252Y-98685000D01*
X78688748Y-97215000D02*
X79211252Y-97215000D01*
%TO.C,J4*%
X120120000Y-111956250D02*
X122780000Y-111956250D01*
X120120000Y-96596250D02*
X121450000Y-96596250D01*
X120120000Y-97926250D02*
X120120000Y-96596250D01*
X122780000Y-99196250D02*
X122780000Y-111956250D01*
X120120000Y-99196250D02*
X120120000Y-111956250D01*
X120120000Y-99196250D02*
X122780000Y-99196250D01*
%TO.C,R10*%
X88632886Y-93035436D02*
X88632886Y-93489564D01*
X87162886Y-93035436D02*
X87162886Y-93489564D01*
%TO.C,FB1*%
X78035000Y-104127064D02*
X78035000Y-103672936D01*
X76565000Y-104127064D02*
X76565000Y-103672936D01*
%TO.C,C5*%
X98490000Y-110092164D02*
X98490000Y-110307836D01*
X99210000Y-110092164D02*
X99210000Y-110307836D01*
%TO.C,C3*%
X89657836Y-109060000D02*
X89442164Y-109060000D01*
X89657836Y-108340000D02*
X89442164Y-108340000D01*
%TO.C,R12*%
X87685000Y-105922936D02*
X87685000Y-106377064D01*
X86215000Y-105922936D02*
X86215000Y-106377064D01*
%TO.C,JP1*%
X95050000Y-116930000D02*
X95050000Y-115530000D01*
X97050000Y-115530000D02*
X97050000Y-116930000D01*
X96350000Y-117630000D02*
X95750000Y-117630000D01*
X95750000Y-114830000D02*
X96350000Y-114830000D01*
X95750000Y-114830000D02*
G75*
G03*
X95050000Y-115530000I-1J-699999D01*
G01*
X96350000Y-117630000D02*
G75*
G03*
X97050000Y-116930000I0J700000D01*
G01*
X95050000Y-116930000D02*
G75*
G03*
X95750000Y-117630000I700000J0D01*
G01*
X97050000Y-115530000D02*
G75*
G03*
X96350000Y-114830000I-699999J1D01*
G01*
%TO.C,C11*%
X103890000Y-103547836D02*
X103890000Y-103332164D01*
X104610000Y-103547836D02*
X104610000Y-103332164D01*
%TO.C,J5*%
X114580000Y-105750000D02*
X114580000Y-107080000D01*
X111920000Y-104480000D02*
X111920000Y-104420000D01*
X114580000Y-104480000D02*
X114580000Y-104420000D01*
X114580000Y-104480000D02*
X111920000Y-104480000D01*
X114580000Y-107080000D02*
X113250000Y-107080000D01*
X114580000Y-104420000D02*
X111920000Y-104420000D01*
%TO.C,C2*%
X111510000Y-96588748D02*
X111510000Y-98011252D01*
X109690000Y-96588748D02*
X109690000Y-98011252D01*
%TO.C,J1*%
X63490000Y-108700000D02*
X63490000Y-99540000D01*
X65195000Y-108700000D02*
X63490000Y-108700000D01*
X63490000Y-99540000D02*
X65195000Y-99540000D01*
X67205000Y-108700000D02*
X69125000Y-108700000D01*
X69125000Y-99540000D02*
X67205000Y-99540000D01*
%TO.C,U4*%
X98260000Y-107860000D02*
X98260000Y-107410000D01*
X91040000Y-100640000D02*
X91040000Y-101090000D01*
X97810000Y-107860000D02*
X98260000Y-107860000D01*
X98260000Y-100640000D02*
X98260000Y-101090000D01*
X91490000Y-107860000D02*
X91040000Y-107860000D01*
X98260000Y-107410000D02*
X99550000Y-107410000D01*
X91040000Y-107860000D02*
X91040000Y-107410000D01*
X97810000Y-100640000D02*
X98260000Y-100640000D01*
X91490000Y-100640000D02*
X91040000Y-100640000D01*
%TO.C,R2*%
X98315000Y-116427064D02*
X98315000Y-115972936D01*
X99785000Y-116427064D02*
X99785000Y-115972936D01*
%TO.C,D4*%
X91062114Y-94262500D02*
X91062114Y-91577500D01*
X89142114Y-91577500D02*
X89142114Y-94262500D01*
X91062114Y-91577500D02*
X89142114Y-91577500D01*
%TO.C,R1*%
X70217936Y-109935000D02*
X70672064Y-109935000D01*
X70217936Y-111405000D02*
X70672064Y-111405000D01*
%TO.C,R7*%
X79847684Y-93035436D02*
X79847684Y-93489564D01*
X78377684Y-93035436D02*
X78377684Y-93489564D01*
%TO.C,R6*%
X112627064Y-91585000D02*
X112172936Y-91585000D01*
X112627064Y-90115000D02*
X112172936Y-90115000D01*
%TO.C,R5*%
X73915000Y-101927064D02*
X73915000Y-101472936D01*
X75385000Y-101927064D02*
X75385000Y-101472936D01*
D15*
%TO.C,U2*%
X78925000Y-105675000D02*
X78925000Y-105375000D01*
X84975000Y-105675000D02*
X85475000Y-105675000D01*
X85475000Y-102450000D02*
X85175000Y-102125000D01*
X78925000Y-102600000D02*
X78925000Y-102125000D01*
X78925000Y-102125000D02*
X79375000Y-102125000D01*
X79300000Y-105675000D02*
X78925000Y-105675000D01*
X85475000Y-102925000D02*
X85475000Y-102450000D01*
X85475000Y-105675000D02*
X85475000Y-105275000D01*
X85175000Y-102125000D02*
X85175000Y-101930000D01*
D14*
%TO.C,C6*%
X90510000Y-99307836D02*
X90510000Y-99092164D01*
X89790000Y-99307836D02*
X89790000Y-99092164D01*
%TO.C,R9*%
X82773456Y-93035436D02*
X82773456Y-93489564D01*
X84243456Y-93035436D02*
X84243456Y-93489564D01*
%TO.C,C10*%
X104610000Y-105932164D02*
X104610000Y-106147836D01*
X103890000Y-105932164D02*
X103890000Y-106147836D01*
%TO.C,R8*%
X85127064Y-115585000D02*
X84672936Y-115585000D01*
X85127064Y-114115000D02*
X84672936Y-114115000D01*
%TO.C,C12*%
X101610000Y-107707836D02*
X101610000Y-107492164D01*
X100890000Y-107707836D02*
X100890000Y-107492164D01*
%TO.C,C8*%
X102060000Y-100459420D02*
X102060000Y-100740580D01*
X101040000Y-100459420D02*
X101040000Y-100740580D01*
%TO.C,SW1*%
X79700000Y-110400000D02*
X81050000Y-111750000D01*
X75850000Y-111750000D02*
X77200000Y-110400000D01*
X77200000Y-115600000D02*
X75850000Y-114250000D01*
X79700000Y-110400000D02*
X77200000Y-110400000D01*
X81050000Y-114250000D02*
X79700000Y-115600000D01*
X75850000Y-111750000D02*
X75850000Y-114250000D01*
X81050000Y-111750000D02*
X81050000Y-114250000D01*
X79700000Y-115600000D02*
X77200000Y-115600000D01*
X80450000Y-113000000D02*
G75*
G03*
X80450000Y-113000000I-2000000J0D01*
G01*
X79450000Y-113000000D02*
G75*
G03*
X79450000Y-113000000I-1000000J0D01*
G01*
%TO.C,Y1*%
X105350000Y-101690000D02*
X105350000Y-107440000D01*
X108950000Y-101690000D02*
X105350000Y-101690000D01*
X108950000Y-107440000D02*
X108950000Y-101690000D01*
%TO.C,R3*%
X106835000Y-115972936D02*
X106835000Y-116427064D01*
X105365000Y-115972936D02*
X105365000Y-116427064D01*
%TO.C,R4*%
X73915000Y-106272936D02*
X73915000Y-106727064D01*
X75385000Y-106272936D02*
X75385000Y-106727064D01*
%TO.C,R11*%
X91565000Y-93035436D02*
X91565000Y-93489564D01*
X93035000Y-93035436D02*
X93035000Y-93489564D01*
%TO.C,L1*%
X98790000Y-98200378D02*
X98790000Y-98999622D01*
X99910000Y-98200378D02*
X99910000Y-98999622D01*
%TO.C,D1*%
X75954798Y-91577500D02*
X75954798Y-94262500D01*
X77874798Y-94262500D02*
X77874798Y-91577500D01*
X77874798Y-91577500D02*
X75954798Y-91577500D01*
D15*
%TO.C,J3*%
X105490000Y-93650000D02*
X105490000Y-93150000D01*
X108790000Y-93650000D02*
X108790000Y-93150000D01*
X105490000Y-93650000D02*
X105990000Y-93650000D01*
X108790000Y-93650000D02*
X108290000Y-93650000D01*
X105490000Y-90450000D02*
X105490000Y-90950000D01*
X108790000Y-90450000D02*
X108290000Y-90450000D01*
X108790000Y-90450000D02*
X108790000Y-90950000D01*
X105490000Y-90450000D02*
X105990000Y-90450000D01*
D14*
%TO.C,J2*%
X95520000Y-89825000D02*
X96850000Y-89825000D01*
X95520000Y-92485000D02*
X98180000Y-92485000D01*
X95520000Y-91155000D02*
X95520000Y-89825000D01*
X95520000Y-92425000D02*
X98180000Y-92425000D01*
X98180000Y-92425000D02*
X98180000Y-92485000D01*
X95520000Y-92425000D02*
X95520000Y-92485000D01*
%TO.C,C7*%
X84411252Y-98910000D02*
X82988748Y-98910000D01*
X84411252Y-97090000D02*
X82988748Y-97090000D01*
%TO.C,D2*%
X82270570Y-94262500D02*
X82270570Y-91577500D01*
X80350570Y-91577500D02*
X80350570Y-94262500D01*
X82270570Y-91577500D02*
X80350570Y-91577500D01*
D15*
%TO.C,J6*%
X108850000Y-111650000D02*
X108850000Y-112150000D01*
X108850000Y-114850000D02*
X108850000Y-114350000D01*
X108850000Y-114850000D02*
X109350000Y-114850000D01*
X112150000Y-114850000D02*
X111650000Y-114850000D01*
X108850000Y-111650000D02*
X109350000Y-111650000D01*
X112150000Y-111650000D02*
X111650000Y-111650000D01*
X112150000Y-111650000D02*
X112150000Y-112150000D01*
X112150000Y-114850000D02*
X112150000Y-114350000D01*
D14*
%TO.C,JP2*%
X102950000Y-114830000D02*
X103550000Y-114830000D01*
X104250000Y-115530000D02*
X104250000Y-116930000D01*
X103550000Y-117630000D02*
X102950000Y-117630000D01*
X102250000Y-116930000D02*
X102250000Y-115530000D01*
X102950000Y-114830000D02*
G75*
G03*
X102250000Y-115530000I-1J-699999D01*
G01*
X103550000Y-117630000D02*
G75*
G03*
X104250000Y-116930000I0J700000D01*
G01*
X102250000Y-116930000D02*
G75*
G03*
X102950000Y-117630000I700000J0D01*
G01*
X104250000Y-115530000D02*
G75*
G03*
X103550000Y-114830000I-699999J1D01*
G01*
%TO.C,C9*%
X101190000Y-103207836D02*
X101190000Y-102992164D01*
X101910000Y-103207836D02*
X101910000Y-102992164D01*
%TD*%
M02*
