%TF.GenerationSoftware,KiCad,Pcbnew,(6.0.11)*%
%TF.CreationDate,2025-09-27T21:04:19-04:00*%
%TF.ProjectId,433MHz-SRX882S-Dongle,3433334d-487a-42d5-9352-58383832532d,rev?*%
%TF.SameCoordinates,Original*%
%TF.FileFunction,Soldermask,Top*%
%TF.FilePolarity,Negative*%
%FSLAX46Y46*%
G04 Gerber Fmt 4.6, Leading zero omitted, Abs format (unit mm)*
G04 Created by KiCad (PCBNEW (6.0.11)) date 2025-09-27 21:04:19*
%MOMM*%
%LPD*%
G01*
G04 APERTURE LIST*
G04 Aperture macros list*
%AMRoundRect*
0 Rectangle with rounded corners*
0 $1 Rounding radius*
0 $2 $3 $4 $5 $6 $7 $8 $9 X,Y pos of 4 corners*
0 Add a 4 corners polygon primitive as box body*
4,1,4,$2,$3,$4,$5,$6,$7,$8,$9,$2,$3,0*
0 Add four circle primitives for the rounded corners*
1,1,$1+$1,$2,$3*
1,1,$1+$1,$4,$5*
1,1,$1+$1,$6,$7*
1,1,$1+$1,$8,$9*
0 Add four rect primitives between the rounded corners*
20,1,$1+$1,$2,$3,$4,$5,0*
20,1,$1+$1,$4,$5,$6,$7,0*
20,1,$1+$1,$6,$7,$8,$9,0*
20,1,$1+$1,$8,$9,$2,$3,0*%
%AMFreePoly0*
4,1,22,0.500000,-0.750000,0.000000,-0.750000,0.000000,-0.745033,-0.079941,-0.743568,-0.215256,-0.701293,-0.333266,-0.622738,-0.424486,-0.514219,-0.481581,-0.384460,-0.499164,-0.250000,-0.500000,-0.250000,-0.500000,0.250000,-0.499164,0.250000,-0.499963,0.256109,-0.478152,0.396186,-0.417904,0.524511,-0.324060,0.630769,-0.204165,0.706417,-0.067858,0.745374,0.000000,0.744959,0.000000,0.750000,
0.500000,0.750000,0.500000,-0.750000,0.500000,-0.750000,$1*%
%AMFreePoly1*
4,1,20,0.000000,0.744959,0.073905,0.744508,0.209726,0.703889,0.328688,0.626782,0.421226,0.519385,0.479903,0.390333,0.500000,0.250000,0.500000,-0.250000,0.499851,-0.262216,0.476331,-0.402017,0.414519,-0.529596,0.319384,-0.634700,0.198574,-0.708877,0.061801,-0.746166,0.000000,-0.745033,0.000000,-0.750000,-0.500000,-0.750000,-0.500000,0.750000,0.000000,0.750000,0.000000,0.744959,
0.000000,0.744959,$1*%
G04 Aperture macros list end*
%ADD10RoundRect,0.243750X-0.456250X0.243750X-0.456250X-0.243750X0.456250X-0.243750X0.456250X0.243750X0*%
%ADD11RoundRect,0.250000X-0.250000X-0.475000X0.250000X-0.475000X0.250000X0.475000X-0.250000X0.475000X0*%
%ADD12C,5.600000*%
%ADD13C,3.600000*%
%ADD14R,1.700000X1.700000*%
%ADD15O,1.700000X1.700000*%
%ADD16RoundRect,0.250000X-0.450000X0.262500X-0.450000X-0.262500X0.450000X-0.262500X0.450000X0.262500X0*%
%ADD17RoundRect,0.250000X0.450000X-0.262500X0.450000X0.262500X-0.450000X0.262500X-0.450000X-0.262500X0*%
%ADD18RoundRect,0.140000X-0.170000X0.140000X-0.170000X-0.140000X0.170000X-0.140000X0.170000X0.140000X0*%
%ADD19RoundRect,0.140000X0.140000X0.170000X-0.140000X0.170000X-0.140000X-0.170000X0.140000X-0.170000X0*%
%ADD20FreePoly0,270.000000*%
%ADD21FreePoly1,270.000000*%
%ADD22RoundRect,0.140000X0.170000X-0.140000X0.170000X0.140000X-0.170000X0.140000X-0.170000X-0.140000X0*%
%ADD23RoundRect,0.250000X-0.650000X0.412500X-0.650000X-0.412500X0.650000X-0.412500X0.650000X0.412500X0*%
%ADD24C,0.650000*%
%ADD25R,1.240000X0.600000*%
%ADD26R,1.240000X0.300000*%
%ADD27O,1.800000X1.000000*%
%ADD28O,2.100000X1.000000*%
%ADD29RoundRect,0.075000X0.662500X0.075000X-0.662500X0.075000X-0.662500X-0.075000X0.662500X-0.075000X0*%
%ADD30RoundRect,0.075000X0.075000X0.662500X-0.075000X0.662500X-0.075000X-0.662500X0.075000X-0.662500X0*%
%ADD31RoundRect,0.250000X-0.262500X-0.450000X0.262500X-0.450000X0.262500X0.450000X-0.262500X0.450000X0*%
%ADD32RoundRect,0.250000X0.262500X0.450000X-0.262500X0.450000X-0.262500X-0.450000X0.262500X-0.450000X0*%
%ADD33R,1.500000X2.200000*%
%ADD34R,3.800000X2.200000*%
%ADD35RoundRect,0.225000X-0.250000X0.225000X-0.250000X-0.225000X0.250000X-0.225000X0.250000X0.225000X0*%
%ADD36R,0.900000X1.000000*%
%ADD37R,2.400000X2.000000*%
%ADD38RoundRect,0.218750X-0.381250X0.218750X-0.381250X-0.218750X0.381250X-0.218750X0.381250X0.218750X0*%
%ADD39R,2.200000X1.050000*%
%ADD40R,1.050000X1.000000*%
%ADD41RoundRect,0.250000X0.325000X0.650000X-0.325000X0.650000X-0.325000X-0.650000X0.325000X-0.650000X0*%
%ADD42C,1.524000*%
G04 APERTURE END LIST*
D10*
%TO.C,D3*%
X85700000Y-92325000D03*
X85700000Y-94200000D03*
%TD*%
D11*
%TO.C,C1*%
X89700000Y-114850000D03*
X91600000Y-114850000D03*
%TD*%
%TO.C,C4*%
X78000000Y-97950000D03*
X79900000Y-97950000D03*
%TD*%
D12*
%TO.C,M3*%
X119750000Y-115900000D03*
D13*
X119750000Y-115900000D03*
%TD*%
D14*
%TO.C,J4*%
X121450000Y-97926250D03*
D15*
X121450000Y-100466250D03*
X121450000Y-103006250D03*
X121450000Y-105546250D03*
X121450000Y-108086250D03*
X121450000Y-110626250D03*
%TD*%
D13*
%TO.C,M3*%
X119750000Y-92400000D03*
D12*
X119750000Y-92400000D03*
%TD*%
D16*
%TO.C,R10*%
X87897886Y-92350000D03*
X87897886Y-94175000D03*
%TD*%
D17*
%TO.C,FB1*%
X77300000Y-104812500D03*
X77300000Y-102987500D03*
%TD*%
D18*
%TO.C,C5*%
X98850000Y-109720000D03*
X98850000Y-110680000D03*
%TD*%
D19*
%TO.C,C3*%
X90030000Y-108700000D03*
X89070000Y-108700000D03*
%TD*%
D16*
%TO.C,R12*%
X86950000Y-105237500D03*
X86950000Y-107062500D03*
%TD*%
D12*
%TO.C,M3*%
X69250000Y-115900000D03*
D13*
X69250000Y-115900000D03*
%TD*%
D20*
%TO.C,JP1*%
X96050000Y-115580000D03*
D21*
X96050000Y-116880000D03*
%TD*%
D22*
%TO.C,C11*%
X104250000Y-103920000D03*
X104250000Y-102960000D03*
%TD*%
D14*
%TO.C,J5*%
X113250000Y-105750000D03*
%TD*%
D23*
%TO.C,C2*%
X110600000Y-95737500D03*
X110600000Y-98862500D03*
%TD*%
D24*
%TO.C,J1*%
X69880000Y-101230000D03*
X69880000Y-107010000D03*
D25*
X71000000Y-100920000D03*
X71000000Y-101720000D03*
D26*
X71000000Y-102870000D03*
X71000000Y-103870000D03*
X71000000Y-104370000D03*
X71000000Y-105370000D03*
D25*
X71000000Y-106520000D03*
X71000000Y-107320000D03*
X71000000Y-107320000D03*
X71000000Y-106520000D03*
D26*
X71000000Y-105870000D03*
X71000000Y-104870000D03*
X71000000Y-103370000D03*
X71000000Y-102370000D03*
D25*
X71000000Y-101720000D03*
X71000000Y-100920000D03*
D27*
X66200000Y-108440000D03*
X66200000Y-99800000D03*
D28*
X70400000Y-99800000D03*
X70400000Y-108440000D03*
%TD*%
D29*
%TO.C,U4*%
X98812500Y-107000000D03*
X98812500Y-106500000D03*
X98812500Y-106000000D03*
X98812500Y-105500000D03*
X98812500Y-105000000D03*
X98812500Y-104500000D03*
X98812500Y-104000000D03*
X98812500Y-103500000D03*
X98812500Y-103000000D03*
X98812500Y-102500000D03*
X98812500Y-102000000D03*
X98812500Y-101500000D03*
D30*
X97400000Y-100087500D03*
X96900000Y-100087500D03*
X96400000Y-100087500D03*
X95900000Y-100087500D03*
X95400000Y-100087500D03*
X94900000Y-100087500D03*
X94400000Y-100087500D03*
X93900000Y-100087500D03*
X93400000Y-100087500D03*
X92900000Y-100087500D03*
X92400000Y-100087500D03*
X91900000Y-100087500D03*
D29*
X90487500Y-101500000D03*
X90487500Y-102000000D03*
X90487500Y-102500000D03*
X90487500Y-103000000D03*
X90487500Y-103500000D03*
X90487500Y-104000000D03*
X90487500Y-104500000D03*
X90487500Y-105000000D03*
X90487500Y-105500000D03*
X90487500Y-106000000D03*
X90487500Y-106500000D03*
X90487500Y-107000000D03*
D30*
X91900000Y-108412500D03*
X92400000Y-108412500D03*
X92900000Y-108412500D03*
X93400000Y-108412500D03*
X93900000Y-108412500D03*
X94400000Y-108412500D03*
X94900000Y-108412500D03*
X95400000Y-108412500D03*
X95900000Y-108412500D03*
X96400000Y-108412500D03*
X96900000Y-108412500D03*
X97400000Y-108412500D03*
%TD*%
D17*
%TO.C,R2*%
X99050000Y-117112500D03*
X99050000Y-115287500D03*
%TD*%
D10*
%TO.C,D4*%
X90102114Y-92325000D03*
X90102114Y-94200000D03*
%TD*%
D31*
%TO.C,R1*%
X69532500Y-110670000D03*
X71357500Y-110670000D03*
%TD*%
D16*
%TO.C,R7*%
X79112684Y-92350000D03*
X79112684Y-94175000D03*
%TD*%
D32*
%TO.C,R6*%
X113312500Y-90850000D03*
X111487500Y-90850000D03*
%TD*%
D17*
%TO.C,R5*%
X74650000Y-102612500D03*
X74650000Y-100787500D03*
%TD*%
D33*
%TO.C,U2*%
X84500000Y-100750000D03*
X82200000Y-100750000D03*
X79900000Y-100750000D03*
D34*
X82200000Y-107050000D03*
%TD*%
D22*
%TO.C,C6*%
X90150000Y-99680000D03*
X90150000Y-98720000D03*
%TD*%
D16*
%TO.C,R9*%
X83508456Y-92350000D03*
X83508456Y-94175000D03*
%TD*%
D18*
%TO.C,C10*%
X104250000Y-105560000D03*
X104250000Y-106520000D03*
%TD*%
D32*
%TO.C,R8*%
X85812500Y-114850000D03*
X83987500Y-114850000D03*
%TD*%
D22*
%TO.C,C12*%
X101250000Y-108080000D03*
X101250000Y-107120000D03*
%TD*%
D35*
%TO.C,C8*%
X101550000Y-99825000D03*
X101550000Y-101375000D03*
%TD*%
D36*
%TO.C,SW1*%
X80300000Y-110100000D03*
X80300000Y-115900000D03*
X76600000Y-115900000D03*
X76600000Y-110100000D03*
%TD*%
D37*
%TO.C,Y1*%
X107150000Y-102890000D03*
X107150000Y-106590000D03*
%TD*%
D16*
%TO.C,R3*%
X106100000Y-115287500D03*
X106100000Y-117112500D03*
%TD*%
%TO.C,R4*%
X74650000Y-105587500D03*
X74650000Y-107412500D03*
%TD*%
%TO.C,R11*%
X92300000Y-92350000D03*
X92300000Y-94175000D03*
%TD*%
D38*
%TO.C,L1*%
X99350000Y-97537500D03*
X99350000Y-99662500D03*
%TD*%
D10*
%TO.C,D1*%
X76914798Y-92325000D03*
X76914798Y-94200000D03*
%TD*%
D39*
%TO.C,J3*%
X107140000Y-93525000D03*
X107140000Y-90575000D03*
D40*
X105640000Y-92050000D03*
%TD*%
D14*
%TO.C,J2*%
X96850000Y-91155000D03*
%TD*%
D41*
%TO.C,C7*%
X85175000Y-98000000D03*
X82225000Y-98000000D03*
%TD*%
D10*
%TO.C,D2*%
X81310570Y-92325000D03*
X81310570Y-94200000D03*
%TD*%
D39*
%TO.C,J6*%
X110500000Y-114725000D03*
X110500000Y-111775000D03*
D40*
X112000000Y-113250000D03*
%TD*%
D20*
%TO.C,JP2*%
X103250000Y-115580000D03*
D21*
X103250000Y-116880000D03*
%TD*%
D13*
%TO.C,M3*%
X69250000Y-92400000D03*
D12*
X69250000Y-92400000D03*
%TD*%
D22*
%TO.C,C9*%
X101550000Y-103580000D03*
X101550000Y-102620000D03*
%TD*%
D42*
%TO.C,U3*%
X113000000Y-117250000D03*
X110460000Y-117250000D03*
X91600000Y-117250000D03*
X89060000Y-117250000D03*
X86520000Y-117250000D03*
X83980000Y-117250000D03*
X113000000Y-109250000D03*
%TD*%
%TO.C,U1*%
X100500000Y-91090000D03*
X113300000Y-93410000D03*
X113300000Y-95950000D03*
X113300000Y-98490000D03*
%TD*%
M02*
