%TF.GenerationSoftware,KiCad,Pcbnew,(6.0.11)*%
%TF.CreationDate,2025-09-27T21:04:19-04:00*%
%TF.ProjectId,433MHz-SRX882S-Dongle,3433334d-487a-42d5-9352-58383832532d,rev?*%
%TF.SameCoordinates,Original*%
%TF.FileFunction,Legend,Bot*%
%TF.FilePolarity,Positive*%
%FSLAX46Y46*%
G04 Gerber Fmt 4.6, Leading zero omitted, Abs format (unit mm)*
G04 Created by KiCad (PCBNEW (6.0.11)) date 2025-09-27 21:04:19*
%MOMM*%
%LPD*%
G01*
G04 APERTURE LIST*
%ADD10C,0.150000*%
%ADD11C,0.120000*%
G04 APERTURE END LIST*
D10*
X119461904Y-108661011D02*
X119319047Y-108708630D01*
X119080952Y-108708630D01*
X118985713Y-108661011D01*
X118938094Y-108613392D01*
X118890475Y-108518154D01*
X118890475Y-108422916D01*
X118938094Y-108327678D01*
X118985713Y-108280059D01*
X119080952Y-108232440D01*
X119271428Y-108184821D01*
X119366666Y-108137202D01*
X119414285Y-108089583D01*
X119461904Y-107994345D01*
X119461904Y-107899107D01*
X119414285Y-107803869D01*
X119366666Y-107756250D01*
X119271428Y-107708630D01*
X119033332Y-107708630D01*
X118890475Y-107756250D01*
X118557142Y-107708630D02*
X118319047Y-108708630D01*
X118128571Y-107994345D01*
X117938094Y-108708630D01*
X117699999Y-107708630D01*
X117128571Y-107708630D02*
X116938094Y-107708630D01*
X116842856Y-107756250D01*
X116747618Y-107851488D01*
X116699999Y-108041964D01*
X116699999Y-108375297D01*
X116747618Y-108565773D01*
X116842856Y-108661011D01*
X116938094Y-108708630D01*
X117128571Y-108708630D01*
X117223809Y-108661011D01*
X117319047Y-108565773D01*
X117366666Y-108375297D01*
X117366666Y-108041964D01*
X117319047Y-107851488D01*
X117223809Y-107756250D01*
X117128571Y-107708630D01*
X119509523Y-97508630D02*
X118890475Y-97508630D01*
X119223808Y-97889583D01*
X119080951Y-97889583D01*
X118985713Y-97937202D01*
X118938094Y-97984821D01*
X118890475Y-98080059D01*
X118890475Y-98318154D01*
X118938094Y-98413392D01*
X118985713Y-98461011D01*
X119080951Y-98508630D01*
X119366666Y-98508630D01*
X119461904Y-98461011D01*
X119509523Y-98413392D01*
X118604761Y-97508630D02*
X118271428Y-98508630D01*
X117938094Y-97508630D01*
X117699999Y-97508630D02*
X117080951Y-97508630D01*
X117414285Y-97889583D01*
X117271428Y-97889583D01*
X117176189Y-97937202D01*
X117128570Y-97984821D01*
X117080951Y-98080059D01*
X117080951Y-98318154D01*
X117128570Y-98413392D01*
X117176189Y-98461011D01*
X117271428Y-98508630D01*
X117557142Y-98508630D01*
X117652380Y-98461011D01*
X117699999Y-98413392D01*
X119461904Y-106061011D02*
X119319047Y-106108630D01*
X119080952Y-106108630D01*
X118985714Y-106061011D01*
X118938095Y-106013392D01*
X118890476Y-105918154D01*
X118890476Y-105822916D01*
X118938095Y-105727678D01*
X118985714Y-105680059D01*
X119080952Y-105632440D01*
X119271428Y-105584821D01*
X119366666Y-105537202D01*
X119414285Y-105489583D01*
X119461904Y-105394345D01*
X119461904Y-105299107D01*
X119414285Y-105203869D01*
X119366666Y-105156250D01*
X119271428Y-105108630D01*
X119033333Y-105108630D01*
X118890476Y-105156250D01*
X118557142Y-105108630D02*
X118319047Y-106108630D01*
X118128571Y-105394345D01*
X117938095Y-106108630D01*
X117700000Y-105108630D01*
X116747619Y-106013392D02*
X116795238Y-106061011D01*
X116938095Y-106108630D01*
X117033333Y-106108630D01*
X117176190Y-106061011D01*
X117271428Y-105965773D01*
X117319047Y-105870535D01*
X117366666Y-105680059D01*
X117366666Y-105537202D01*
X117319047Y-105346726D01*
X117271428Y-105251488D01*
X117176190Y-105156250D01*
X117033333Y-105108630D01*
X116938095Y-105108630D01*
X116795238Y-105156250D01*
X116747619Y-105203869D01*
X115842857Y-106108630D02*
X116319047Y-106108630D01*
X116319047Y-105108630D01*
X115509523Y-106108630D02*
X115509523Y-105108630D01*
X114938095Y-106108630D02*
X115366666Y-105537202D01*
X114938095Y-105108630D02*
X115509523Y-105680059D01*
X118890475Y-110256250D02*
X118985713Y-110208630D01*
X119128571Y-110208630D01*
X119271428Y-110256250D01*
X119366666Y-110351488D01*
X119414285Y-110446726D01*
X119461904Y-110637202D01*
X119461904Y-110780059D01*
X119414285Y-110970535D01*
X119366666Y-111065773D01*
X119271428Y-111161011D01*
X119128571Y-111208630D01*
X119033332Y-111208630D01*
X118890475Y-111161011D01*
X118842856Y-111113392D01*
X118842856Y-110780059D01*
X119033332Y-110780059D01*
X118414285Y-111208630D02*
X118414285Y-110208630D01*
X117842856Y-111208630D01*
X117842856Y-110208630D01*
X117366666Y-111208630D02*
X117366666Y-110208630D01*
X117128571Y-110208630D01*
X116985713Y-110256250D01*
X116890475Y-110351488D01*
X116842856Y-110446726D01*
X116795237Y-110637202D01*
X116795237Y-110780059D01*
X116842856Y-110970535D01*
X116890475Y-111065773D01*
X116985713Y-111161011D01*
X117128571Y-111208630D01*
X117366666Y-111208630D01*
X119461904Y-103561011D02*
X119319047Y-103608630D01*
X119080952Y-103608630D01*
X118985714Y-103561011D01*
X118938095Y-103513392D01*
X118890476Y-103418154D01*
X118890476Y-103322916D01*
X118938095Y-103227678D01*
X118985714Y-103180059D01*
X119080952Y-103132440D01*
X119271428Y-103084821D01*
X119366666Y-103037202D01*
X119414285Y-102989583D01*
X119461904Y-102894345D01*
X119461904Y-102799107D01*
X119414285Y-102703869D01*
X119366666Y-102656250D01*
X119271428Y-102608630D01*
X119033333Y-102608630D01*
X118890476Y-102656250D01*
X118557142Y-102608630D02*
X118319047Y-103608630D01*
X118128571Y-102894345D01*
X117938095Y-103608630D01*
X117699999Y-102608630D01*
X117319047Y-103608630D02*
X117319047Y-102608630D01*
X117080952Y-102608630D01*
X116938095Y-102656250D01*
X116842857Y-102751488D01*
X116795237Y-102846726D01*
X116747618Y-103037202D01*
X116747618Y-103180059D01*
X116795237Y-103370535D01*
X116842857Y-103465773D01*
X116938095Y-103561011D01*
X117080952Y-103608630D01*
X117319047Y-103608630D01*
X116319047Y-103608630D02*
X116319047Y-102608630D01*
X115652380Y-102608630D02*
X115461904Y-102608630D01*
X115366666Y-102656250D01*
X115271428Y-102751488D01*
X115223809Y-102941964D01*
X115223809Y-103275297D01*
X115271428Y-103465773D01*
X115366666Y-103561011D01*
X115461904Y-103608630D01*
X115652380Y-103608630D01*
X115747618Y-103561011D01*
X115842857Y-103465773D01*
X115890476Y-103275297D01*
X115890476Y-102941964D01*
X115842857Y-102751488D01*
X115747618Y-102656250D01*
X115652380Y-102608630D01*
X119652380Y-99726250D02*
X118652380Y-99726250D01*
X118842857Y-101008630D02*
X119176190Y-100532440D01*
X119414285Y-101008630D02*
X119414285Y-100008630D01*
X119033333Y-100008630D01*
X118938095Y-100056250D01*
X118890476Y-100103869D01*
X118842857Y-100199107D01*
X118842857Y-100341964D01*
X118890476Y-100437202D01*
X118938095Y-100484821D01*
X119033333Y-100532440D01*
X119414285Y-100532440D01*
X118652380Y-99726250D02*
X117699999Y-99726250D01*
X118461904Y-100961011D02*
X118319047Y-101008630D01*
X118080952Y-101008630D01*
X117985714Y-100961011D01*
X117938095Y-100913392D01*
X117890476Y-100818154D01*
X117890476Y-100722916D01*
X117938095Y-100627678D01*
X117985714Y-100580059D01*
X118080952Y-100532440D01*
X118271428Y-100484821D01*
X118366666Y-100437202D01*
X118414285Y-100389583D01*
X118461904Y-100294345D01*
X118461904Y-100199107D01*
X118414285Y-100103869D01*
X118366666Y-100056250D01*
X118271428Y-100008630D01*
X118033333Y-100008630D01*
X117890476Y-100056250D01*
X117699999Y-99726250D02*
X116938095Y-99726250D01*
X117604761Y-100008630D02*
X117033333Y-100008630D01*
X117319047Y-101008630D02*
X117319047Y-100008630D01*
%TO.C,U3*%
X78711904Y-117552380D02*
X78711904Y-118361904D01*
X78664285Y-118457142D01*
X78616666Y-118504761D01*
X78521428Y-118552380D01*
X78330952Y-118552380D01*
X78235714Y-118504761D01*
X78188095Y-118457142D01*
X78140476Y-118361904D01*
X78140476Y-117552380D01*
X77759523Y-117552380D02*
X77140476Y-117552380D01*
X77473809Y-117933333D01*
X77330952Y-117933333D01*
X77235714Y-117980952D01*
X77188095Y-118028571D01*
X77140476Y-118123809D01*
X77140476Y-118361904D01*
X77188095Y-118457142D01*
X77235714Y-118504761D01*
X77330952Y-118552380D01*
X77616666Y-118552380D01*
X77711904Y-118504761D01*
X77759523Y-118457142D01*
%TO.C,U1*%
X98461904Y-94502380D02*
X98461904Y-95311904D01*
X98414285Y-95407142D01*
X98366666Y-95454761D01*
X98271428Y-95502380D01*
X98080952Y-95502380D01*
X97985714Y-95454761D01*
X97938095Y-95407142D01*
X97890476Y-95311904D01*
X97890476Y-94502380D01*
X96890476Y-95502380D02*
X97461904Y-95502380D01*
X97176190Y-95502380D02*
X97176190Y-94502380D01*
X97271428Y-94645238D01*
X97366666Y-94740476D01*
X97461904Y-94788095D01*
D11*
%TO.C,U3*%
X79500000Y-118450000D02*
X114500000Y-118450000D01*
X114500000Y-118450000D02*
X114500000Y-108050000D01*
X114500000Y-108050000D02*
X79500000Y-108050000D01*
X79500000Y-108050000D02*
X79500000Y-118450000D01*
%TO.C,U1*%
X114500000Y-101890000D02*
X99300000Y-101890000D01*
X99300000Y-101890000D02*
X99300000Y-89890000D01*
X99300000Y-89890000D02*
X114500000Y-89890000D01*
X114500000Y-89890000D02*
X114500000Y-101890000D01*
%TD*%
M02*
