%TF.GenerationSoftware,KiCad,Pcbnew,(6.0.11)*%
%TF.CreationDate,2025-09-27T21:04:19-04:00*%
%TF.ProjectId,433MHz-SRX882S-Dongle,3433334d-487a-42d5-9352-58383832532d,rev?*%
%TF.SameCoordinates,Original*%
%TF.FileFunction,Soldermask,Bot*%
%TF.FilePolarity,Negative*%
%FSLAX46Y46*%
G04 Gerber Fmt 4.6, Leading zero omitted, Abs format (unit mm)*
G04 Created by KiCad (PCBNEW (6.0.11)) date 2025-09-27 21:04:19*
%MOMM*%
%LPD*%
G01*
G04 APERTURE LIST*
%ADD10C,0.150000*%
%ADD11C,5.600000*%
%ADD12C,3.600000*%
%ADD13R,1.700000X1.700000*%
%ADD14O,1.700000X1.700000*%
%ADD15C,0.650000*%
%ADD16O,1.800000X1.000000*%
%ADD17O,2.100000X1.000000*%
%ADD18C,1.524000*%
G04 APERTURE END LIST*
D10*
X110097619Y-96054761D02*
X109954761Y-96102380D01*
X109716666Y-96102380D01*
X109621428Y-96054761D01*
X109573809Y-96007142D01*
X109526190Y-95911904D01*
X109526190Y-95816666D01*
X109573809Y-95721428D01*
X109621428Y-95673809D01*
X109716666Y-95626190D01*
X109907142Y-95578571D01*
X110002380Y-95530952D01*
X110050000Y-95483333D01*
X110097619Y-95388095D01*
X110097619Y-95292857D01*
X110050000Y-95197619D01*
X110002380Y-95150000D01*
X109907142Y-95102380D01*
X109669047Y-95102380D01*
X109526190Y-95150000D01*
X109240476Y-95102380D02*
X108669047Y-95102380D01*
X108954761Y-96102380D02*
X108954761Y-95102380D01*
X108430952Y-95102380D02*
X107764285Y-96102380D01*
X107764285Y-95102380D02*
X108430952Y-96102380D01*
X107240476Y-95530952D02*
X107335714Y-95483333D01*
X107383333Y-95435714D01*
X107430952Y-95340476D01*
X107430952Y-95292857D01*
X107383333Y-95197619D01*
X107335714Y-95150000D01*
X107240476Y-95102380D01*
X107050000Y-95102380D01*
X106954761Y-95150000D01*
X106907142Y-95197619D01*
X106859523Y-95292857D01*
X106859523Y-95340476D01*
X106907142Y-95435714D01*
X106954761Y-95483333D01*
X107050000Y-95530952D01*
X107240476Y-95530952D01*
X107335714Y-95578571D01*
X107383333Y-95626190D01*
X107430952Y-95721428D01*
X107430952Y-95911904D01*
X107383333Y-96007142D01*
X107335714Y-96054761D01*
X107240476Y-96102380D01*
X107050000Y-96102380D01*
X106954761Y-96054761D01*
X106907142Y-96007142D01*
X106859523Y-95911904D01*
X106859523Y-95721428D01*
X106907142Y-95626190D01*
X106954761Y-95578571D01*
X107050000Y-95530952D01*
X106288095Y-95530952D02*
X106383333Y-95483333D01*
X106430952Y-95435714D01*
X106478571Y-95340476D01*
X106478571Y-95292857D01*
X106430952Y-95197619D01*
X106383333Y-95150000D01*
X106288095Y-95102380D01*
X106097619Y-95102380D01*
X106002380Y-95150000D01*
X105954761Y-95197619D01*
X105907142Y-95292857D01*
X105907142Y-95340476D01*
X105954761Y-95435714D01*
X106002380Y-95483333D01*
X106097619Y-95530952D01*
X106288095Y-95530952D01*
X106383333Y-95578571D01*
X106430952Y-95626190D01*
X106478571Y-95721428D01*
X106478571Y-95911904D01*
X106430952Y-96007142D01*
X106383333Y-96054761D01*
X106288095Y-96102380D01*
X106097619Y-96102380D01*
X106002380Y-96054761D01*
X105954761Y-96007142D01*
X105907142Y-95911904D01*
X105907142Y-95721428D01*
X105954761Y-95626190D01*
X106002380Y-95578571D01*
X106097619Y-95530952D01*
X105573809Y-95102380D02*
X104954761Y-95102380D01*
X105288095Y-95483333D01*
X105145238Y-95483333D01*
X105050000Y-95530952D01*
X105002380Y-95578571D01*
X104954761Y-95673809D01*
X104954761Y-95911904D01*
X105002380Y-96007142D01*
X105050000Y-96054761D01*
X105145238Y-96102380D01*
X105430952Y-96102380D01*
X105526190Y-96054761D01*
X105573809Y-96007142D01*
X104573809Y-96054761D02*
X104430952Y-96102380D01*
X104192857Y-96102380D01*
X104097619Y-96054761D01*
X104050000Y-96007142D01*
X104002380Y-95911904D01*
X104002380Y-95816666D01*
X104050000Y-95721428D01*
X104097619Y-95673809D01*
X104192857Y-95626190D01*
X104383333Y-95578571D01*
X104478571Y-95530952D01*
X104526190Y-95483333D01*
X104573809Y-95388095D01*
X104573809Y-95292857D01*
X104526190Y-95197619D01*
X104478571Y-95150000D01*
X104383333Y-95102380D01*
X104145238Y-95102380D01*
X104002380Y-95150000D01*
X103766666Y-113904761D02*
X103623809Y-113952380D01*
X103385714Y-113952380D01*
X103290476Y-113904761D01*
X103242857Y-113857142D01*
X103195238Y-113761904D01*
X103195238Y-113666666D01*
X103242857Y-113571428D01*
X103290476Y-113523809D01*
X103385714Y-113476190D01*
X103576190Y-113428571D01*
X103671428Y-113380952D01*
X103719047Y-113333333D01*
X103766666Y-113238095D01*
X103766666Y-113142857D01*
X103719047Y-113047619D01*
X103671428Y-113000000D01*
X103576190Y-112952380D01*
X103338095Y-112952380D01*
X103195238Y-113000000D01*
X102195238Y-113952380D02*
X102528571Y-113476190D01*
X102766666Y-113952380D02*
X102766666Y-112952380D01*
X102385714Y-112952380D01*
X102290476Y-113000000D01*
X102242857Y-113047619D01*
X102195238Y-113142857D01*
X102195238Y-113285714D01*
X102242857Y-113380952D01*
X102290476Y-113428571D01*
X102385714Y-113476190D01*
X102766666Y-113476190D01*
X101861904Y-112952380D02*
X101195238Y-113952380D01*
X101195238Y-112952380D02*
X101861904Y-113952380D01*
X100671428Y-113380952D02*
X100766666Y-113333333D01*
X100814285Y-113285714D01*
X100861904Y-113190476D01*
X100861904Y-113142857D01*
X100814285Y-113047619D01*
X100766666Y-113000000D01*
X100671428Y-112952380D01*
X100480952Y-112952380D01*
X100385714Y-113000000D01*
X100338095Y-113047619D01*
X100290476Y-113142857D01*
X100290476Y-113190476D01*
X100338095Y-113285714D01*
X100385714Y-113333333D01*
X100480952Y-113380952D01*
X100671428Y-113380952D01*
X100766666Y-113428571D01*
X100814285Y-113476190D01*
X100861904Y-113571428D01*
X100861904Y-113761904D01*
X100814285Y-113857142D01*
X100766666Y-113904761D01*
X100671428Y-113952380D01*
X100480952Y-113952380D01*
X100385714Y-113904761D01*
X100338095Y-113857142D01*
X100290476Y-113761904D01*
X100290476Y-113571428D01*
X100338095Y-113476190D01*
X100385714Y-113428571D01*
X100480952Y-113380952D01*
X99719047Y-113380952D02*
X99814285Y-113333333D01*
X99861904Y-113285714D01*
X99909523Y-113190476D01*
X99909523Y-113142857D01*
X99861904Y-113047619D01*
X99814285Y-113000000D01*
X99719047Y-112952380D01*
X99528571Y-112952380D01*
X99433333Y-113000000D01*
X99385714Y-113047619D01*
X99338095Y-113142857D01*
X99338095Y-113190476D01*
X99385714Y-113285714D01*
X99433333Y-113333333D01*
X99528571Y-113380952D01*
X99719047Y-113380952D01*
X99814285Y-113428571D01*
X99861904Y-113476190D01*
X99909523Y-113571428D01*
X99909523Y-113761904D01*
X99861904Y-113857142D01*
X99814285Y-113904761D01*
X99719047Y-113952380D01*
X99528571Y-113952380D01*
X99433333Y-113904761D01*
X99385714Y-113857142D01*
X99338095Y-113761904D01*
X99338095Y-113571428D01*
X99385714Y-113476190D01*
X99433333Y-113428571D01*
X99528571Y-113380952D01*
X99004761Y-112952380D02*
X98385714Y-112952380D01*
X98719047Y-113333333D01*
X98576190Y-113333333D01*
X98480952Y-113380952D01*
X98433333Y-113428571D01*
X98385714Y-113523809D01*
X98385714Y-113761904D01*
X98433333Y-113857142D01*
X98480952Y-113904761D01*
X98576190Y-113952380D01*
X98861904Y-113952380D01*
X98957142Y-113904761D01*
X99004761Y-113857142D01*
X98004761Y-113904761D02*
X97861904Y-113952380D01*
X97623809Y-113952380D01*
X97528571Y-113904761D01*
X97480952Y-113857142D01*
X97433333Y-113761904D01*
X97433333Y-113666666D01*
X97480952Y-113571428D01*
X97528571Y-113523809D01*
X97623809Y-113476190D01*
X97814285Y-113428571D01*
X97909523Y-113380952D01*
X97957142Y-113333333D01*
X98004761Y-113238095D01*
X98004761Y-113142857D01*
X97957142Y-113047619D01*
X97909523Y-113000000D01*
X97814285Y-112952380D01*
X97576190Y-112952380D01*
X97433333Y-113000000D01*
X89671428Y-99997380D02*
X89576190Y-99997380D01*
X89480952Y-100045000D01*
X89433333Y-100092619D01*
X89385714Y-100187857D01*
X89338095Y-100378333D01*
X89338095Y-100616428D01*
X89385714Y-100806904D01*
X89433333Y-100902142D01*
X89480952Y-100949761D01*
X89576190Y-100997380D01*
X89671428Y-100997380D01*
X89766666Y-100949761D01*
X89814285Y-100902142D01*
X89861904Y-100806904D01*
X89909523Y-100616428D01*
X89909523Y-100378333D01*
X89861904Y-100187857D01*
X89814285Y-100092619D01*
X89766666Y-100045000D01*
X89671428Y-99997380D01*
X88433333Y-99997380D02*
X88909523Y-99997380D01*
X88957142Y-100473571D01*
X88909523Y-100425952D01*
X88814285Y-100378333D01*
X88576190Y-100378333D01*
X88480952Y-100425952D01*
X88433333Y-100473571D01*
X88385714Y-100568809D01*
X88385714Y-100806904D01*
X88433333Y-100902142D01*
X88480952Y-100949761D01*
X88576190Y-100997380D01*
X88814285Y-100997380D01*
X88909523Y-100949761D01*
X88957142Y-100902142D01*
X87242857Y-99949761D02*
X88100000Y-101235476D01*
X86957142Y-100092619D02*
X86909523Y-100045000D01*
X86814285Y-99997380D01*
X86576190Y-99997380D01*
X86480952Y-100045000D01*
X86433333Y-100092619D01*
X86385714Y-100187857D01*
X86385714Y-100283095D01*
X86433333Y-100425952D01*
X87004761Y-100997380D01*
X86385714Y-100997380D01*
X85766666Y-99997380D02*
X85671428Y-99997380D01*
X85576190Y-100045000D01*
X85528571Y-100092619D01*
X85480952Y-100187857D01*
X85433333Y-100378333D01*
X85433333Y-100616428D01*
X85480952Y-100806904D01*
X85528571Y-100902142D01*
X85576190Y-100949761D01*
X85671428Y-100997380D01*
X85766666Y-100997380D01*
X85861904Y-100949761D01*
X85909523Y-100902142D01*
X85957142Y-100806904D01*
X86004761Y-100616428D01*
X86004761Y-100378333D01*
X85957142Y-100187857D01*
X85909523Y-100092619D01*
X85861904Y-100045000D01*
X85766666Y-99997380D01*
X85052380Y-100092619D02*
X85004761Y-100045000D01*
X84909523Y-99997380D01*
X84671428Y-99997380D01*
X84576190Y-100045000D01*
X84528571Y-100092619D01*
X84480952Y-100187857D01*
X84480952Y-100283095D01*
X84528571Y-100425952D01*
X85100000Y-100997380D01*
X84480952Y-100997380D01*
X83576190Y-99997380D02*
X84052380Y-99997380D01*
X84100000Y-100473571D01*
X84052380Y-100425952D01*
X83957142Y-100378333D01*
X83719047Y-100378333D01*
X83623809Y-100425952D01*
X83576190Y-100473571D01*
X83528571Y-100568809D01*
X83528571Y-100806904D01*
X83576190Y-100902142D01*
X83623809Y-100949761D01*
X83719047Y-100997380D01*
X83957142Y-100997380D01*
X84052380Y-100949761D01*
X84100000Y-100902142D01*
X82385714Y-100949761D02*
X82242857Y-100997380D01*
X82004761Y-100997380D01*
X81909523Y-100949761D01*
X81861904Y-100902142D01*
X81814285Y-100806904D01*
X81814285Y-100711666D01*
X81861904Y-100616428D01*
X81909523Y-100568809D01*
X82004761Y-100521190D01*
X82195238Y-100473571D01*
X82290476Y-100425952D01*
X82338095Y-100378333D01*
X82385714Y-100283095D01*
X82385714Y-100187857D01*
X82338095Y-100092619D01*
X82290476Y-100045000D01*
X82195238Y-99997380D01*
X81957142Y-99997380D01*
X81814285Y-100045000D01*
X81528571Y-99997380D02*
X80957142Y-99997380D01*
X81242857Y-100997380D02*
X81242857Y-99997380D01*
X80623809Y-100997380D02*
X80623809Y-99997380D01*
X80290476Y-100711666D01*
X79957142Y-99997380D01*
X79957142Y-100997380D01*
X79576190Y-99997380D02*
X78957142Y-99997380D01*
X79290476Y-100378333D01*
X79147619Y-100378333D01*
X79052380Y-100425952D01*
X79004761Y-100473571D01*
X78957142Y-100568809D01*
X78957142Y-100806904D01*
X79004761Y-100902142D01*
X79052380Y-100949761D01*
X79147619Y-100997380D01*
X79433333Y-100997380D01*
X79528571Y-100949761D01*
X79576190Y-100902142D01*
X78576190Y-100092619D02*
X78528571Y-100045000D01*
X78433333Y-99997380D01*
X78195238Y-99997380D01*
X78100000Y-100045000D01*
X78052380Y-100092619D01*
X78004761Y-100187857D01*
X78004761Y-100283095D01*
X78052380Y-100425952D01*
X78623809Y-100997380D01*
X78004761Y-100997380D01*
X77242857Y-100473571D02*
X77576190Y-100473571D01*
X77576190Y-100997380D02*
X77576190Y-99997380D01*
X77100000Y-99997380D01*
X76195238Y-100997380D02*
X76766666Y-100997380D01*
X76480952Y-100997380D02*
X76480952Y-99997380D01*
X76576190Y-100140238D01*
X76671428Y-100235476D01*
X76766666Y-100283095D01*
X75576190Y-99997380D02*
X75480952Y-99997380D01*
X75385714Y-100045000D01*
X75338095Y-100092619D01*
X75290476Y-100187857D01*
X75242857Y-100378333D01*
X75242857Y-100616428D01*
X75290476Y-100806904D01*
X75338095Y-100902142D01*
X75385714Y-100949761D01*
X75480952Y-100997380D01*
X75576190Y-100997380D01*
X75671428Y-100949761D01*
X75719047Y-100902142D01*
X75766666Y-100806904D01*
X75814285Y-100616428D01*
X75814285Y-100378333D01*
X75766666Y-100187857D01*
X75719047Y-100092619D01*
X75671428Y-100045000D01*
X75576190Y-99997380D01*
X74909523Y-99997380D02*
X74290476Y-99997380D01*
X74623809Y-100378333D01*
X74480952Y-100378333D01*
X74385714Y-100425952D01*
X74338095Y-100473571D01*
X74290476Y-100568809D01*
X74290476Y-100806904D01*
X74338095Y-100902142D01*
X74385714Y-100949761D01*
X74480952Y-100997380D01*
X74766666Y-100997380D01*
X74861904Y-100949761D01*
X74909523Y-100902142D01*
X90980952Y-101940714D02*
X90980952Y-102607380D01*
X91219047Y-101559761D02*
X91457142Y-102274047D01*
X90838095Y-102274047D01*
X90552380Y-101607380D02*
X89933333Y-101607380D01*
X90266666Y-101988333D01*
X90123809Y-101988333D01*
X90028571Y-102035952D01*
X89980952Y-102083571D01*
X89933333Y-102178809D01*
X89933333Y-102416904D01*
X89980952Y-102512142D01*
X90028571Y-102559761D01*
X90123809Y-102607380D01*
X90409523Y-102607380D01*
X90504761Y-102559761D01*
X90552380Y-102512142D01*
X89600000Y-101607380D02*
X88980952Y-101607380D01*
X89314285Y-101988333D01*
X89171428Y-101988333D01*
X89076190Y-102035952D01*
X89028571Y-102083571D01*
X88980952Y-102178809D01*
X88980952Y-102416904D01*
X89028571Y-102512142D01*
X89076190Y-102559761D01*
X89171428Y-102607380D01*
X89457142Y-102607380D01*
X89552380Y-102559761D01*
X89600000Y-102512142D01*
X88552380Y-102607380D02*
X88552380Y-101607380D01*
X88219047Y-102321666D01*
X87885714Y-101607380D01*
X87885714Y-102607380D01*
X87409523Y-102607380D02*
X87409523Y-101607380D01*
X87409523Y-102083571D02*
X86838095Y-102083571D01*
X86838095Y-102607380D02*
X86838095Y-101607380D01*
X86457142Y-101940714D02*
X85933333Y-101940714D01*
X86457142Y-102607380D01*
X85933333Y-102607380D01*
X84600000Y-101607380D02*
X84409523Y-101607380D01*
X84314285Y-101655000D01*
X84219047Y-101750238D01*
X84171428Y-101940714D01*
X84171428Y-102274047D01*
X84219047Y-102464523D01*
X84314285Y-102559761D01*
X84409523Y-102607380D01*
X84600000Y-102607380D01*
X84695238Y-102559761D01*
X84790476Y-102464523D01*
X84838095Y-102274047D01*
X84838095Y-101940714D01*
X84790476Y-101750238D01*
X84695238Y-101655000D01*
X84600000Y-101607380D01*
X83552380Y-101607380D02*
X83361904Y-101607380D01*
X83266666Y-101655000D01*
X83171428Y-101750238D01*
X83123809Y-101940714D01*
X83123809Y-102274047D01*
X83171428Y-102464523D01*
X83266666Y-102559761D01*
X83361904Y-102607380D01*
X83552380Y-102607380D01*
X83647619Y-102559761D01*
X83742857Y-102464523D01*
X83790476Y-102274047D01*
X83790476Y-101940714D01*
X83742857Y-101750238D01*
X83647619Y-101655000D01*
X83552380Y-101607380D01*
X82695238Y-102607380D02*
X82695238Y-101607380D01*
X82123809Y-102607380D02*
X82552380Y-102035952D01*
X82123809Y-101607380D02*
X82695238Y-102178809D01*
X80361904Y-102607380D02*
X80695238Y-102131190D01*
X80933333Y-102607380D02*
X80933333Y-101607380D01*
X80552380Y-101607380D01*
X80457142Y-101655000D01*
X80409523Y-101702619D01*
X80361904Y-101797857D01*
X80361904Y-101940714D01*
X80409523Y-102035952D01*
X80457142Y-102083571D01*
X80552380Y-102131190D01*
X80933333Y-102131190D01*
X80028571Y-101607380D02*
X79361904Y-102607380D01*
X79361904Y-101607380D02*
X80028571Y-102607380D01*
X78266666Y-101559761D02*
X79123809Y-102845476D01*
X78076190Y-101607380D02*
X77504761Y-101607380D01*
X77790476Y-102607380D02*
X77790476Y-101607380D01*
X77266666Y-101607380D02*
X76600000Y-102607380D01*
X76600000Y-101607380D02*
X77266666Y-102607380D01*
X75552380Y-101940714D02*
X75314285Y-102607380D01*
X75076190Y-101940714D01*
X74171428Y-102607380D02*
X74742857Y-102607380D01*
X74457142Y-102607380D02*
X74457142Y-101607380D01*
X74552380Y-101750238D01*
X74647619Y-101845476D01*
X74742857Y-101893095D01*
X73742857Y-102512142D02*
X73695238Y-102559761D01*
X73742857Y-102607380D01*
X73790476Y-102559761D01*
X73742857Y-102512142D01*
X73742857Y-102607380D01*
X73076190Y-101607380D02*
X72980952Y-101607380D01*
X72885714Y-101655000D01*
X72838095Y-101702619D01*
X72790476Y-101797857D01*
X72742857Y-101988333D01*
X72742857Y-102226428D01*
X72790476Y-102416904D01*
X72838095Y-102512142D01*
X72885714Y-102559761D01*
X72980952Y-102607380D01*
X73076190Y-102607380D01*
X73171428Y-102559761D01*
X73219047Y-102512142D01*
X73266666Y-102416904D01*
X73314285Y-102226428D01*
X73314285Y-101988333D01*
X73266666Y-101797857D01*
X73219047Y-101702619D01*
X73171428Y-101655000D01*
X73076190Y-101607380D01*
D11*
%TO.C,M3*%
X119750000Y-115900000D03*
D12*
X119750000Y-115900000D03*
%TD*%
D13*
%TO.C,J4*%
X121450000Y-97926250D03*
D14*
X121450000Y-100466250D03*
X121450000Y-103006250D03*
X121450000Y-105546250D03*
X121450000Y-108086250D03*
X121450000Y-110626250D03*
%TD*%
D12*
%TO.C,M3*%
X119750000Y-92400000D03*
D11*
X119750000Y-92400000D03*
%TD*%
%TO.C,M3*%
X69250000Y-115900000D03*
D12*
X69250000Y-115900000D03*
%TD*%
D13*
%TO.C,J5*%
X113250000Y-105750000D03*
%TD*%
D15*
%TO.C,J1*%
X69880000Y-101230000D03*
X69880000Y-107010000D03*
D16*
X66200000Y-108440000D03*
X66200000Y-99800000D03*
D17*
X70400000Y-99800000D03*
X70400000Y-108440000D03*
%TD*%
D13*
%TO.C,J2*%
X96850000Y-91155000D03*
%TD*%
D12*
%TO.C,M3*%
X69250000Y-92400000D03*
D11*
X69250000Y-92400000D03*
%TD*%
D18*
%TO.C,U3*%
X113000000Y-117250000D03*
X110460000Y-117250000D03*
X91600000Y-117250000D03*
X89060000Y-117250000D03*
X86520000Y-117250000D03*
X83980000Y-117250000D03*
X113000000Y-109250000D03*
%TD*%
%TO.C,U1*%
X100500000Y-91090000D03*
X113300000Y-93410000D03*
X113300000Y-95950000D03*
X113300000Y-98490000D03*
%TD*%
M02*
