M48
; DRILL file {KiCad (6.0.11)} date Sat Sep 27 21:04:14 2025
; FORMAT={-:-/ absolute / metric / decimal}
; #@! TF.CreationDate,2025-09-27T21:04:14-04:00
; #@! TF.GenerationSoftware,Kicad,Pcbnew,(6.0.11)
; #@! TF.FileFunction,Plated,1,2,PTH
FMAT,2
METRIC
; #@! TA.AperFunction,Plated,PTH,ViaDrill
T1C0.400
; #@! TA.AperFunction,Plated,PTH,ComponentDrill
T2C0.600
; #@! TA.AperFunction,Plated,PTH,ComponentDrill
T3C1.000
; #@! TA.AperFunction,Plated,PTH,ComponentDrill
T4C3.200
%
G90
G05
T1
X72.71Y-107.32
X72.81Y-100.92
X73.95Y-104.35
X75.294Y-103.854
X80.1Y-95.45
X81.9Y-110.1
X82.35Y-95.35
X84.5Y-95.35
X85.25Y-104.0
X85.25Y-105.2
X86.825Y-95.275
X86.95Y-98.0
X88.15Y-114.85
X88.9Y-106.5
X88.95Y-95.724
X91.1Y-95.724
X91.9Y-110.15
X92.2Y-103.65
X92.4Y-101.3
X92.9Y-106.93
X93.156Y-105.455
X93.35Y-95.45
X93.35Y-103.275
X94.4Y-110.2
X94.9Y-103.275
X96.3Y-102.05
X97.163Y-104.001
X97.25Y-110.65
X98.85Y-108.5
X100.3Y-102.05
X100.6Y-117.15
X103.05Y-99.8
X104.25Y-104.74
X107.6Y-117.2
T3
X83.98Y-117.25
X86.52Y-117.25
X89.06Y-117.25
X91.6Y-117.25
X96.85Y-91.155
X100.5Y-91.09
X110.46Y-117.25
X113.0Y-109.25
X113.0Y-117.25
X113.25Y-105.75
X113.3Y-93.41
X113.3Y-95.95
X113.3Y-98.49
X121.45Y-97.926
X121.45Y-100.466
X121.45Y-103.006
X121.45Y-105.546
X121.45Y-108.086
X121.45Y-110.626
T4
X69.25Y-92.4
X69.25Y-115.9
X119.75Y-92.4
X119.75Y-115.9
T2
X66.6Y-99.8G85X65.8Y-99.8
G05
X66.6Y-108.44G85X65.8Y-108.44
G05
X70.95Y-99.8G85X69.85Y-99.8
G05
X70.95Y-108.44G85X69.85Y-108.44
G05
T0
M30
