%TF.GenerationSoftware,KiCad,Pcbnew,(6.0.11)*%
%TF.CreationDate,2025-09-27T21:04:19-04:00*%
%TF.ProjectId,433MHz-SRX882S-Dongle,3433334d-487a-42d5-9352-58383832532d,rev?*%
%TF.SameCoordinates,Original*%
%TF.FileFunction,Paste,Top*%
%TF.FilePolarity,Positive*%
%FSLAX46Y46*%
G04 Gerber Fmt 4.6, Leading zero omitted, Abs format (unit mm)*
G04 Created by KiCad (PCBNEW (6.0.11)) date 2025-09-27 21:04:19*
%MOMM*%
%LPD*%
G01*
G04 APERTURE LIST*
G04 Aperture macros list*
%AMRoundRect*
0 Rectangle with rounded corners*
0 $1 Rounding radius*
0 $2 $3 $4 $5 $6 $7 $8 $9 X,Y pos of 4 corners*
0 Add a 4 corners polygon primitive as box body*
4,1,4,$2,$3,$4,$5,$6,$7,$8,$9,$2,$3,0*
0 Add four circle primitives for the rounded corners*
1,1,$1+$1,$2,$3*
1,1,$1+$1,$4,$5*
1,1,$1+$1,$6,$7*
1,1,$1+$1,$8,$9*
0 Add four rect primitives between the rounded corners*
20,1,$1+$1,$2,$3,$4,$5,0*
20,1,$1+$1,$4,$5,$6,$7,0*
20,1,$1+$1,$6,$7,$8,$9,0*
20,1,$1+$1,$8,$9,$2,$3,0*%
G04 Aperture macros list end*
%ADD10RoundRect,0.243750X-0.456250X0.243750X-0.456250X-0.243750X0.456250X-0.243750X0.456250X0.243750X0*%
%ADD11RoundRect,0.250000X-0.250000X-0.475000X0.250000X-0.475000X0.250000X0.475000X-0.250000X0.475000X0*%
%ADD12RoundRect,0.250000X-0.450000X0.262500X-0.450000X-0.262500X0.450000X-0.262500X0.450000X0.262500X0*%
%ADD13RoundRect,0.250000X0.450000X-0.262500X0.450000X0.262500X-0.450000X0.262500X-0.450000X-0.262500X0*%
%ADD14RoundRect,0.140000X-0.170000X0.140000X-0.170000X-0.140000X0.170000X-0.140000X0.170000X0.140000X0*%
%ADD15RoundRect,0.140000X0.140000X0.170000X-0.140000X0.170000X-0.140000X-0.170000X0.140000X-0.170000X0*%
%ADD16RoundRect,0.140000X0.170000X-0.140000X0.170000X0.140000X-0.170000X0.140000X-0.170000X-0.140000X0*%
%ADD17RoundRect,0.250000X-0.650000X0.412500X-0.650000X-0.412500X0.650000X-0.412500X0.650000X0.412500X0*%
%ADD18R,1.240000X0.600000*%
%ADD19R,1.240000X0.300000*%
%ADD20RoundRect,0.075000X0.662500X0.075000X-0.662500X0.075000X-0.662500X-0.075000X0.662500X-0.075000X0*%
%ADD21RoundRect,0.075000X0.075000X0.662500X-0.075000X0.662500X-0.075000X-0.662500X0.075000X-0.662500X0*%
%ADD22RoundRect,0.250000X-0.262500X-0.450000X0.262500X-0.450000X0.262500X0.450000X-0.262500X0.450000X0*%
%ADD23RoundRect,0.250000X0.262500X0.450000X-0.262500X0.450000X-0.262500X-0.450000X0.262500X-0.450000X0*%
%ADD24R,1.500000X2.200000*%
%ADD25R,3.800000X2.200000*%
%ADD26RoundRect,0.225000X-0.250000X0.225000X-0.250000X-0.225000X0.250000X-0.225000X0.250000X0.225000X0*%
%ADD27R,0.900000X1.000000*%
%ADD28R,2.400000X2.000000*%
%ADD29RoundRect,0.218750X-0.381250X0.218750X-0.381250X-0.218750X0.381250X-0.218750X0.381250X0.218750X0*%
%ADD30R,2.200000X1.050000*%
%ADD31R,1.050000X1.000000*%
%ADD32RoundRect,0.250000X0.325000X0.650000X-0.325000X0.650000X-0.325000X-0.650000X0.325000X-0.650000X0*%
G04 APERTURE END LIST*
D10*
%TO.C,D3*%
X85700000Y-92325000D03*
X85700000Y-94200000D03*
%TD*%
D11*
%TO.C,C1*%
X89700000Y-114850000D03*
X91600000Y-114850000D03*
%TD*%
%TO.C,C4*%
X78000000Y-97950000D03*
X79900000Y-97950000D03*
%TD*%
D12*
%TO.C,R10*%
X87897886Y-92350000D03*
X87897886Y-94175000D03*
%TD*%
D13*
%TO.C,FB1*%
X77300000Y-104812500D03*
X77300000Y-102987500D03*
%TD*%
D14*
%TO.C,C5*%
X98850000Y-109720000D03*
X98850000Y-110680000D03*
%TD*%
D15*
%TO.C,C3*%
X90030000Y-108700000D03*
X89070000Y-108700000D03*
%TD*%
D12*
%TO.C,R12*%
X86950000Y-105237500D03*
X86950000Y-107062500D03*
%TD*%
D16*
%TO.C,C11*%
X104250000Y-103920000D03*
X104250000Y-102960000D03*
%TD*%
D17*
%TO.C,C2*%
X110600000Y-95737500D03*
X110600000Y-98862500D03*
%TD*%
D18*
%TO.C,J1*%
X71000000Y-100920000D03*
X71000000Y-101720000D03*
D19*
X71000000Y-102870000D03*
X71000000Y-103870000D03*
X71000000Y-104370000D03*
X71000000Y-105370000D03*
D18*
X71000000Y-106520000D03*
X71000000Y-107320000D03*
X71000000Y-107320000D03*
X71000000Y-106520000D03*
D19*
X71000000Y-105870000D03*
X71000000Y-104870000D03*
X71000000Y-103370000D03*
X71000000Y-102370000D03*
D18*
X71000000Y-101720000D03*
X71000000Y-100920000D03*
%TD*%
D20*
%TO.C,U4*%
X98812500Y-107000000D03*
X98812500Y-106500000D03*
X98812500Y-106000000D03*
X98812500Y-105500000D03*
X98812500Y-105000000D03*
X98812500Y-104500000D03*
X98812500Y-104000000D03*
X98812500Y-103500000D03*
X98812500Y-103000000D03*
X98812500Y-102500000D03*
X98812500Y-102000000D03*
X98812500Y-101500000D03*
D21*
X97400000Y-100087500D03*
X96900000Y-100087500D03*
X96400000Y-100087500D03*
X95900000Y-100087500D03*
X95400000Y-100087500D03*
X94900000Y-100087500D03*
X94400000Y-100087500D03*
X93900000Y-100087500D03*
X93400000Y-100087500D03*
X92900000Y-100087500D03*
X92400000Y-100087500D03*
X91900000Y-100087500D03*
D20*
X90487500Y-101500000D03*
X90487500Y-102000000D03*
X90487500Y-102500000D03*
X90487500Y-103000000D03*
X90487500Y-103500000D03*
X90487500Y-104000000D03*
X90487500Y-104500000D03*
X90487500Y-105000000D03*
X90487500Y-105500000D03*
X90487500Y-106000000D03*
X90487500Y-106500000D03*
X90487500Y-107000000D03*
D21*
X91900000Y-108412500D03*
X92400000Y-108412500D03*
X92900000Y-108412500D03*
X93400000Y-108412500D03*
X93900000Y-108412500D03*
X94400000Y-108412500D03*
X94900000Y-108412500D03*
X95400000Y-108412500D03*
X95900000Y-108412500D03*
X96400000Y-108412500D03*
X96900000Y-108412500D03*
X97400000Y-108412500D03*
%TD*%
D13*
%TO.C,R2*%
X99050000Y-117112500D03*
X99050000Y-115287500D03*
%TD*%
D10*
%TO.C,D4*%
X90102114Y-92325000D03*
X90102114Y-94200000D03*
%TD*%
D22*
%TO.C,R1*%
X69532500Y-110670000D03*
X71357500Y-110670000D03*
%TD*%
D12*
%TO.C,R7*%
X79112684Y-92350000D03*
X79112684Y-94175000D03*
%TD*%
D23*
%TO.C,R6*%
X113312500Y-90850000D03*
X111487500Y-90850000D03*
%TD*%
D13*
%TO.C,R5*%
X74650000Y-102612500D03*
X74650000Y-100787500D03*
%TD*%
D24*
%TO.C,U2*%
X84500000Y-100750000D03*
X82200000Y-100750000D03*
X79900000Y-100750000D03*
D25*
X82200000Y-107050000D03*
%TD*%
D16*
%TO.C,C6*%
X90150000Y-99680000D03*
X90150000Y-98720000D03*
%TD*%
D12*
%TO.C,R9*%
X83508456Y-92350000D03*
X83508456Y-94175000D03*
%TD*%
D14*
%TO.C,C10*%
X104250000Y-105560000D03*
X104250000Y-106520000D03*
%TD*%
D23*
%TO.C,R8*%
X85812500Y-114850000D03*
X83987500Y-114850000D03*
%TD*%
D16*
%TO.C,C12*%
X101250000Y-108080000D03*
X101250000Y-107120000D03*
%TD*%
D26*
%TO.C,C8*%
X101550000Y-99825000D03*
X101550000Y-101375000D03*
%TD*%
D27*
%TO.C,SW1*%
X80300000Y-110100000D03*
X80300000Y-115900000D03*
X76600000Y-115900000D03*
X76600000Y-110100000D03*
%TD*%
D28*
%TO.C,Y1*%
X107150000Y-102890000D03*
X107150000Y-106590000D03*
%TD*%
D12*
%TO.C,R3*%
X106100000Y-115287500D03*
X106100000Y-117112500D03*
%TD*%
%TO.C,R4*%
X74650000Y-105587500D03*
X74650000Y-107412500D03*
%TD*%
%TO.C,R11*%
X92300000Y-92350000D03*
X92300000Y-94175000D03*
%TD*%
D29*
%TO.C,L1*%
X99350000Y-97537500D03*
X99350000Y-99662500D03*
%TD*%
D10*
%TO.C,D1*%
X76914798Y-92325000D03*
X76914798Y-94200000D03*
%TD*%
D30*
%TO.C,J3*%
X107140000Y-93525000D03*
X107140000Y-90575000D03*
D31*
X105640000Y-92050000D03*
%TD*%
D32*
%TO.C,C7*%
X85175000Y-98000000D03*
X82225000Y-98000000D03*
%TD*%
D10*
%TO.C,D2*%
X81310570Y-92325000D03*
X81310570Y-94200000D03*
%TD*%
D30*
%TO.C,J6*%
X110500000Y-114725000D03*
X110500000Y-111775000D03*
D31*
X112000000Y-113250000D03*
%TD*%
D16*
%TO.C,C9*%
X101550000Y-103580000D03*
X101550000Y-102620000D03*
%TD*%
M02*
